<?xml version="1.0"?>
<svg id="Layer_1" data-name="Layer 1" xmlns="http://www.w3.org/2000/svg" xmlns:xlink="http://www.w3.org/1999/xlink" viewBox="0 0 2000 2000">
  <defs>
    
    <linearGradient id="linear-gradient" x1="715.4" y1="1516.96" x2="1414.79" y2="1516.96" gradientUnits="userSpaceOnUse">
      <stop offset="0" stop-color="#965024"></stop>
      <stop offset=".74" stop-color="#f8d9a3"></stop>
      <stop offset=".84" stop-color="#d9b37c"></stop>
      <stop offset=".94" stop-color="#bb8d56"></stop>
      <stop offset="1" stop-color="#b07f48"></stop>
    </linearGradient>
    <linearGradient id="linear-gradient-2" x1="768.68" y1="1656.9" x2="913.47" y2="1656.9" xlink:href="#linear-gradient"></linearGradient>
    <linearGradient id="linear-gradient-3" x1="765.67" y1="1734.74" x2="768.68" y2="1734.74" xlink:href="#linear-gradient"></linearGradient>
    <linearGradient id="linear-gradient-4" x1="579.37" y1="1217.74" x2="959.81" y2="1217.74" xlink:href="#linear-gradient"></linearGradient>
    <linearGradient id="linear-gradient-5" x1="571.71" y1="1243.55" x2="759.33" y2="1243.55" xlink:href="#linear-gradient"></linearGradient>
    <linearGradient id="linear-gradient-6" x1="997.33" y1="1742.24" x2="1143.91" y2="1742.24" xlink:href="#linear-gradient"></linearGradient>
    <linearGradient id="linear-gradient-7" x1="1188.05" y1="1579.43" x2="1436.34" y2="1579.43" xlink:href="#linear-gradient"></linearGradient>
    <linearGradient id="linear-gradient-8" x1="761.78" y1="911.09" x2="885.06" y2="911.09" xlink:href="#linear-gradient"></linearGradient>
    <linearGradient id="linear-gradient-9" x1="985.56" y1="892.44" x2="1118.99" y2="892.44" xlink:href="#linear-gradient"></linearGradient>
    <linearGradient id="linear-gradient-10" x1="930.87" y1="1175.28" x2="1027.61" y2="1175.28" xlink:href="#linear-gradient"></linearGradient>
    <linearGradient id="linear-gradient-11" x1="1112.76" y1="1041.49" x2="1184.6" y2="1041.49" xlink:href="#linear-gradient"></linearGradient>
    <linearGradient id="linear-gradient-12" x1="1204.94" y1="1650.5" x2="1274.9" y2="1650.5" xlink:href="#linear-gradient"></linearGradient>
    <linearGradient id="linear-gradient-13" x1="760.79" y1="862.61" x2="820.99" y2="862.61" xlink:href="#linear-gradient"></linearGradient>
    <linearGradient id="linear-gradient-14" x1="796.06" y1="755.03" x2="855.48" y2="755.03" xlink:href="#linear-gradient"></linearGradient>
    <linearGradient id="linear-gradient-15" x1="981" y1="1231.58" x2="1042.5" y2="1231.58" xlink:href="#linear-gradient"></linearGradient>
    <linearGradient id="linear-gradient-16" x1="652.71" y1="1632.88" x2="687.81" y2="1632.88" xlink:href="#linear-gradient"></linearGradient>
    <linearGradient id="linear-gradient-17" x1="1212.9" y1="1186.97" x2="1270.27" y2="1186.97" xlink:href="#linear-gradient"></linearGradient>
    <linearGradient id="linear-gradient-18" x1="662.95" y1="1453.53" x2="725.17" y2="1453.53" xlink:href="#linear-gradient"></linearGradient>
    <linearGradient id="linear-gradient-19" x1="1267.32" y1="1295.41" x2="1319.63" y2="1295.41" xlink:href="#linear-gradient"></linearGradient>
    <linearGradient id="linear-gradient-20" x1="1203.22" y1="1385.5" x2="1237.56" y2="1385.5" xlink:href="#linear-gradient"></linearGradient>
    <linearGradient id="linear-gradient-21" x1="925.9" y1="673.09" x2="971.27" y2="673.09" xlink:href="#linear-gradient"></linearGradient>
    <linearGradient id="linear-gradient-22" x1="1147.88" y1="1698.81" x2="1185.86" y2="1698.81" xlink:href="#linear-gradient"></linearGradient>
    <linearGradient id="linear-gradient-23" x1="769.55" y1="1028.31" x2="796.52" y2="1028.31" xlink:href="#linear-gradient"></linearGradient>
    <linearGradient id="linear-gradient-24" x1="716.54" y1="954.06" x2="738.32" y2="954.06" xlink:href="#linear-gradient"></linearGradient>
    <linearGradient id="linear-gradient-25" x1="1275.06" y1="1065.05" x2="1294.82" y2="1065.05" xlink:href="#linear-gradient"></linearGradient>
    <linearGradient id="linear-gradient-26" x1="898.98" y1="597.54" x2="921.27" y2="597.54" xlink:href="#linear-gradient"></linearGradient>
    <linearGradient id="linear-gradient-27" x1="870.68" y1="1719" x2="892.76" y2="1719" xlink:href="#linear-gradient"></linearGradient>
    <linearGradient id="linear-gradient-28" x1="986.29" y1="1408.36" x2="1007.67" y2="1408.36" xlink:href="#linear-gradient"></linearGradient>
    <linearGradient id="linear-gradient-29" x1="1303.34" y1="1572.97" x2="1324.85" y2="1572.97" xlink:href="#linear-gradient"></linearGradient>
    <linearGradient id="linear-gradient-30" x1="1358.46" y1="1152" x2="1378.82" y2="1152" xlink:href="#linear-gradient"></linearGradient>
    <linearGradient id="linear-gradient-31" x1="1081.46" y1="1327.02" x2="1101.14" y2="1327.02" xlink:href="#linear-gradient"></linearGradient>
    <linearGradient id="linear-gradient-32" x1="988.01" y1="1022.15" x2="1005.88" y2="1022.15" xlink:href="#linear-gradient"></linearGradient>
    <linearGradient id="linear-gradient-33" x1="837.07" y1="1492.21" x2="852.98" y2="1492.21" xlink:href="#linear-gradient"></linearGradient>
    <linearGradient id="linear-gradient-34" x1="563.66" y1="1404.1" x2="581.21" y2="1404.1" xlink:href="#linear-gradient"></linearGradient>
    <linearGradient id="linear-gradient-35" x1="960.25" y1="742.45" x2="1348.25" y2="742.45" xlink:href="#linear-gradient"></linearGradient>
    <linearGradient id="linear-gradient-36" x1="921.37" y1="386.59" x2="923.39" y2="386.59" xlink:href="#linear-gradient"></linearGradient>
    <linearGradient id="linear-gradient-37" x1="917.88" y1="526.8" x2="929.39" y2="526.8" xlink:href="#linear-gradient"></linearGradient>
    <linearGradient id="linear-gradient-38" x1="925.64" y1="388.01" x2="925.85" y2="388.01" xlink:href="#linear-gradient"></linearGradient>
    <linearGradient id="linear-gradient-39" x1="787.84" y1="967.57" x2="1240.97" y2="967.57" xlink:href="#linear-gradient"></linearGradient>
    <linearGradient id="linear-gradient-40" x1="924.64" y1="428.31" x2="933.34" y2="428.31" xlink:href="#linear-gradient"></linearGradient>
  </defs>
  <path class="cls-37" d="M820.08,1559.93s0,.17.17.17c.17-.17.5-.17.83-.33-.33.17-.67.17-1,.17ZM1401.94,1227.78c-1.84-5.17-4.01-10.35-7.01-14.85-2.34-3.51-6.01-6.68-9.68-8.85-3-1.84-6.18-.5-6.51,3.67-.17,2.17,0,4.17.5,6.18,2.67,11.02,6.01,21.87,8.01,32.88,1.34,6.68,1.67,13.69.84,20.2-.84,5.67-3.84,11.68-10.68,12.35-6.84.5-8.85-5.34-11.18-10.35-2.5-5.17-5.17-10.52-8.51-15.19-1.17-1.84-4.84-3.5-6.84-3-1.84.33-4.17,3.84-4.17,5.84-.5,12.02-1,24.04-.33,35.89.67,9.85,3.17,19.53,4.51,29.38,2.5,18.69-1,36.22-11.18,52.24-5.01,7.84-11.35,12.85-21.03,12.02-9.01-.83-13.69-6.51-16.86-14.52-1.84-4.34-3.84-8.85-6.68-12.68-3-4.01-7.01-4.17-10.52-.67-2,1.84-3.67,4.17-4.51,6.68-5.17,16.36-9.51,32.71-9.18,50.41.5,15.36-.33,30.71-2,46.07-.83,7.68-3.34,15.52-7.01,22.37-9.85,18.03-26.71,20.86-41.73,7.01-12.85-12.02-23.7-25.7-29.04-42.9-5.01-16.19-12.68-31.05-21.36-45.57-1.67-2.67-4.17-4.67-7.85-8.68-1.84,5.34-3.17,8.35-3.84,11.52-1.84,10.18-3.17,20.36-5.17,30.55-1.34,7.34.17,14.02,3.34,20.86,5.17,10.68,10.18,21.7,14.35,32.88,2,5.34,3.84,11.68,2.84,17.03-4.01,19.86-12.85,37.56-28.71,50.91-7.85,6.68-15.52,4.84-19.86-4.51-2.5-5.17-3.67-11.02-5.34-16.53-2-6.34-3-12.85-5.84-18.69-6.18-12.68-12.85-13.52-20.53-1.67-6.18,9.35-10.35,20.03-15.36,30.21-4.01,8.18-7.18,17.03-11.85,24.87-8.35,13.69-18.36,25.54-33.55,32.38-12.02,5.51-23.03,3.84-32.21-5.01-5.68-5.51-11.02-11.68-14.52-18.53-7.68-14.86-14.35-30.38-21.03-45.73-2.17-4.84-4.01-9.85-6.01-15.36-7.34,3.17-14.85,6.18-22.7,9.01-4.34,1.67-8.68,3.34-13.02,4.84,16.02,37.39,29.38,74.28,35.55,113.5,1.5,9.68,3.5,20.36,1,29.54-11.18,42.4-33.55,76.45-76.45,93.14-5.51,2.17-11.85,3.5-17.86,3.67-13.85.17-27.37-1.5-40.39-4.84-1.67-.33-3.67-.83-5.68-1.5-2.84-.83-5.67-1.67-8.68-2.67-2.17-.83-4.51-1.67-6.84-2.67-1-.33-2-.83-3-1.33-2.34-.84-4.67-1.84-7.01-3.01-2.67-1.33-5.01-3.17-7.68-5.34-1-.67-2-1.5-3-2.17-7.18-5.34-12.85-10.85-17.19-15.86-2.67-2.67-4.67-5.17-6.34-7.51-13.69-17.69-19.53-38.39-21.03-60.76-.67-10.18-1.34-20.53,2.17-30.54,10.52-30.38,22.7-60.09,39.06-87.96.83-1.17,1.84-2.34,1.84-3.67.17-1.5,0-4.17-.83-4.51-1.5-.83-4.17-.83-5.51,0-2.17,1.5-3.84,4.01-5.17,6.18-5.51,8.68-10.52,17.69-16.36,26.21-16.19,23.2-25.87,48.91-32.72,76.11-14.52,59.25.33,109.83,45.4,151.06,7.18,6.51,14.19,10.68,19.19,13.52,21.37,12.52,42.06,17.19,57.75,18.86,7.34.67,14.69.67,21.87-.17,1.67-.17,3.34-.5,5.01-.67,10.52-1.17,20.86-4.17,30.38-8.85h.17c7.85-3.84,18.53-10.35,29.38-20.53,9.68-9.35,15.19-17.69,20.2-25.2,12.85-19.2,22.03-40.39,27.54-63.43,3.51-14.19,4.17-29.04,5.84-43.73.67-6.18.67-12.52,3.34-19.03,5.68,4.01,10.18,7.68,15.19,10.52,20.7,11.18,43.23,4.17,59.25-13.69,12.02-13.19,21.36-28.38,28.04-45.23,2.5-6.34,5.34-12.52,8.35-18.69,1.34-3,3-6.01,7.34-7.01,2.17,6.34,4.01,12.02,6.18,17.86,3,7.68,7.01,14.69,13.69,20.03,10.35,8.01,18.03,8.51,27.71-.33,6.68-6.18,12.69-13.52,17.69-21.03,10.85-16.19,16.69-34.38,21.2-53.25,1-4.17,2.34-8.18,4.01-13.52,11.68,12.18,24.2,20.36,38.06,26.54,17.19,7.68,42.4-.67,50.91-17.53,5.34-10.68,10.01-21.87,10.52-34.05.83-16.19,1.34-32.21,2.17-48.24.33-9.18.33-18.53,5.84-27.87,3.34,3.17,6.34,5.84,9.35,8.35,12.19,10.52,37.89,12.52,49.24-6.84,11.52-19.7,16.36-40.39,15.19-62.76-.5-7.85-2.17-15.69-3.17-23.54-.33-3.5,0-7.01,0-11.85,2.84,1.33,4.51,1.84,5.84,2.67,14.19,9.18,26.71,2.5,31.38-12.02,3-9.68,4.01-20.2,4.01-30.38-.17-20.36-6.18-39.89-12.85-58.92Z"></path>
  <path class="cls-4" d="M901.87,1636.38c-8.68-5.84-9.01-6.34-4.84-16.86,3.34-8.68,4.84-17.86,3.84-27.21-2.5-23.37-26.87-34.89-47.07-22.53-12.18,7.68-18.03,19.36-22.53,32.05-6.51,18.36-2.84,29.04,13.35,39.39,6.51,4.17,13.02,8.18,20.53,12.85-2.67,3.84-4.34,7.34-6.84,9.85-8.68,9.35-16.86,19.2-26.54,27.21-19.53,16.19-39.73,31.38-59.92,47.24-1.11-.63-2.2-1.16-3.17-2.06,3.91,4.15,8.44,8.47,14.19,12.74,2.34-1.34,3.17-2,4.01-2.5,33.88-21.36,64.76-46.07,88.13-79.12,4.67-6.51,5.67-6.34,12.85-3,6.34,3.17,12.52,6.34,19.86,10.01,1.67-5.51,3.17-9.68,4.01-13.85q3.17-15.52-9.85-24.2ZM877.17,1621.52c-8.01-4.84-15.02-9.18-21.87-13.35,4.34-6.51,8.35-8.01,14.69-6.01,6.84,2.17,8.68,6.68,7.18,19.36Z"></path>
  <path class="cls-16" d="M765.67,1733.19c.87,1,2.03,2.08,3.01,3.11-.05-.05-.12-.06-.17-.11-1-1-2-2-2.84-3Z"></path>
  <path class="cls-13" d="M877.22,1078.52c0,4.29-.57,8.67.1,12.86,3.32,20.63,7.8,41.12,10.2,61.84,1.65,14.18.93,28.69.49,43.04-.14,4.57-2.13,9.41-4.38,13.52-7.03,12.81-20.93,15.1-31.62,4.83-6.13-5.89-11.11-13.01-16.34-19.78-4.4-5.69-8.33-11.75-12.65-17.5-2.41-3.2-5.21-6.12-7.79-9.12-6.46,1.75-8.44,6.33-9.03,10.99-1.68,13.21-4.29,26.57-3.69,39.74,1.06,23.58,4.13,47.07,6.48,70.59,4.57,45.77,7.2,91.63,3.62,137.58-2.3,29.6-9.57,57.82-23.18,84.64-6.69,13.2-14.72,24.93-25.65,34.18-10.64,9-23.11,16.06-36.78,19.57-10.2,2.62-20.87,4.26-31.39,4.68-27.96,1.11-54.41-5.84-79.26-18.26-15.34-7.67-26.16-20.76-36.52-34.06-.52-.67-.29-1.92-.45-3.15,4.08-2.99,7.01.07,10.18,1.65,24.51,12.22,50.29,18.21,77.63,14.05,29.82-4.53,56.03-16.52,73.99-41.78,11.94-16.79,20.8-35.45,27-55.19,9.84-31.32,13.52-63.64,14.6-96.27,1.28-38.81-1.53-77.41-6.64-115.89-3.3-24.86-4.7-49.9-.68-74.81,1.28-7.95,4.15-15.91,7.7-23.18,4.56-9.34,14.67-10.93,22.23-3.73,5.16,4.91,9.39,10.87,13.7,16.61,5.35,7.12,10.19,14.63,15.6,21.7,2.47,3.22,5.47,6.23,8.77,8.58,5.33,3.78,10.94,2.73,13.96-3,2.17-4.11,3.43-8.95,4-13.6,1.99-16.24-1.46-32.01-4.47-47.88-3.57-18.82-6.47-37.78-9.17-56.75-1.06-7.44-.93-15.08,2.75-22.13,3.45-6.6,7.43-7.81,12.94-2.8,5.3,4.82,9.6,10.73,14.76,15.73,4.14,4.01,8.54,7.98,13.47,10.87,6.11,3.58,10.33,2.42,13.93-3.6,2.4-4.01,3.96-8.71,5-13.31,4.57-20.12,1.43-39.39-6.47-58.27-3.42-8.17-5.57-16.88-8.2-25.38-.61-1.95-1.24-4.04-1.13-6.02.1-1.82.7-4.43,1.96-5.15,1.38-.79,4.36-.51,5.6.53,3.08,2.6,5.81,5.73,8.24,8.97,2.66,3.55,4.54,7.71,7.31,11.16,3.26,4.06,5.57,3.87,9.41.22,5.01-4.77,6.11-11.04,4.6-17.1-1.8-7.21-4.36-14.48-8-20.94-8.38-14.9-11.81-31.34-16.22-47.5-.4-1.48.17-3.23.33-5.32,10.15.82,16.31,6.8,20.65,14.23,15.14,25.93,26.47,53.48,30.55,83.39,1.32,9.65,0,19.75-.8,29.58-.76,9.36-6.58,15.86-14.73,19.61-4.74,2.18-5.82,5.16-5.54,9.62.6,9.56,1.68,19.12,1.57,28.67-.16,13.45-2.74,26.58-8.37,38.92-5.18,11.37-16.3,15.59-27.15,9.47-6.18-3.48-11.6-8.44-16.96-13.18-2.74-2.43-4.6-5.86-6.85-8.84-1.07.63-2.14,1.26-3.21,1.88Z"></path>
  <path class="cls-18" d="M593.56,1466.29c.41-3.83-.03-8.02,1.4-11.42,3.29-7.87,7.42-15.39,11.33-23,14.4-28.02,38.45-46.69,62.6-65.5,17.27-13.46,33.58-28.16,50.09-42.58,4.04-3.53,7.18-8.09,9.8-13.61-7.95,2.56-15.92,5.06-23.84,7.7-22.25,7.42-45.36,10.23-68.46,13.35-10.48,1.41-21.13,2.97-31.12,6.23-13.29,4.34-24.78,11.83-30.17,25.9-.23.6-.8,1.1-1.3,1.55-.21.19-.64.14-2.19.41.7-4.93.89-9.64,2.09-14.07,5.4-19.95,13.02-38.92,25.25-55.81,8.84-12.21,21.84-15.9,35.71-17.68,13.59-1.74,27.24-3.04,40.85-4.67,2.63-.31,5.18-1.26,8.53-2.11-7.18-19.78-15.76-37.89-29.67-53-5.76-6.25-8.51-6.42-12.7.6-3.91,6.56-9.01,6.19-14.96,5.59-6.56-.66-9.74-5.2-11.06-10.65-1.44-5.93-1.89-12.18-2.13-18.31-.18-4.41.37-8.92,1.14-13.29,1.74-9.9,8.14-14.06,17.94-11.38,10.13,2.77,18.69,8.42,25.98,15.96,10.12,10.45,17.82,22.55,24.19,35.56,1.61,3.29,3.29,6.55,5.14,10.22,4.4-2.83,3.48-6.58,3.59-9.67.91-27.31-2.85-53.97-11.05-80.06-4.41-14.04-8.5-28.2-12.35-42.4-5.37-19.79-5.64-39.78-3.06-60.13,2.54-20.05,22.1-25.11,37.29-15.55,17.28,10.88,29.43,42.01,24.18,61.89-.33,1.23-1.11,2.34-2.49,5.13-2.17-2.8-3.76-4.61-5.07-6.6-4.53-6.84-8.58-14.03-13.59-20.49-2.61-3.37-6.48-6.33-10.41-7.99-9.92-4.2-18.71,1.41-17.99,12.12.66,9.8,3.04,19.58,5.54,29.15,4.75,18.22,10.9,36.1,15.05,54.44,6.68,29.52,9.48,59.55,7.78,89.85-.46,8.12-1.93,16.18-3.02,24.93,1.73.13,3.43.68,4.89.3,14.54-3.71,29.66-5.69,42.28-15.02,4.77-3.53,9.02-1.93,9.44,3.91.54,7.42.61,15.25-1.18,22.39-8.11,32.47-23.97,60.93-45.62,86.45-16.78,19.79-37.37,35.19-56.86,51.9-13.52,11.59-26.69,23.59-40.1,35.32-6.09,5.33-11.52,11.57-18.96,15.17-.91-.34-1.82-.68-2.73-1.02Z"></path>
  <path class="cls-32" d="M1065.16,1738.93c5.44-17.72,10.54-33.99,22.55-48.19,7.67,3.2,15.24,6.14,22.62,9.49,8.72,3.96,17.39,8.05,25.87,12.48,7.94,4.15,9.56,7.76,5.74,15.83-5.11,10.79-10.93,21.29-17.1,31.52-3.78,6.27-6.16,6.44-12.78,3.17-10.42-5.16-20.78-10.45-31.21-15.59-2.07-1.02-4.35-1.6-5.85-2.13-5.09,11.73-9.89,22.89-14.8,34-1.1,2.49-2.42,4.92-3.94,7.19-5.49,8.22-8.01,8.68-16.87,4.24-10.39-5.21-20.95-10.06-31.36-15.22-2.73-1.36-5.71-2.84-7.61-5.08-1.75-2.07-3.46-5.47-3.03-7.9,2.91-16.08,12.08-29.32,19.39-44.2,16.56,6.98,31.91,13.45,48.37,20.38Z"></path>
  <path class="cls-28" d="M1188.05,1768.54c2.58-1.95,5.07-4.04,7.76-5.82,43.35-28.79,82.07-62.95,117.91-100.58,29.81-31.3,46.77-69.03,55.84-110.57,3.93-18.03,5.7-36.53,8.51-54.81,1.32-8.54,3.1-16.94,9.94-23.11.99-.9,2.16-1.6,3.74-2.76,5.25,4.25,10.42,8.43,17.07,13.82,1.85-5.09,4.33-8.73,4.23-12.31-.22-7.77-1.63-15.53-2.79-23.25-1.11-7.41-2.66-14.77-3.7-22.19-.25-1.77.72-3.71,1.7-8.14,4.32,6.25,7.39,10.69,10.79,15.6,7.45-4.84,7.4-11.29,5.78-18.26-2-8.6-4.12-17.19-2.32-27.3,1.61,1.33,3.04,1.9,3.31,2.82,5.36,18.07,10.69,36.15,10.52,55.3-.06,6.89-1.88,13.13-7.1,17.53-3.79,3.19-3.95,6.58-3.59,10.89.57,6.81.74,13.67.65,20.5-.04,3.02-.83,6.14-1.81,9.03-3.61,10.71-9.52,12.59-18.55,6.05-2.46-1.78-4.83-3.68-7.27-5.54-6.25,2.6-6.4,8.14-7.38,12.95-2.93,14.43-5.43,28.96-8.4,43.38-5.02,24.39-14.2,47.45-26.64,68.75-7.31,12.52-17.65,23.63-28.06,33.93-40.14,39.69-84.38,74.24-133.13,102.84-1.9,1.11-4.05,1.8-6.08,2.69-.31-.49-.62-.97-.92-1.46Z"></path>
  <path class="cls-23" d="M833.65,910.15c-1.67,6.97-2.52,12.73-4.44,18.1-3.46,9.66-7.43,19.15-11.41,28.62-3.43,8.16-4.7,8.94-13.16,7.26-9.06-1.8-18.08-3.84-26.99-6.28-3.54-.97-6.73-3.24-10.06-4.97-4.52-2.35-6.51-6.35-5.59-11.11,2.43-12.63,5.29-25.18,8.25-39.06,18.58,2.92,35.98,5.65,54.74,8.59,3-18.06,5.89-35.41,8.81-52.96,15.71-2.24,30.65-.3,45.53,1.41,1.97.22,3.82,3.23,5.27,5.28.67.94.48,2.7.26,4.02-2.52,15.13-5.12,30.25-7.83,46.08-15.54.35-29.53-2.57-43.38-4.98Z"></path>
  <path class="cls-29" d="M985.67,769.46c3.96.8,5.69.85,7.16,1.49,40.67,17.74,75.7,42.56,100.78,79.99,16.98,25.33,23.63,53.74,25.08,83.63,1.24,25.46-1.6,50.66-6.05,75.69-.33,1.87-1.33,3.62-3.96,5.17.35-5.51.61-11.03,1.08-16.53,1.93-22.96,2.73-45.95-1.96-68.63-7.37-35.64-26.63-64.04-53.99-87.6-17.76-15.3-36.77-28.7-57.5-39.44-7.67-3.97-10.03-9.76-10.57-17.2-.36-4.99-.07-10.03-.07-16.57Z"></path>
  <path class="cls-6" d="M1020.96,1063.21c6.9,16.09,8.54,31.1,4.41,46.85-5.64,21.48-16.06,40.62-27.78,59.24-15.13,24.03-30.58,47.9-44.61,72.57-5.45,9.59-7.36,21.18-10.9,31.85-1.35,4.07-2.73,8.12-4.59,13.62-2.39-2.86-4.49-4.21-4.67-5.78-.92-8.09-1.36-16.23-1.95-24.35-.02-.33.14-.67.15-1.01.58-28.6,12.77-52.64,28.66-75.58,13.44-19.41,26.1-39.39,38.34-59.58,9.98-16.45,17.66-34.03,20.46-53.36.17-1.14,1.17-2.16,2.48-4.47Z"></path>
  <path class="cls-30" d="M1165.65,1031.46c5.45-8.76,7.63-15.23,3.72-23.74-3.36-7.31-4.34-15.75-6.09-23.75-.37-1.69.46-3.65.73-5.49.71-.21,1.43-.41,2.14-.62,2.79,5.23,5.94,10.31,8.28,15.73,2.43,5.64,3.93,11.68,6.11,17.44,6.44,17.04,5.36,33.46-4.26,49.79h-10.11c-.56,3.78-1.29,7.4-1.61,11.06-.87,9.83-4.57,18.55-10.17,26.53-4.81,6.86-9.59,8.66-16.58,4.42-5.7-3.45-11.7-7.8-15.19-13.26-9.98-15.64-9.2-33.58-9.87-51.05.79-.34,1.58-.69,2.36-1.03,1.27,1.56,3.19,2.93,3.69,4.7,1.1,3.92,1.28,8.09,2.25,12.06.72,2.96,1.64,6.06,3.27,8.58,3.44,5.31,8.29,10.1,14.69,9.93,5.69-.15,7.28-6.52,9.71-10.94,3.99-7.26,4.53-14.93,2.59-22.91-1.52-6.26-2.07-12.57-.45-21.49,5.68,5.4,9.75,9.26,14.78,14.03Z"></path>
  <path class="cls-7" d="M1204.94,1658.11c3.02-7.7,4.84-14.84,8.48-20.88,3.42-5.67,7.51-10.71,8.84-17.53.31-1.61,4.17-3.86,6.09-3.59,5.36.74,10.72,2.22,15.79,4.17,7.65,2.96,15.05,6.55,22.55,9.9,7.73,3.45,9.92,6.57,6.92,14.44-4.61,12.1-10.31,23.81-15.94,35.51-2.22,4.62-6.26,6.09-11.2,3.52-12.13-6.31-24.37-12.42-36.35-19.01-2.25-1.24-3.48-4.31-5.18-6.53Z"></path>
  <path class="cls-2" d="M760.96,870.79c2.07-8.19,5.38-21.45,8.8-34.68,1-3.87,3.54-5.6,7.67-4.94,10.47,1.66,21.03,2.86,31.42,4.93,9.67,1.93,13.41,6.38,11.76,15.93-2.03,11.74-5.23,23.36-9,34.68-2.42,7.27-5.9,8.28-13.81,7.05-8.79-1.37-17.59-2.72-26.37-4.14-10.21-1.64-11.16-2.87-10.47-18.82Z"></path>
  <path class="cls-24" d="M848.58,798.48c-11.11,1.6-18.86-5.17-27.67-10.54-3.01,2.51-5.79,4.96-8.72,7.22-5.15,3.99-8.06,3.5-11.84-1.84-7.01-9.91-5.28-23.52,4.06-32.02,13.4,2.73,21.28,16.84,37.25,18.47-2.52-7.42-4.56-13.45-6.62-19.47-3.89-11.35-7.7-22.71-6.84-34.98.38-5.38-.28-11.44,6.42-13.68,4.65-1.55,15.03,3.29,17.64,8.33,2.83,5.46,4.45,11.28,2.08,18.09-4.12-2.57-7.57-5.27-11.45-7.01-5.1-2.29-8.3-.19-7.83,5.27.4,4.7,1.72,9.39,3.19,13.91,3.16,9.75,6.87,19.33,9.98,29.1,1.96,6.17,3.01,12.55.35,19.14Z"></path>
  <path class="cls-1" d="M1013.35,1246.08c-.26-3.64-.71-7.27-.74-10.91-.07-10.92-.67-21.91.29-32.76.73-8.32,4.54-10.36,12.83-8.91,5,.87,9.9,2.3,15.26,3.57.4,1.45,1.05,3.04,1.25,4.69,1.28,10.98-1.96,13.95-12.68,11.71-1.34-.28-2.62-.89-3.96-1.06-5-.64-6.8.74-6.87,6.19-.06,4.77.76,9.54.99,14.32.41,8.54,1.11,17.09.88,25.61-.26,9.46-2.67,10.73-11.54,7.3-1.9-.74-3.75-1.64-6.12-2.68-2.42,1.6-4.86,3.39-7.47,4.89-6.16,3.52-10,2.68-11.94-3.93-1.79-6.1-2.16-12.69-2.52-19.11-.29-5.17,3.26-7.52,8.01-6.95,3.58.43,7.17,1.72,10.5,3.2,3.95,1.76,7.62,4.13,11.41,6.23.8-.47,1.61-.93,2.41-1.4Z"></path>
  <path class="cls-36" d="M661.72,1585.09c.67,2.11,1.89,4.15,1.88,6.19-.05,7.51-.5,15.03-.81,22.54-.25,6.16-.79,12.32-.69,18.47.05,2.98.77,6.18,2.08,8.85,1.86,3.8,5.33,7.55,9.56,6.02,2.74-.99,5.09-5.21,6.07-8.45,1.29-4.27,1.06-9.01,1.5-13.76,1.91.57,2.97.63,3.06.95,4.04,14.74,4.72,29.7,1.01,44.49-2.83,11.29-10.03,13.35-18.82,5.77-3.27-2.83-5.99-6.64-7.99-10.5-2.01-3.89-3.41-8.31-4.04-12.65-2.92-20.15-2.35-40.25,1.87-60.2.48-2.28,1.64-4.44,2.65-6.58.21-.44,1.16-.53,2.66-1.14Z"></path>
  <path class="cls-27" d="M1229.87,1216.4q-5.35,5.37-13.14,6.8c-4.68-7.93-4.57-16.6-2.33-25.27,1.19-4.61,5.06-6.28,9.78-4.7,3.19,1.07,6.09,3.03,9.12,4.58,4.91,2.51,9.89,4.52,16.29,2.3.63-15.86-5.11-31.79.45-47.95,5.82-1.85,12.57-2.4,17.18,1.58,4.58,3.95,2.97,10.48,1.74,16.68h-15.01c.79,8.43,1.75,16.1,2.15,23.79.32,6.08.14,12.21-.16,18.31-.27,5.51-3.78,8.06-8.98,7.38-5.66-.74-11.21-2.26-17.1-3.49Z"></path>
  <path class="cls-40" d="M725.17,1429.31c-.68,5.73-1.29,10.91-1.96,16.64-5.88-.93-10.51-1.66-16.46-2.59-1.05,7.02-2.12,13.59-2.98,20.19-.49,3.73-.3,7.56-.97,11.24-1.64,8.86-5.39,10.38-12.66,5.28-3.02-2.12-5.83-4.55-8.9-6.97-2.69,1.75-4.83,3.43-7.21,4.65-6.01,3.07-8.62,1.85-10.18-4.96-1.66-7.25-1.22-14.31,3.5-20.48,2.79-3.66,6.17-5.39,10.53-2.13,2.99,2.24,6.15,4.25,9.13,6.5,2.62,1.98,5.09,4.16,8.55,7.02,4.12-8.43,4.26-16.29,4.96-23.9,1.61-17.52,2.49-18.23,19.05-12.51,1.28.44,2.54.92,5.62,2.03Z"></path>
  <path class="cls-31" d="M1298.69,1305.06c-.38-6.99-.81-11.71-.85-16.44-.06-5.47-.27-11,.45-16.39,1.3-9.67,5.04-11.43,14.12-7.29,2.14.98,4.17,2.19,6.01,3.17.39,1.49.78,2.46.88,3.46,1.27,13.11-.57,14.74-13.86,11.2-1.94,14.66,6.31,30.45-4.22,45.21-6.74-5.27-12.74-9.96-18.89-14.77-2.98,4.13-5.28,7.32-7.93,11-2.26-1.85-4.23-2.81-5.19-4.38-3.34-5.48-1.98-18.56,2.14-23.47,4.42-5.28,7.52-5.9,13.25-2.05,4.19,2.82,8.07,6.12,14.1,10.75Z"></path>
  <path class="cls-26" d="M1235.27,1369.74c1.18,4.08,2.48,6.22,2.27,8.21-1.28,11.89-2.66,23.78-4.51,35.59-1.37,8.77-7.27,14.37-14.82,18.75-4.92-1.44-7.46-5.15-8.85-9.36-2.04-6.14-4.18-12.42-4.87-18.8-2.24-20.84-1.39-41.7,1.46-62.46.15-1.08,1.1-2.06,2.49-2.96,1.95,21.34-2.55,43.57,9.87,63.42,15.42-5.69,10.6-20.79,16.96-32.39Z"></path>
  <path class="cls-34" d="M967.46,642.22c6.62,14.38,5.43,16.78-10.08,21.06.68,12.89,5.99,25.26,7.26,40.26-7.26-2.9-12.52-4.99-18.49-7.37-1.66,1.51-3.54,3.37-5.57,5.03-5.1,4.19-8.44,3.73-11.19-2.35-2.81-6.22-5.02-12.82-2.17-19.79,2.32-5.68,4.69-6.87,10.31-4.47,4.95,2.11,9.68,4.77,16.31,8.09-.81-5.48-1.33-9.35-1.96-13.21-.5-3.04-1.14-6.05-1.73-9.08-3.32-17.13-.88-17.63,12.83-17.39,1.32.02,2.65-.45,4.47-.78Z"></path>
  <path class="cls-20" d="M1179.91,1752.16c.64-5.67,1.37-11.33,1.91-17.01,1.82-19.29-1.11-37.61-12.45-53.75-3.69-5.24-8.21-10.15-13.18-14.18-9.46-7.66-10.17-9-5.48-22,2.04,1.12,4.18,1.93,5.87,3.3,15.05,12.22,23.05,28.49,26.71,47.17,3.05,15.57,3.18,31.26,1.47,46.97-.36,3.28-1.44,6.48-2.19,9.72-.89-.08-1.77-.15-2.66-.23Z"></path>
  <path class="cls-38" d="M785.15,1055.46c4.27-7.13,7.12-11.89,9.66-16.15,3.57,10.53,1.5,21.17-6.02,28.59-4.42,4.36-7.19,4.75-10.97-.22-2.99-3.93-5.26-8.84-6.4-13.66-2.8-11.84-2.51-23.81,1.21-35.5,1.97-6.18,4.13-12.32,6.52-18.35,2-5.04,4.45-9.91,6.7-14.85.66.23,1.31.47,1.97.7-1.38,3.91-2.83,7.79-4.11,11.72-2.96,9.09-6.77,18.05-8.41,27.39-1.06,6.05.56,12.8,2.08,18.97.81,3.27,3.95,5.97,7.76,11.36Z"></path>
  <path class="cls-21" d="M726.42,969.98c7.28-4.18,5.71-11.92,8.87-17.53,5.86,14.68,3.07,28.79-7.24,36.14-5.33-1.99-6.99-6.82-8.56-11.73-4.52-14.14-3.01-28.47-1.06-42.75.68-4.95,2.12-9.8,4.91-14.59,0,4.7.29,9.43-.07,14.1-.58,7.5-1.79,14.95-2.34,22.46-.38,5.1-.24,10.31,5.48,13.9Z"></path>
  <path class="cls-5" d="M1284.84,1078.3c2.86-3.92,5.5-7.53,7.95-10.89,2.43,5.1,2.85,6.49.22,14.11-1.63,4.72-4.11,9.32-7.08,13.33-2.06,2.79-5.5,1.28-6.8-1.34-1.78-3.59-3.21-7.59-3.67-11.54-1.3-11.08.56-21.87,4.37-32.33,1.98-5.43,3.96-10.85,7.88-15.87-.84,3.61-1.6,7.24-2.53,10.82-1.64,6.3-3.66,12.52-4.99,18.88-1.04,4.95-1.71,10.2,4.64,14.84Z"></path>
  <path class="cls-12" d="M918.56,589.83c.84,2.1,1.37,3,1.56,3.96.9,4.65,2.84,10.88-2.04,12.94-4.48,1.89-10.54.4-15.82-.29-1.25-.16-2.86-3.03-3.04-4.78-.44-4.25-.14-8.57-.14-14.22,7.61.93,13.8,1.69,19.49,2.39Z"></path>
  <path class="cls-9" d="M892.01,1711.9c.35,2.87.7,4.52.73,6.18.2,11.25-2.2,13.09-13.37,10.35-8.12-1.99-10.07-5.13-7.83-13.1.62-2.21,1.82-4.27,2.96-6.88,5.79,1.14,11.32,2.23,17.51,3.45Z"></path>
  <path class="cls-3" d="M1005.78,1419.83c-4.06-.9-7-2.04-9.97-2.11-8.24-.21-10.35-5.37-9.26-12.46.35-2.31,1.09-4.56,1.71-7.05,5.63-1.91,12.35-2.14,15.2,2,3.46,5.02,6.18,11.99,2.31,19.63Z"></path>
  <path class="cls-25" d="M1308.63,1561.75c16.66,2.2,20.05,8.5,12.17,22.45-2.34-.61-4.88-1.23-7.4-1.95-10.84-3.1-12.31-6.49-7.31-16.84.57-1.19,1.51-2.2,2.53-3.66Z"></path>
  <path class="cls-15" d="M1376.37,1162.01c-1.63.12-2.67.42-3.61.24-15.71-2.93-17.03-5.43-10.9-20.54,18.19.4,19.37,6.75,14.52,20.3Z"></path>
  <path class="cls-39" d="M1084.05,1317.01c5.13.26,10.29.52,15.62.79.73,7.27,3.21,13.16-.57,19.21-5.43-.67-10.7-1.33-16.14-2-2.58-5.94-1.54-11.36,1.1-18Z"></path>
  <path class="cls-35" d="M1005.88,1033.31c-4.15-1.2-7.03-2.03-9.91-2.86-7.62-2.21-8.75-3.89-7.55-11.66.36-2.29,1.05-4.53,1.83-7.81,5.2.95,10.07,1.83,15.63,2.85v19.49Z"></path>
  <path class="cls-22" d="M852.98,1483.99v16.44h-15.91v-16.44h15.91Z"></path>
  <path class="cls-17" d="M566.92,1395.05c14.96.35,16.89,3.29,11.65,17.77-15.63,2.16-17.96-6.13-11.65-17.77Z"></path>
  <path class="cls-14" d="M1347.92,1105.4c-1.37,24.79-4.26,49.18-13.46,72.43-1.87,4.73-4.54,9.17-7,13.66-2.47,4.5-5.82,8.64-7.57,13.39-4.91,13.32-13.78,23.76-24.06,32.86-16.39,14.54-33.58,28.17-50.12,42.55-10.08,8.77-19.54,18.24-29.32,27.35-3.62,3.37-6.95,7.4-15.21,7.91,4.91-6.42,8.32-11.33,12.17-15.86,26.94-31.69,51-65.43,72.39-101.08,12.83-21.38,21.46-44.42,27.07-68.59,3.33-14.35,5.97-28.87,8.87-43.33,2.06-10.24,1.59-20.32-.88-30.55-5.79-23.84-14.7-46.5-26.62-67.77-14.4-25.71-29.54-51.04-45.22-76-27.55-43.83-56.42-86.84-83.57-130.92-53.09-86.19-100.7-175.39-143.74-267.04-13.36-28.45-25.65-57.27-36.1-86.82-10.69-23.08-31.88-77.09-23.33-146.43,2.59-21.03,8.1-39.97,14.6-56.44,9.55-24.19,21.26-43.06,29.06-55.37-5.39,29.56-13.21,68.61-10.47,112.57,3.73,60.07,18.64,109.12,32.49,143.67.24.59.47,1.16.71,1.74,15.04,36.58,32.22,72.27,50.43,107.49,27.4,52.97,55,105.91,84.74,157.57,27.01,46.9,57.24,91.94,85.68,138.04,20.69,33.54,41.42,67.09,60.94,101.32,16.24,28.45,27.84,59,31.76,91.76,3.24,27.17,7.26,54.31,5.75,81.89Z"></path>
  <path class="cls-33" d="M923.39,382.24c-.68,2.74-1.36,5.64-2.03,8.7.22-1.95.42-3.9.63-5.84.08-.79.68-1.53,1.4-2.86Z"></path>
  <path class="cls-10" d="M929.39,547.41c-5.69-13.1-9.69-26.85-11.51-41.22,3.15,16.26,7.43,30.13,11.51,41.22Z"></path>
  <path class="cls-19" d="M925.64,389.93c.04-1.32.08-2.6.13-3.85.17,1.3.04,2.58-.13,3.85Z"></path>
  <path class="cls-11" d="M1239.66,1068.2c-1.42,11.56-2.46,23.19-4.36,34.67-5.6,33.67-20.13,63.05-43.01,88.42-7.1,7.88-13.59,16.32-20.28,24.57-7.23,8.92-10.6,18.86-9.13,30.57,4.44,35.35-1.62,69.68-10.98,103.59-1.27,4.58-3.15,9.13-5.5,13.25-6.64,11.6-13.23,23.26-20.65,34.37-13.21,19.78-29.05,37.32-47.81,52.01-12.94,10.13-25.65,20.81-39.66,29.26-2.34,1.41-4.7,2.76-7.1,4.05-20.98,12.05-45.17,24.41-72.49,35.9-7.34,3.1-14.9,6.12-22.69,9.06-4.39,1.66-8.76,3.25-13.09,4.78-36.76,13.01-71.19,21.5-101.8,27.07-.32.06-.64.12-.96.17-11.33,2.05-22.12,3.68-32.32,5.01,10.43-2.36,21.65-5.21,33.5-8.67.07-.02.13-.04.2-.06,26.33-7.72,55.79-18.51,86.73-33.78.01.01.01,0,.02,0,2.1-1.04,4.21-2.09,6.32-3.18-.17-3.31-.1-6.44-1.09-9.19-9.31-25.78-18.92-51.46-28.48-77.15-.45-1.2-1.33-2.24-2.3-3.84-17.54,7.67-33.15,19-52.06,22.96,6.84-7.35,15.86-11.37,23.94-16.72,7.95-5.26,15.95-10.47,24.61-16.17-6.24-12.93-12.61-25-17.92-37.52-5.48-12.89-11.15-25.93-14.4-39.46-2.34-9.72-2.16-20.56-.69-30.53,1.84-12.45,6.08-24.56,9.51-36.75.7-2.48,2.43-4.68,3.96-7.54,7.36,2.03,10.22,7.18,12.29,13.11,11.18,32.01,22.33,64.04,33.59,96.02,2.03,5.76,4.55,11.34,6.9,17.15,1.58-.44,2.71-.46,3.44-1,39.71-29.52,77.3-61.31,110.71-98.03,26.4-29.03,39.71-63.62,46.82-101.29,1.78-9.41,3.48-18.87,4.55-28.39,4.71-41.73-6.96-80.77-19.92-119.63-11.62-34.81-30.39-66-49.66-96.77-25.29-40.37-52.28-79.69-77.97-119.83-27.82-43.47-51.26-89.04-65.56-139.02-9.33-32.62-10.32-65.57-6.52-98.86,1.94-17.01,5.01-33.89,7.77-50.81.5-3.07,2.01-5.98,3.04-8.96.92.16,1.82.34,2.74.5-.37,6.98-.73,13.94-1.09,20.91-.64,12.31-1.88,24.62-1.79,36.92.2,26.88,9.01,51.88,18.24,76.64,14.68,39.36,34.73,76.04,57.26,111.37,29.32,45.95,59.37,91.44,88.27,137.64,13.8,22.06,26.62,44.82,35.93,69.3.61,1.61,1.21,3.26,2.16,4.66,13.22,19.37,17.86,42.07,24.91,63.86,6.89,21.29,11.16,43.12,13.84,65.24,4.57,37.63,3.41,75.23-3.66,112.46-1.75,9.2-6.32,18.06-10.63,26.55-12.62,24.88-27.25,48.39-49.82,65.79-10.32,7.95-20.31,16.4-31.13,23.59-28.84,19.16-58.04,37.75-87.1,56.57-2.85,1.85-5.66,3.79-9.58,6.41,10.78,28.79,21.51,57.46,32.6,87.05,3.32-1.67,6.05-2.79,8.53-4.31,18.71-11.48,36.59-24.04,53.81-37.43.02-.01.03-.03.05-.04,19.79-15.38,38.7-31.89,56.97-49.17,17.58-16.63,30.17-37.15,43.29-57.3,19-29.18,29.44-61.02,31.51-95.57.75-12.59-.27-25.31-.48-37.97-.12-7.19-.26-14.39-.37-21.59-.16-10.83,3.96-19.85,10.9-28.07,10.39-12.31,20.36-24.97,30.47-37.52,16.67-20.68,24.31-44.39,27.46-70.76,2.38-19.8-1.85-37.15-9.12-54.78-10.35-25.12-22.89-49.03-37.07-72.18-18.61-30.4-36.2-61.46-55.3-91.54-29.79-46.88-60.92-92.9-90.69-139.8-27.37-43.11-54.16-86.61-80.26-130.52-3.96-6.67-7.51-13.53-10.57-20.58-4.08-11.09-8.37-24.96-11.51-41.22-1.96-10.07-3.48-21.07-4.26-32.88-1.89-28.6,2.76-59.68,7.75-82.36.67-3.07,1.35-5.97,2.03-8.7h0c1.12-4.58,2.22-8.64,3.22-12.08-.28,4.34-.61,9.74-.84,15.91v.02c-.05,1.25-.09,2.53-.13,3.85h0c-.11.85-.26,1.7-.32,2.5-1.98,25.45.26,50.39,8.03,74.25.01.02.01.05.03.08,1.67,5.14,3.6,10.24,5.8,15.27,7.79,17.82,16.58,35.35,26.5,52.09.87,1.49,1.77,2.97,2.68,4.46,23.22,38.04,47.54,75.4,71.68,112.86,27.3,42.36,55.43,84.2,82.2,126.88,21.66,34.54,41.58,70.18,62.77,105.02,18.97,31.19,35.55,63.52,45.83,98.56,8.23,28.03,12.44,56.87,8.82,86.31Z"></path>
  <path class="cls-8" d="M933.34,466.68c-7.77-23.86-10-48.8-8.03-74.25.06-.8.21-1.65.32-2.49-.63,21.5.11,50.75,7.71,76.74Z"></path>
</svg>