<?xml version="1.0"?>
<svg id="Layer_1" data-name="Layer 1" xmlns="http://www.w3.org/2000/svg" viewBox="0 0 2000 2000">
  <path d="M810.07,1550.96s0,.18.18.18c.18-.18.53-.18.88-.35-.35.18-.7.18-1.05.18ZM1422.61,1201.28c-1.93-5.45-4.22-10.89-7.38-15.64-2.46-3.69-6.33-7.03-10.19-9.31-3.16-1.93-6.5-.53-6.85,3.87-.18,2.28,0,4.39.53,6.5,2.81,11.6,6.33,23.02,8.43,34.62,1.41,7.03,1.76,14.41.88,21.26-.88,5.97-4.04,12.3-11.25,13-7.2.53-9.31-5.62-11.77-10.89-2.64-5.45-5.45-11.07-8.96-15.99-1.23-1.93-5.1-3.69-7.2-3.16-1.93.35-4.39,4.04-4.39,6.15-.53,12.65-1.05,25.3-.35,37.78.7,10.37,3.34,20.56,4.74,30.93,2.64,19.68-1.05,38.13-11.77,55-5.27,8.26-11.95,13.53-22.14,12.65-9.49-.88-14.41-6.85-17.75-15.29-1.93-4.57-4.04-9.31-7.03-13.35-3.16-4.22-7.38-4.39-11.07-.7-2.11,1.93-3.87,4.39-4.74,7.03-5.45,17.22-10.02,34.44-9.66,53.07.53,16.17-.35,32.33-2.11,48.5-.88,8.08-3.51,16.34-7.38,23.55-10.37,18.98-28.11,21.96-43.93,7.38-13.53-12.65-24.95-27.06-30.58-45.16-5.27-17.04-13.35-32.68-22.49-47.97-1.76-2.81-4.39-4.92-8.26-9.14-1.93,5.62-3.34,8.79-4.04,12.12-1.93,10.72-3.34,21.44-5.45,32.16-1.41,7.73.18,14.76,3.51,21.96,5.45,11.25,10.72,22.84,15.11,34.62,2.11,5.62,4.04,12.3,2.99,17.92-4.22,20.91-13.53,39.54-30.22,53.59-8.26,7.03-16.34,5.1-20.91-4.74-2.64-5.45-3.87-11.6-5.62-17.4-2.11-6.68-3.16-13.53-6.15-19.68-6.5-13.35-13.53-14.23-21.61-1.76-6.5,9.84-10.89,21.09-16.17,31.8-4.22,8.61-7.56,17.92-12.48,26.18-8.79,14.41-19.33,26.88-35.32,34.09-12.65,5.8-24.25,4.04-33.91-5.27-5.97-5.8-11.6-12.3-15.29-19.5-8.08-15.64-15.11-31.98-22.14-48.15-2.28-5.1-4.22-10.37-6.33-16.17-7.73,3.34-15.64,6.5-23.9,9.49-4.57,1.76-9.14,3.51-13.71,5.1,16.87,39.36,30.92,78.19,37.43,119.49,1.58,10.19,3.69,21.44,1.05,31.1-11.77,44.63-35.32,80.48-80.48,98.05-5.8,2.28-12.48,3.69-18.8,3.87-14.58.18-28.82-1.58-42.52-5.1-1.76-.35-3.87-.88-5.97-1.58-2.99-.88-5.97-1.76-9.14-2.81-2.28-.88-4.74-1.76-7.2-2.81-1.05-.35-2.11-.88-3.16-1.4-2.46-.88-4.92-1.93-7.38-3.16-2.81-1.4-5.27-3.34-8.08-5.62-1.05-.7-2.11-1.58-3.16-2.28-7.56-5.62-13.53-11.42-18.1-16.69-2.81-2.81-4.92-5.45-6.68-7.91-14.41-18.63-20.56-40.41-22.14-63.96-.7-10.72-1.41-21.61,2.28-32.16,11.07-31.98,23.9-63.26,41.12-92.6.88-1.23,1.93-2.46,1.93-3.87.18-1.58,0-4.39-.88-4.74-1.58-.88-4.39-.88-5.8,0-2.28,1.58-4.04,4.22-5.45,6.5-5.8,9.14-11.07,18.63-17.22,27.59-17.04,24.42-27.24,51.48-34.44,80.13-15.29,62.38.35,115.62,47.79,159.02,7.56,6.85,14.94,11.25,20.21,14.23,22.49,13.18,44.28,18.1,60.8,19.86,7.73.7,15.46.7,23.02-.18,1.76-.18,3.51-.53,5.27-.7,11.07-1.23,21.96-4.39,31.98-9.31h.18c8.26-4.04,19.5-10.89,30.93-21.61,10.19-9.84,15.99-18.63,21.26-26.53,13.53-20.21,23.19-42.52,28.99-66.77,3.69-14.94,4.39-30.57,6.15-46.04.7-6.5.7-13.18,3.51-20.03,5.97,4.22,10.72,8.08,15.99,11.07,21.79,11.77,45.51,4.39,62.38-14.41,12.65-13.88,22.49-29.87,29.52-47.62,2.64-6.68,5.62-13.18,8.79-19.68,1.41-3.16,3.16-6.33,7.73-7.38,2.28,6.68,4.22,12.65,6.5,18.8,3.16,8.08,7.38,15.46,14.41,21.09,10.89,8.43,18.98,8.96,29.17-.35,7.03-6.5,13.35-14.23,18.63-22.14,11.42-17.04,17.57-36.2,22.32-56.05,1.05-4.39,2.46-8.61,4.22-14.23,12.3,12.83,25.48,21.44,40.06,27.94,18.1,8.08,44.63-.7,53.59-18.45,5.62-11.25,10.54-23.02,11.07-35.85.88-17.04,1.41-33.91,2.28-50.78.35-9.66.35-19.5,6.15-29.34,3.51,3.34,6.68,6.15,9.84,8.79,12.83,11.07,39.89,13.18,51.84-7.2,12.12-20.73,17.22-42.52,15.99-66.07-.53-8.26-2.28-16.52-3.34-24.78-.35-3.69,0-7.38,0-12.48,2.99,1.4,4.74,1.93,6.15,2.81,14.94,9.66,28.11,2.64,33.03-12.65,3.16-10.19,4.22-21.26,4.22-31.98-.18-21.44-6.5-42-13.53-62.03Z"></path>
  <path d="M896.17,1631.43c-9.14-6.15-9.49-6.68-5.1-17.75,3.51-9.14,5.1-18.8,4.04-28.64-2.64-24.6-28.29-36.72-49.55-23.72-12.83,8.08-18.98,20.38-23.72,33.74-6.85,19.33-2.99,30.57,14.06,41.47,6.85,4.39,13.71,8.61,21.61,13.53-2.81,4.04-4.57,7.73-7.2,10.37-9.14,9.84-17.75,20.21-27.94,28.64-20.56,17.04-41.82,33.03-63.08,49.73-1.17-.67-2.32-1.22-3.34-2.17,4.11,4.37,8.89,8.92,14.94,13.42,2.46-1.41,3.34-2.11,4.22-2.64,35.67-22.49,68.18-48.5,92.78-83.29,4.92-6.85,5.97-6.68,13.53-3.16,6.68,3.34,13.18,6.68,20.91,10.54,1.76-5.8,3.34-10.19,4.22-14.58q3.34-16.34-10.37-25.48ZM870.17,1615.79c-8.43-5.1-15.81-9.66-23.02-14.06,4.57-6.85,8.79-8.44,15.46-6.33,7.2,2.28,9.14,7.03,7.56,20.38Z"></path>
  <path d="M752.79,1733.35c.91,1.05,2.14,2.19,3.16,3.28-.05-.05-.12-.06-.18-.11-1.05-1.05-2.11-2.11-2.99-3.16Z"></path>
  <path d="M870.22,1044.16c0,4.52-.61,9.13.1,13.53,3.49,21.72,8.21,43.28,10.74,65.11,1.73,14.93.97,30.21.51,45.31-.15,4.81-2.24,9.91-4.61,14.24-7.4,13.49-22.04,15.89-33.29,5.08-6.45-6.2-11.69-13.7-17.2-20.82-4.63-5.99-8.77-12.37-13.32-18.42-2.54-3.37-5.48-6.44-8.2-9.6-6.8,1.84-8.88,6.66-9.51,11.57-1.77,13.91-4.51,27.97-3.89,41.84,1.12,24.82,4.35,49.56,6.82,74.31,4.81,48.19,7.58,96.46,3.82,144.83-2.42,31.16-10.08,60.87-24.4,89.1-7.05,13.89-15.5,26.25-27.01,35.99-11.2,9.47-24.33,16.91-38.72,20.61-10.74,2.76-21.97,4.49-33.05,4.93-29.44,1.16-57.28-6.15-83.44-19.23-16.15-8.07-27.54-21.85-38.45-35.86-.55-.7-.31-2.02-.47-3.32,4.3-3.15,7.38.07,10.72,1.73,25.8,12.87,52.94,19.17,81.72,14.79,31.39-4.77,58.99-17.39,77.89-43.98,12.57-17.68,21.89-37.32,28.42-58.1,10.36-32.97,14.23-66.99,15.37-101.35,1.35-40.86-1.61-81.49-6.99-122-3.48-26.18-4.94-52.54-.71-78.75,1.35-8.37,4.37-16.75,8.1-24.4,4.8-9.83,15.44-11.51,23.41-3.93,5.44,5.17,9.88,11.44,14.43,17.48,5.63,7.49,10.73,15.4,16.42,22.84,2.6,3.39,5.76,6.56,9.24,9.03,5.61,3.98,11.51,2.87,14.7-3.15,2.28-4.32,3.61-9.42,4.21-14.32,2.09-17.1-1.54-33.7-4.71-50.4-3.76-19.81-6.81-39.78-9.65-59.75-1.11-7.84-.98-15.88,2.89-23.29,3.63-6.95,7.82-8.22,13.63-2.95,5.58,5.07,10.11,11.3,15.54,16.56,4.35,4.22,8.99,8.4,14.18,11.44,6.43,3.77,10.87,2.54,14.66-3.79,2.53-4.22,4.17-9.17,5.27-14.01,4.81-21.18,1.5-41.47-6.81-61.34-3.6-8.6-5.86-17.77-8.64-26.72-.64-2.05-1.3-4.25-1.19-6.34.1-1.92.73-4.67,2.06-5.43,1.45-.83,4.59-.54,5.9.56,3.25,2.74,6.12,6.03,8.68,9.44,2.81,3.74,4.78,8.12,7.7,11.74,3.43,4.27,5.87,4.08,9.91.23,5.27-5.02,6.43-11.62,4.84-18-1.9-7.59-4.59-15.25-8.42-22.05-8.82-15.69-12.44-32.99-17.08-50.01-.43-1.56.18-3.4.35-5.6,10.69.86,17.17,7.16,21.74,14.98,15.94,27.3,27.86,56.3,32.17,87.79,1.39,10.16,0,20.79-.84,31.14-.8,9.85-6.93,16.7-15.5,20.64-4.99,2.29-6.13,5.43-5.84,10.13.63,10.06,1.77,20.13,1.65,30.19-.17,14.16-2.88,27.98-8.81,40.98-5.46,11.97-17.16,16.41-28.58,9.97-6.5-3.67-12.21-8.88-17.85-13.88-2.89-2.56-4.84-6.17-7.21-9.31-1.13.66-2.25,1.32-3.38,1.98Z"></path>
  <path d="M571.6,1452.38c.43-4.03-.03-8.44,1.47-12.02,3.47-8.28,7.81-16.2,11.93-24.21,15.16-29.5,40.48-49.15,65.9-68.96,18.19-14.17,35.35-29.65,52.74-44.82,4.26-3.71,7.56-8.52,10.31-14.33-8.37,2.7-16.76,5.32-25.1,8.11-23.42,7.82-47.76,10.77-72.07,14.05-11.03,1.49-22.24,3.12-32.76,6.56-13.99,4.57-26.09,12.45-31.76,27.26-.24.63-.84,1.16-1.37,1.63-.22.2-.68.15-2.3.43.74-5.19.93-10.15,2.2-14.82,5.68-21,13.71-40.97,26.58-58.76,9.3-12.85,22.99-16.74,37.59-18.61,14.31-1.83,28.68-3.2,43.01-4.92,2.77-.33,5.45-1.33,8.98-2.22-7.56-20.82-16.59-39.89-31.23-55.79-6.06-6.58-8.96-6.76-13.37.64-4.12,6.91-9.49,6.51-15.75,5.88-6.91-.69-10.25-5.47-11.64-11.21-1.51-6.25-1.99-12.82-2.25-19.28-.19-4.64.39-9.39,1.2-13.99,1.83-10.42,8.57-14.8,18.89-11.98,10.67,2.92,19.67,8.87,27.35,16.8,10.65,11,18.76,23.74,25.46,37.43,1.7,3.47,3.47,6.9,5.41,10.75,4.64-2.98,3.67-6.93,3.78-10.18.96-28.75-3-56.82-11.63-84.29-4.65-14.78-8.95-29.68-13.01-44.64-5.65-20.83-5.94-41.87-3.23-63.3,2.67-21.11,23.27-26.43,39.25-16.37,18.19,11.46,30.98,44.22,25.45,65.16-.34,1.3-1.17,2.46-2.62,5.4-2.28-2.95-3.95-4.85-5.34-6.94-4.77-7.2-9.04-14.77-14.31-21.57-2.75-3.55-6.82-6.66-10.96-8.41-10.44-4.42-19.7,1.48-18.94,12.76.69,10.32,3.21,20.61,5.83,30.68,5,19.18,11.47,38,15.84,57.31,7.03,31.08,9.98,62.69,8.19,94.59-.48,8.55-2.03,17.03-3.18,26.24,1.82.14,3.61.71,5.15.32,15.31-3.91,31.22-5.99,44.51-15.81,5.03-3.71,9.49-2.03,9.94,4.12.57,7.81.64,16.05-1.24,23.57-8.54,34.18-25.23,64.14-48.02,91.01-17.67,20.83-39.34,37.05-59.86,54.63-14.24,12.2-28.1,24.83-42.21,37.18-6.42,5.61-12.13,12.18-19.96,15.97-.96-.36-1.91-.71-2.87-1.07Z"></path>
  <path d="M1068.07,1739.39c5.72-18.65,11.09-35.79,23.74-50.73,8.07,3.37,16.04,6.46,23.81,9.99,9.18,4.16,18.3,8.48,27.23,13.14,8.36,4.37,10.07,8.17,6.05,16.67-5.38,11.36-11.51,22.41-18.01,33.19-3.98,6.61-6.49,6.78-13.45,3.34-10.97-5.43-21.87-11-32.85-16.41-2.17-1.07-4.58-1.68-6.16-2.25-5.36,12.34-10.41,24.09-15.58,35.79-1.16,2.62-2.55,5.18-4.15,7.57-5.78,8.65-8.44,9.13-17.76,4.46-10.93-5.48-22.05-10.59-33.01-16.03-2.88-1.43-6.01-2.99-8.01-5.35-1.84-2.18-3.65-5.76-3.18-8.31,3.06-16.92,12.72-30.87,20.41-46.53,17.43,7.35,33.59,14.16,50.92,21.46Z"></path>
  <path d="M1197.45,1770.56c2.72-2.05,5.34-4.25,8.17-6.13,45.64-30.31,86.4-66.27,124.13-105.89,31.38-32.95,49.24-72.67,58.78-116.4,4.14-18.98,6-38.46,8.96-57.7,1.38-8.99,3.26-17.83,10.46-24.33,1.04-.94,2.27-1.69,3.94-2.91,5.53,4.48,10.96,8.88,17.97,14.55,1.94-5.35,4.56-9.19,4.45-12.95-.23-8.18-1.72-16.35-2.94-24.48-1.17-7.81-2.8-15.54-3.9-23.36-.26-1.86.76-3.91,1.79-8.57,4.55,6.58,7.78,11.25,11.36,16.43,7.84-5.1,7.8-11.89,6.09-19.22-2.11-9.05-4.33-18.09-2.44-28.74,1.7,1.4,3.2,2.01,3.48,2.97,5.65,19.03,11.25,38.05,11.07,58.22-.07,7.25-1.98,13.83-7.47,18.46-3.99,3.36-4.15,6.92-3.78,11.47.6,7.17.78,14.39.69,21.58-.04,3.18-.88,6.46-1.9,9.51-3.8,11.28-10.03,13.25-19.53,6.37-2.59-1.87-5.08-3.87-7.65-5.83-6.58,2.73-6.74,8.56-7.77,13.63-3.09,15.19-5.72,30.48-8.85,45.67-5.29,25.68-14.95,49.95-28.05,72.38-7.7,13.18-18.58,24.88-29.54,35.72-42.26,41.78-88.82,78.15-140.16,108.27-2,1.17-4.26,1.9-6.4,2.83-.32-.51-.65-1.02-.97-1.53Z"></path>
  <path d="M824.36,866.9c-1.76,7.34-2.66,13.4-4.68,19.05-3.64,10.17-7.83,20.16-12.01,30.13-3.61,8.59-4.94,9.41-13.86,7.64-9.54-1.89-19.04-4.05-28.41-6.61-3.73-1.02-7.09-3.41-10.59-5.23-4.76-2.48-6.85-6.68-5.89-11.7,2.56-13.3,5.57-26.51,8.68-41.12,19.56,3.07,37.88,5.95,57.62,9.05,3.16-19.01,6.2-37.27,9.27-55.75,16.53-2.36,32.26-.31,47.94,1.48,2.07.24,4.02,3.41,5.55,5.56.7.99.5,2.84.27,4.23-2.65,15.93-5.39,31.85-8.24,48.51-16.36.37-31.09-2.71-45.66-5.24Z"></path>
  <path d="M984.4,718.79c4.17.84,5.99.89,7.54,1.57,42.81,18.67,79.69,44.8,106.1,84.2,17.87,26.67,24.87,56.57,26.4,88.04,1.3,26.8-1.68,53.33-6.37,79.68-.35,1.97-1.4,3.81-4.17,5.44.37-5.8.65-11.61,1.13-17.4,2.03-24.17,2.88-48.37-2.06-72.25-7.76-37.52-28.04-67.42-56.83-92.22-18.7-16.1-38.71-30.22-60.54-41.52-8.08-4.18-10.56-10.27-11.12-18.11-.38-5.26-.07-10.56-.07-17.45Z"></path>
  <path d="M1021.54,1028.04c7.26,16.94,8.99,32.74,4.64,49.32-5.94,22.61-16.9,42.76-29.24,62.36-15.93,25.3-32.2,50.42-46.96,76.4-5.73,10.09-7.75,22.3-11.47,33.53-1.42,4.28-2.88,8.55-4.83,14.34-2.52-3.01-4.73-4.43-4.92-6.09-.97-8.51-1.43-17.08-2.05-25.64-.03-.35.15-.71.16-1.07.61-30.11,13.44-55.41,30.17-79.56,14.15-20.43,27.47-41.47,40.36-62.72,10.5-17.32,18.59-35.82,21.54-56.18.17-1.2,1.23-2.28,2.61-4.71Z"></path>
  <path d="M1173.86,994.62c5.74-9.22,8.03-16.04,3.91-24.99-3.54-7.7-4.57-16.58-6.41-25-.39-1.78.48-3.85.77-5.78.75-.22,1.5-.44,2.25-.65,2.94,5.51,6.26,10.85,8.72,16.56,2.56,5.94,4.14,12.29,6.44,18.36,6.78,17.94,5.64,35.22-4.48,52.41h-10.64c-.59,3.98-1.36,7.8-1.7,11.64-.91,10.35-4.81,19.53-10.7,27.93-5.06,7.22-10.1,9.11-17.46,4.66-6-3.64-12.32-8.21-15.99-13.96-10.5-16.47-9.68-35.35-10.39-53.74.83-.36,1.66-.72,2.49-1.08,1.34,1.64,3.36,3.08,3.88,4.95,1.16,4.12,1.35,8.52,2.37,12.69.76,3.12,1.72,6.38,3.44,9.03,3.62,5.59,8.73,10.63,15.46,10.46,5.99-.16,7.66-6.86,10.22-11.52,4.2-7.65,4.77-15.71,2.73-24.11-1.6-6.59-2.18-13.23-.47-22.63,5.98,5.68,10.26,9.74,15.56,14.77Z"></path>
  <path d="M1215.23,1654.31c3.18-8.1,5.09-15.62,8.92-21.98,3.6-5.97,7.91-11.27,9.31-18.45.33-1.7,4.39-4.06,6.41-3.78,5.64.78,11.29,2.33,16.62,4.39,8.05,3.11,15.85,6.89,23.74,10.42,8.14,3.64,10.45,6.92,7.29,15.2-4.86,12.74-10.86,25.07-16.78,37.38-2.34,4.86-6.59,6.41-11.79,3.71-12.77-6.64-25.66-13.08-38.27-20.01-2.36-1.3-3.66-4.54-5.45-6.87Z"></path>
  <path d="M747.83,825.47c2.18-8.62,5.66-22.58,9.26-36.51,1.05-4.07,3.73-5.9,8.08-5.21,11.02,1.75,22.14,3.01,33.08,5.19,10.18,2.03,14.12,6.71,12.38,16.77-2.14,12.36-5.5,24.59-9.47,36.5-2.55,7.65-6.21,8.72-14.54,7.42-9.26-1.44-18.51-2.87-27.76-4.36-10.75-1.73-11.74-3.02-11.03-19.81Z"></path>
  <path d="M840.07,749.34c-11.7,1.68-19.86-5.44-29.13-11.1-3.17,2.64-6.1,5.22-9.18,7.6-5.42,4.2-8.49,3.68-12.46-1.93-7.38-10.43-5.56-24.76,4.28-33.71,14.11,2.88,22.4,17.73,39.21,19.44-2.66-7.81-4.8-14.16-6.97-20.49-4.1-11.95-8.1-23.91-7.2-36.83.4-5.66-.29-12.04,6.76-14.4,4.89-1.63,15.82,3.47,18.57,8.77,2.98,5.74,4.68,11.87,2.19,19.05-4.34-2.71-7.97-5.55-12.06-7.38-5.37-2.41-8.74-.2-8.25,5.55.42,4.95,1.81,9.89,3.36,14.64,3.33,10.27,7.24,20.35,10.51,30.63,2.07,6.49,3.17,13.21.37,20.15Z"></path>
  <path d="M1013.53,1220.56c-.27-3.83-.75-7.65-.77-11.48-.07-11.5-.7-23.07.3-34.48.77-8.76,4.78-10.91,13.51-9.38,5.26.92,10.42,2.42,16.07,3.76.42,1.52,1.11,3.2,1.31,4.93,1.34,11.56-2.07,14.68-13.35,12.32-1.41-.29-2.76-.94-4.17-1.12-5.26-.68-7.16.78-7.23,6.52-.06,5.02.8,10.04,1.04,15.07.43,8.99,1.17,17.99.93,26.97-.27,9.96-2.81,11.3-12.14,7.68-2.01-.78-3.94-1.72-6.44-2.82-2.55,1.68-5.11,3.57-7.86,5.14-6.48,3.71-10.53,2.82-12.57-4.14-1.88-6.42-2.27-13.36-2.65-20.12-.31-5.45,3.43-7.92,8.44-7.32,3.77.46,7.55,1.81,11.05,3.37,4.16,1.85,8.02,4.35,12.01,6.56.85-.49,1.69-.98,2.54-1.47Z"></path>
  <path d="M643.35,1577.45c.71,2.22,1.99,4.37,1.98,6.52-.05,7.91-.52,15.82-.85,23.73-.27,6.48-.83,12.97-.72,19.44.05,3.14.81,6.51,2.19,9.31,1.96,4,5.61,7.95,10.07,6.34,2.89-1.04,5.36-5.49,6.39-8.9,1.36-4.5,1.11-9.48,1.58-14.48,2.01.6,3.13.66,3.22,1,4.26,15.52,4.97,31.26,1.06,46.83-2.98,11.89-10.56,14.06-19.81,6.07-3.45-2.97-6.31-6.99-8.41-11.05-2.12-4.09-3.59-8.75-4.25-13.31-3.08-21.21-2.48-42.38,1.97-63.37.51-2.4,1.73-4.68,2.79-6.93.22-.46,1.22-.56,2.8-1.2Z"></path>
  <path d="M1241.47,1189.31q-5.63,5.66-13.84,7.15c-4.93-8.35-4.81-17.47-2.45-26.6,1.26-4.86,5.33-6.62,10.29-4.95,3.36,1.13,6.41,3.19,9.6,4.83,5.16,2.64,10.41,4.76,17.15,2.42.66-16.69-5.38-33.47.48-50.48,6.13-1.94,13.23-2.53,18.09,1.67,4.82,4.16,3.13,11.03,1.83,17.56h-15.8c.83,8.88,1.84,16.95,2.26,25.05.34,6.41.15,12.86-.17,19.27-.29,5.8-3.98,8.48-9.45,7.76-5.96-.78-11.81-2.37-18-3.68Z"></path>
  <path d="M710.15,1413.44c-.71,6.03-1.36,11.49-2.07,17.52-6.19-.98-11.06-1.74-17.33-2.73-1.1,7.39-2.24,14.3-3.14,21.25-.51,3.92-.31,7.96-1.03,11.83-1.72,9.33-5.67,10.93-13.32,5.55-3.18-2.24-6.14-4.79-9.37-7.34-2.83,1.85-5.08,3.61-7.59,4.89-6.33,3.23-9.08,1.95-10.72-5.22-1.75-7.63-1.28-15.07,3.68-21.56,2.94-3.85,6.5-5.68,11.09-2.24,3.15,2.36,6.48,4.47,9.61,6.85,2.76,2.09,5.36,4.38,9,7.39,4.34-8.87,4.49-17.15,5.22-25.16,1.7-18.45,2.62-19.2,20.06-13.17,1.34.46,2.67.96,5.91,2.14Z"></path>
  <path d="M1313.92,1282.64c-.4-7.36-.85-12.33-.9-17.31-.06-5.76-.28-11.58.48-17.26,1.37-10.18,5.3-12.03,14.87-7.67,2.25,1.03,4.39,2.31,6.32,3.33.41,1.57.82,2.59.92,3.64,1.33,13.8-.6,15.52-14.59,11.79-2.04,15.43,6.64,32.05-4.44,47.6-7.1-5.55-13.41-10.49-19.88-15.55-3.14,4.35-5.55,7.7-8.35,11.58-2.38-1.95-4.46-2.96-5.47-4.61-3.52-5.77-2.08-19.54,2.25-24.71,4.65-5.55,7.91-6.22,13.95-2.16,4.41,2.97,8.49,6.44,14.85,11.32Z"></path>
  <path d="M1247.15,1350.74c1.24,4.29,2.61,6.55,2.38,8.64-1.35,12.51-2.8,25.03-4.74,37.46-1.45,9.23-7.65,15.13-15.6,19.74-5.18-1.52-7.85-5.42-9.32-9.85-2.14-6.46-4.41-13.08-5.13-19.79-2.35-21.94-1.46-43.9,1.54-65.75.16-1.14,1.16-2.16,2.62-3.12,2.05,22.46-2.69,45.86,10.39,66.77,16.23-5.99,11.16-21.89,17.86-34.1Z"></path>
  <path d="M965.22,584.85c6.97,15.14,5.72,17.67-10.61,22.17.72,13.57,6.31,26.59,7.64,42.38-7.65-3.05-13.18-5.25-19.46-7.76-1.75,1.59-3.72,3.54-5.86,5.3-5.36,4.41-8.89,3.93-11.78-2.47-2.96-6.55-5.29-13.5-2.29-20.84,2.45-5.98,4.94-7.23,10.85-4.71,5.22,2.23,10.19,5.02,17.17,8.52-.85-5.77-1.4-9.85-2.07-13.91-.53-3.2-1.2-6.37-1.82-9.56-3.49-18.03-.93-18.56,13.51-18.31,1.39.02,2.79-.47,4.71-.83Z"></path>
  <path d="M1188.88,1753.32c.68-5.97,1.45-11.93,2.01-17.9,1.92-20.31-1.17-39.6-13.11-56.59-3.88-5.52-8.64-10.68-13.88-14.92-9.96-8.06-10.71-9.47-5.77-23.16,2.15,1.18,4.41,2.03,6.18,3.47,15.84,12.86,24.26,29.99,28.12,49.66,3.21,16.39,3.35,32.91,1.55,49.45-.38,3.46-1.52,6.83-2.3,10.24-.93-.08-1.86-.16-2.8-.24Z"></path>
  <path d="M773.3,1019.88c4.49-7.5,7.49-12.52,10.17-17,3.76,11.08,1.58,22.28-6.34,30.1-4.65,4.59-7.57,5-11.55-.23-3.15-4.14-5.54-9.31-6.74-14.38-2.95-12.46-2.65-25.06,1.28-37.37,2.08-6.51,4.35-12.97,6.87-19.32,2.1-5.31,4.68-10.43,7.05-15.64.69.25,1.38.49,2.07.74-1.45,4.11-2.98,8.2-4.33,12.34-3.11,9.57-7.13,19-8.85,28.83-1.11,6.37.59,13.48,2.18,19.97.85,3.45,4.16,6.29,8.17,11.96Z"></path>
  <path d="M711.47,929.89c7.66-4.41,6.01-12.55,9.34-18.45,6.17,15.46,3.23,30.31-7.62,38.05-5.61-2.09-7.36-7.18-9.01-12.35-4.76-14.89-3.17-29.97-1.12-45,.71-5.22,2.23-10.32,5.17-15.35,0,4.95.31,9.92-.07,14.84-.61,7.9-1.88,15.74-2.46,23.64-.4,5.37-.25,10.86,5.77,14.63Z"></path>
  <path d="M1299.34,1043.92c3.01-4.13,5.79-7.93,8.37-11.46,2.56,5.36,3,6.84.24,14.85-1.71,4.97-4.32,9.81-7.45,14.04-2.17,2.94-5.79,1.35-7.15-1.42-1.87-3.78-3.38-7.99-3.87-12.15-1.37-11.67.58-23.02,4.6-34.03,2.08-5.71,4.17-11.43,8.3-16.71-.88,3.8-1.68,7.62-2.66,11.39-1.73,6.63-3.86,13.18-5.26,19.87-1.09,5.21-1.8,10.74,4.88,15.62Z"></path>
  <path d="M913.75,529.69c.89,2.21,1.44,3.15,1.64,4.17.95,4.9,2.99,11.46-2.15,13.62-4.72,1.99-11.1.42-16.65-.3-1.32-.17-3.01-3.19-3.2-5.03-.47-4.47-.15-9.02-.15-14.97,8.01.98,14.53,1.78,20.51,2.52Z"></path>
  <path d="M885.8,1710.94c.37,3.02.74,4.76.77,6.5.21,11.84-2.32,13.78-14.08,10.9-8.55-2.1-10.6-5.4-8.24-13.79.66-2.33,1.91-4.49,3.12-7.25,6.1,1.2,11.91,2.35,18.43,3.63Z"></path>
  <path d="M1005.56,1403.47c-4.27-.95-7.37-2.14-10.49-2.22-8.67-.22-10.89-5.65-9.75-13.11.37-2.43,1.15-4.8,1.8-7.43,5.93-2.01,13.01-2.25,16.01,2.1,3.65,5.29,6.5,12.62,2.43,20.66Z"></path>
  <path d="M1324.38,1552.87c17.54,2.31,21.11,8.95,12.82,23.63-2.46-.65-5.14-1.29-7.79-2.05-11.41-3.27-12.96-6.83-7.69-17.73.6-1.25,1.59-2.32,2.67-3.85Z"></path>
  <path d="M1395.7,1132.04c-1.72.13-2.81.44-3.81.26-16.54-3.09-17.93-5.72-11.48-21.63,19.15.42,20.39,7.1,15.28,21.37Z"></path>
  <path d="M1087.95,1295.23c5.4.27,10.84.55,16.44.83.77,7.65,3.38,13.85-.6,20.22-5.71-.71-11.27-1.4-17-2.11-2.71-6.25-1.62-11.96,1.15-18.95Z"></path>
  <path d="M1005.67,996.57c-4.37-1.26-7.4-2.13-10.43-3.01-8.02-2.32-9.22-4.09-7.94-12.28.38-2.41,1.1-4.77,1.92-8.22,5.47,1,10.6,1.93,16.45,3v20.51Z"></path>
  <path d="M844.7,1471.01v17.31h-16.75v-17.31h16.75Z"></path>
  <path d="M543.56,1377.37c15.75.36,17.78,3.46,12.26,18.7-16.46,2.28-18.91-6.45-12.26-18.7Z"></path>
  <path d="M1365.75,1072.45c-1.44,26.09-4.48,51.78-14.17,76.24-1.97,4.98-4.78,9.65-7.37,14.38-2.6,4.73-6.13,9.1-7.97,14.09-5.17,14.03-14.5,25.01-25.32,34.6-17.25,15.31-35.35,29.66-52.76,44.79-10.62,9.23-20.57,19.2-30.87,28.79-3.81,3.55-7.31,7.79-16.01,8.33,5.17-6.76,8.76-11.93,12.81-16.69,28.36-33.36,53.69-68.88,76.21-106.41,13.51-22.51,22.6-46.76,28.5-72.2,3.51-15.11,6.28-30.39,9.34-45.61,2.17-10.78,1.68-21.39-.93-32.16-6.1-25.1-15.48-48.95-28.02-71.35-15.16-27.07-31.1-53.74-47.61-80-29.01-46.14-59.39-91.42-87.98-137.82-55.89-90.74-106.01-184.64-151.32-281.13-14.06-29.95-27-60.29-38.01-91.4-11.25-24.3-33.56-81.15-24.56-154.16,2.73-22.14,8.52-42.08,15.37-59.41,10.05-25.47,22.38-45.33,30.59-58.29-5.68,31.12-13.91,72.23-11.03,118.51,3.93,63.24,19.63,114.87,34.21,151.24.25.62.5,1.22.75,1.83,15.84,38.51,33.91,76.08,53.09,113.16,28.84,55.76,57.9,111.49,89.21,165.88,28.43,49.37,60.26,96.79,90.2,145.32,21.78,35.31,43.61,70.62,64.16,106.66,17.09,29.95,29.31,62.11,33.44,96.6,3.41,28.61,7.65,57.17,6.06,86.21Z"></path>
  <path d="M918.83,311.15c-.71,2.88-1.43,5.94-2.13,9.16.23-2.06.44-4.11.66-6.15.09-.83.71-1.61,1.47-3.01Z"></path>
  <path d="M925.15,485.04c-5.99-13.79-10.2-28.27-12.12-43.39,3.31,17.11,7.82,31.72,12.12,43.39Z"></path>
  <path d="M921.19,319.26c.04-1.39.09-2.74.14-4.05.18,1.36.04,2.72-.14,4.05Z"></path>
  <path d="M1251.78,1033.29c-1.49,12.17-2.59,24.41-4.59,36.5-5.89,35.44-21.19,66.38-45.28,93.09-7.47,8.3-14.31,17.18-21.35,25.87-7.61,9.39-11.16,19.85-9.61,32.18,4.68,37.22-1.7,73.35-11.56,109.05-1.33,4.82-3.31,9.61-5.8,13.95-6.99,12.21-13.93,24.49-21.74,36.18-13.91,20.82-30.58,39.29-50.34,54.75-13.63,10.67-27,21.91-41.76,30.81-2.46,1.48-4.95,2.9-7.47,4.27-22.09,12.68-47.55,25.69-76.31,37.79-7.72,3.26-15.68,6.44-23.88,9.54-4.63,1.74-9.22,3.42-13.78,5.04-38.7,13.69-74.94,22.64-107.17,28.5-.34.07-.67.13-1.01.18-11.93,2.16-23.29,3.88-34.02,5.28,10.98-2.48,22.79-5.48,35.27-9.13.08-.02.14-.04.21-.07,27.72-8.12,58.73-19.49,91.3-35.56.01.01.01,0,.02,0,2.21-1.09,4.43-2.2,6.65-3.35-.18-3.49-.11-6.78-1.15-9.67-9.8-27.14-19.92-54.17-29.98-81.22-.48-1.27-1.4-2.36-2.43-4.04-18.47,8.07-34.9,20.01-54.81,24.17,7.2-7.73,16.69-11.97,25.21-17.6,8.37-5.54,16.79-11.03,25.91-17.03-6.56-13.62-13.28-26.32-18.87-39.5-5.77-13.57-11.74-27.3-15.16-41.54-2.46-10.24-2.27-21.64-.73-32.14,1.94-13.11,6.4-25.86,10.01-38.69.74-2.61,2.56-4.93,4.17-7.94,7.74,2.13,10.76,7.56,12.93,13.8,11.77,33.7,23.5,67.42,35.37,101.08,2.13,6.07,4.79,11.94,7.27,18.06,1.67-.47,2.85-.49,3.62-1.05,41.8-31.08,81.38-64.55,116.55-103.2,27.79-30.56,41.8-66.97,49.28-106.63,1.87-9.91,3.66-19.87,4.79-29.88,4.96-43.93-7.32-85.03-20.97-125.94-12.23-36.64-32-69.49-52.27-101.87-26.62-42.5-55.04-83.89-82.08-126.15-29.29-45.76-53.96-93.74-69.02-146.35-9.82-34.34-10.86-69.03-6.87-104.07,2.05-17.9,5.27-35.68,8.18-53.49.53-3.23,2.11-6.29,3.2-9.43.96.17,1.92.36,2.88.53-.39,7.34-.77,14.68-1.15,22.01-.67,12.95-1.98,25.92-1.88,38.86.21,28.29,9.49,54.61,19.2,80.69,15.46,41.43,36.56,80.05,60.28,117.24,30.87,48.37,62.5,96.26,92.93,144.9,14.53,23.22,28.02,47.18,37.82,72.95.64,1.69,1.28,3.43,2.27,4.91,13.92,20.4,18.8,44.29,26.22,67.23,7.26,22.41,11.75,45.4,14.57,68.68,4.81,39.61,3.59,79.2-3.86,118.39-1.84,9.68-6.65,19.01-11.19,27.95-13.29,26.19-28.68,50.94-52.45,69.26-10.86,8.37-21.38,17.27-32.78,24.84-30.36,20.17-61.1,39.74-91.69,59.55-3,1.95-5.96,3.99-10.08,6.75,11.35,30.31,22.65,60.5,34.32,91.64,3.5-1.75,6.37-2.94,8.98-4.54,19.69-12.09,38.52-25.3,56.65-39.41.02-.01.03-.03.05-.04,20.83-16.19,40.74-33.57,59.98-51.76,18.51-17.5,31.76-39.11,45.57-60.32,20.01-30.72,30.99-64.24,33.17-100.61.79-13.26-.28-26.65-.51-39.97-.13-7.57-.27-15.15-.39-22.72-.17-11.41,4.17-20.89,11.47-29.55,10.94-12.95,21.44-26.29,32.07-39.5,17.55-21.77,25.6-46.73,28.91-74.49,2.5-20.84-1.95-39.11-9.6-57.67-10.9-26.44-24.1-51.61-39.03-75.98-19.59-32.01-38.11-64.7-58.22-96.37-31.36-49.35-64.13-97.8-95.47-147.17-28.81-45.38-57.02-91.18-84.49-137.4-4.17-7.02-7.91-14.24-11.12-21.66-4.3-11.68-8.81-26.28-12.12-43.39-2.06-10.6-3.66-22.18-4.48-34.62-1.99-30.11,2.9-62.82,8.16-86.71.7-3.23,1.42-6.28,2.13-9.16h0c1.18-4.82,2.34-9.1,3.39-12.72-.29,4.57-.64,10.26-.89,16.75v.02c-.05,1.31-.1,2.66-.14,4.05h0c-.12.9-.27,1.79-.34,2.63-2.08,26.79.27,53.04,8.45,78.16.01.02.01.05.03.09,1.75,5.42,3.79,10.78,6.11,16.07,8.2,18.76,17.45,37.22,27.9,54.84.92,1.57,1.86,3.13,2.82,4.69,24.45,40.04,50.04,79.37,75.46,118.81,28.74,44.59,58.35,88.64,86.53,133.57,22.8,36.36,43.77,73.88,66.08,110.56,19.97,32.83,37.42,66.88,48.24,103.76,8.67,29.51,13.1,59.87,9.28,90.86Z"></path>
  <path d="M929.31,400.05c-8.18-25.12-10.53-51.37-8.45-78.16.06-.84.22-1.73.34-2.62-.66,22.64.12,53.42,8.11,80.78Z"></path>
</svg>