<?xml version="1.0"?>
<svg id="Layer_1" xmlns="http://www.w3.org/2000/svg" version="1.1" viewBox="0 0 2000 2000">
  
  <g>
    <g>
      <path d="M750.08,1566.5c0,3.15,1.05,5.8,3.17,7.97,2.16,2.23,4.82,3.33,7.96,3.33s5.64-1.11,7.8-3.33c2.12-2.22,3.18-4.88,3.18-7.97s-1.06-5.88-3.18-8.05c-2.11-2.22-4.72-3.33-7.8-3.33s-5.8,1.11-7.96,3.33c-2.12,2.23-3.17,4.91-3.17,8.05Z"></path>
      <path d="M733.57,1577.8c3.09,0,5.68-1.11,7.8-3.33,2.11-2.22,3.17-4.88,3.17-7.97s-1.06-5.88-3.17-8.05c-2.12-2.22-4.72-3.33-7.8-3.33s-5.64,1.11-7.8,3.33c-2.12,2.23-3.18,4.91-3.18,8.05s1.06,5.8,3.18,7.97c2.11,2.23,4.72,3.33,7.8,3.33Z"></path>
      <path d="M779.02,1586.75c3.26,14.42,4.88,29.3,4.88,44.64,0,7.1-.4,13.77-1.22,20h-4.31c-7.8,0-13.01-1-15.61-3.01-2.72-2.06-4.07-6.34-4.07-12.85v-41.79h-21.13v37.64c0,14.2-4.45,21.3-13.34,21.3-4.72,0-7.86-1.7-9.43-5.12-1.35-2.87-2.03-8.32-2.03-16.34v-30.81h-21.96v30.33c0,7.96-1.17,13.44-3.5,16.42-2.16,2.82-6.02,4.23-11.54,4.23h-205.3c-.97-18.11-6.15-32.44-15.53-43.01-8.89-9.98-22.14-17.29-39.75-21.96l-5.29,18.38c25.2,6.39,38.29,21.92,39.27,46.59h-49.44v17.32h275.88c11.38,0,18.78-3.88,22.19-11.63,2.88,8.62,10.24,12.93,22.12,12.93,12.79,0,21.16-4.25,25.12-12.76,2.39,4.45,5.94,7.51,10.65,9.18,4.39,1.52,11.12,2.28,20.17,2.28h27.48c1.68-11.82,2.52-24.75,2.52-38.78,0-15.83-1.79-31.2-5.37-46.11l-21.47,2.93Z"></path>
      <path d="M747.23,1554.14c2.93,0,5.37-1.03,7.31-3.09,2-2,3.01-4.47,3.01-7.39s-1.01-5.39-3.01-7.4c-1.95-2.06-4.39-3.09-7.31-3.09s-5.23,1.03-7.23,3.09c-1.96,2.01-2.93,4.47-2.93,7.4s.97,5.39,2.93,7.39c2,2.06,4.41,3.09,7.23,3.09Z"></path>
      <rect x="831.48" y="1551.3" width="21.96" height="117.41"></rect>
      <path d="M944.41,1651.39h-34.4v-60.99h-21.96v80.17c0,8.57-1.59,14.69-4.8,18.38-2.81,3.25-7.23,4.88-13.25,4.88-4.39,0-8.89-.65-13.49-1.95l-1.63,17.48c4.44,1.09,9.1,1.63,13.98,1.63,27.43,0,41.14-13.88,41.14-41.63v-.65h56.34v-117.41h-21.94v100.09Z"></path>
      <rect x="994.66" y="1551.3" width="21.96" height="117.41"></rect>
      <path d="M1355.1,1682.37c-3.03,0-5.63,1.11-7.8,3.33-2.12,2.22-3.17,4.88-3.17,7.97s1.05,5.88,3.17,8.05c2.12,2.17,4.72,3.25,7.8,3.25s5.64-1.11,7.8-3.34c2.12-2.22,3.17-4.88,3.17-7.96s-1.05-5.83-3.17-8.05c-2.11-2.17-4.72-3.25-7.8-3.25Z"></path>
      <path d="M1327.46,1682.37c-3.03,0-5.64,1.11-7.8,3.33-2.12,2.22-3.18,4.88-3.18,7.97s1.06,5.88,3.18,8.05c2.11,2.17,4.72,3.25,7.8,3.25s5.79-1.11,7.96-3.34c2.12-2.17,3.17-4.82,3.17-7.96s-1.05-5.83-3.17-8.05c-2.17-2.17-4.82-3.25-7.96-3.25Z"></path>
      <path d="M1400.64,1682.2c-3.14,0-5.86,1.11-8.14,3.33-2.23,2.28-3.33,4.99-3.33,8.14s1.1,5.99,3.33,8.21c2.28,2.23,5,3.33,8.14,3.33s5.91-1.13,8.12-3.41c2.28-2.23,3.42-4.94,3.42-8.13s-1.14-5.91-3.42-8.14c-2.21-2.22-4.93-3.33-8.12-3.33Z"></path>
      <path d="M1570.82,1583.82l-21.47,2.93c3.26,14.42,4.88,29.3,4.88,44.64,0,7.1-.4,13.77-1.22,20h-4.31c-7.8,0-13.01-1-15.61-3.01-2.72-2.06-4.07-6.34-4.07-12.85v-41.79h-21.13v37.64c0,14.2-4.45,21.3-13.34,21.3-4.72,0-7.86-1.7-9.43-5.12-1.35-2.87-2.03-8.32-2.03-16.34v-30.81h-21.96v30.33c0,7.96-1.17,13.44-3.5,16.42-2.16,2.82-6.02,4.23-11.54,4.23h-22.12v-60.99h-21.96v60.99h-43.42v-60.99h-21.96v60.99h-177.98v-100.09h-21.96v106.43c0,21.41-6.94,32.12-20.82,32.12-15.22,0-22.84-10.71-22.84-32.12,0-10.24,1.58-20.9,4.72-31.95l-22.68,4.15c-2.66,9.65-3.99,19.57-3.99,29.76,0,31.55,14.31,47.32,42.93,47.32,25.64,0,40.25-12.76,43.83-38.29h288.08c11.38,0,18.78-3.88,22.19-11.63,2.88,8.62,10.24,12.93,22.12,12.93,12.79,0,21.16-4.25,25.12-12.76,2.39,4.45,5.94,7.51,10.65,9.18,4.39,1.52,11.12,2.28,20.17,2.28h27.48c1.68-11.82,2.52-24.75,2.52-38.78,0-15.83-1.79-31.2-5.37-46.11Z"></path>
    </g>
    <g>
      <path d="M405.62,1735.35c1.18,0,2.19-.42,3-1.26.79-.84,1.19-1.84,1.19-3s-.4-2.22-1.19-3.03c-.82-.84-1.82-1.26-3-1.26s-2.12.42-2.94,1.26c-.8.84-1.2,1.85-1.2,3.03s.4,2.19,1.2,3c.79.84,1.77,1.26,2.94,1.26Z"></path>
      <path d="M416.03,1735.35c1.16,0,2.14-.42,2.94-1.26.79-.84,1.19-1.84,1.19-3s-.4-2.22-1.19-3.03c-.8-.84-1.78-1.26-2.94-1.26s-2.12.42-2.94,1.26c-.8.84-1.2,1.85-1.2,3.03s.4,2.19,1.2,3c.79.84,1.77,1.26,2.94,1.26Z"></path>
      <path d="M449.68,1730.33h-3.59c-2.88,0-4.32-.8-4.32-2.39,0-1.43,1-2.14,3-2.14,1.07,0,2.12.11,3.16.34l.73-4.72c-1.45-.21-2.68-.31-3.7-.31-3.07,0-5.41.74-7.02,2.21-1.37,1.24-2.05,2.85-2.05,4.81,0,1.24.39,2.06,1.17,2.45-.78-.16-1.95-.25-3.49-.25v4.72h16.11v-4.72Z"></path>
      <path d="M463.59,1782.08c.86-.84,1.29-1.86,1.29-3.07s-.44-2.23-1.29-3.07c-.84-.84-1.86-1.26-3.07-1.26s-2.2.42-3.07,1.26c-.83.86-1.25,1.88-1.25,3.07s.42,2.26,1.25,3.09c.86.84,1.88,1.26,3.07,1.26s2.23-.43,3.07-1.28Z"></path>
      <path d="M520.52,1735.35c1.18,0,2.19-.42,3-1.26.79-.84,1.19-1.84,1.19-3s-.4-2.22-1.19-3.03c-.82-.84-1.82-1.26-3-1.26s-2.12.42-2.94,1.26c-.8.84-1.2,1.85-1.2,3.03s.4,2.19,1.2,3c.79.84,1.77,1.26,2.94,1.26Z"></path>
      <path d="M530.93,1735.35c1.14,0,2.12-.42,2.94-1.26.79-.84,1.19-1.84,1.19-3s-.4-2.22-1.19-3.03c-.8-.84-1.78-1.26-2.94-1.26s-2.12.42-2.94,1.26c-.8.84-1.2,1.85-1.2,3.03s.4,2.19,1.2,3c.79.84,1.77,1.26,2.94,1.26Z"></path>
      <path d="M531.06,1740.1h-8.28v22.98h-11.97c-2.41,0-4.74-.54-6.99-1.62,4.27-3.58,6.4-7.59,6.4-12.04,0-2.96-1.03-5.36-3.1-7.2-2.35-2.07-5.73-3.1-10.14-3.1-5.66,0-11.71,2.32-18.14,6.96l-.67,5.91c3.21.88,7.59,3.93,13.17,9.16-3.96,1.29-8.84,1.93-14.61,1.93h-7.41v-22.98h-8.28v22.98h-14v-22.98h-8.28v22.98h-14v-21.6c-3.82-1.45-8.19-2.18-13.11-2.18-5.45,0-9.68,1.59-12.66,4.78-2.65,2.86-3.98,6.52-3.98,10.97,0,9.7,5.61,14.55,16.82,14.55h64.38c8.01,0,14.91-1.3,20.71-3.89,3.9,2.59,8.21,3.89,12.93,3.89h21.2v-29.51ZM416.73,1763.08h-4.01c-6.29,0-9.43-2.93-9.43-8.79,0-2.49.66-4.51,1.99-6.07,1.35-1.59,3.17-2.39,5.48-2.39s4.39.38,5.98,1.13v16.12ZM498.12,1757.63c-6.11-5.13-9.97-8.01-11.61-8.67,3.76-2.51,6.93-3.77,9.53-3.77,1.94,0,3.44.51,4.5,1.53.98.94,1.47,2.19,1.47,3.74,0,2.74-1.29,5.13-3.89,7.17Z"></path>
      <path d="M552.41,1769.61h4.9v.95c0,5.56-3.63,8.33-10.88,8.33-3.24,0-6.5-.35-9.77-1.07l-.52,6.77c3.23.55,6.41.83,9.56.83,6.66,0,11.69-1.53,15.07-4.59,3.05-2.74,4.57-6.43,4.57-11.09v-28.25c-3.82-1.45-8.19-2.18-13.11-2.18-5.45,0-9.68,1.59-12.66,4.78-2.65,2.86-3.98,6.52-3.98,10.97,0,9.7,5.61,14.55,16.82,14.55ZM545.86,1748.22c1.35-1.59,3.17-2.39,5.48-2.39s4.39.38,5.98,1.13v16.12h-4.01c-6.29,0-9.43-2.93-9.43-8.79,0-2.49.66-4.51,1.99-6.07Z"></path>
      <path d="M587.64,1786.09c3.19,2.39,7.74,3.59,13.67,3.59l.54-6.53c-3.43,0-6.08-.67-7.94-2.02-1.65-1.2-2.48-2.75-2.48-4.63,0-4.59,3.95-6.89,11.86-6.89h12.01c.69-4.27,1.04-8.14,1.04-11.61,0-6.15-1.51-10.69-4.54-13.63-3.17-3.08-8.2-4.63-15.1-4.63-2.5,0-5.17.19-8.03.58v6.47c2.41-.35,4.82-.52,7.23-.52,4.37,0,7.53,1.01,9.47,3.03,1.84,1.92,2.76,4.92,2.76,9.01,0,1.51-.1,3.1-.31,4.78h-4.26c-6.85,0-12.02,1.34-15.54,4.01-3.21,2.41-4.81,5.72-4.81,9.93,0,3.8,1.47,6.82,4.41,9.07Z"></path>
      <path d="M604.4,1775.95c-.86.86-1.28,1.88-1.28,3.07s.43,2.26,1.28,3.09c.84.84,1.86,1.26,3.07,1.26s2.19-.43,3.03-1.28c.86-.84,1.28-1.86,1.28-3.07s-.43-2.23-1.28-3.07c-.84-.84-1.85-1.26-3.03-1.26s-2.23.42-3.07,1.26Z"></path>
      <path d="M662.81,1735.35c1.18,0,2.19-.42,3-1.26.79-.84,1.19-1.84,1.19-3s-.4-2.22-1.19-3.03c-.82-.84-1.82-1.26-3-1.26s-2.12.42-2.94,1.26c-.8.84-1.2,1.85-1.2,3.03s.4,2.19,1.2,3c.79.84,1.77,1.26,2.94,1.26Z"></path>
      <path d="M673.23,1735.35c1.14,0,2.12-.42,2.94-1.26.79-.84,1.19-1.84,1.19-3s-.4-2.22-1.19-3.03c-.8-.84-1.78-1.26-2.94-1.26s-2.12.42-2.94,1.26c-.8.84-1.2,1.85-1.2,3.03s.4,2.19,1.2,3c.79.84,1.77,1.26,2.94,1.26Z"></path>
      <path d="M690.9,1726.19c-1.18,0-2.21.42-3.07,1.26-.84.86-1.25,1.88-1.25,3.07s.41,2.26,1.25,3.09c.84.82,1.86,1.23,3.07,1.23s2.2-.42,3.07-1.25c.83-.86,1.25-1.88,1.25-3.07s-.42-2.21-1.25-3.07c-.86-.84-1.88-1.26-3.07-1.26Z"></path>
      <polygon points="686.76 1763.08 678.92 1763.08 677.97 1763.08 673.35 1763.08 673.35 1740.1 665.07 1740.1 665.07 1763.08 656.99 1763.08 656.28 1763.08 639.46 1763.08 638.51 1763.08 633.18 1763.08 633.18 1725.37 624.9 1725.37 624.9 1769.61 638.51 1769.61 639.46 1769.61 656.28 1769.61 656.99 1769.61 677.97 1769.61 678.92 1769.61 695.04 1769.61 695.04 1740.1 686.76 1740.1 686.76 1763.08"></polygon>
      <path d="M715.9,1781.71h-3.83c-2.68,0-4.01-.67-4.01-1.99,0-1.23.94-1.84,2.82-1.84.63,0,1.69.11,3.16.33l.73-4.29c-.88-.25-2.11-.37-3.7-.37-2.8,0-4.99.62-6.59,1.87-1.41,1.1-2.12,2.49-2.12,4.17,0,1.04.36,1.83,1.07,2.36-.73-.16-1.84-.25-3.34-.25v4.41h15.81v-4.41Z"></path>
      <rect x="704.35" y="1725.37" width="8.31" height="44.24"></rect>
      <path d="M738.08,1769.61h4.9v.95c0,5.56-3.63,8.33-10.88,8.33-3.24,0-6.5-.35-9.77-1.07l-.52,6.77c3.23.55,6.41.83,9.56.83,6.66,0,11.69-1.53,15.07-4.59,3.05-2.74,4.57-6.43,4.57-11.09v-28.25c-3.82-1.45-8.19-2.18-13.11-2.18-5.45,0-9.68,1.59-12.66,4.78-2.65,2.86-3.98,6.52-3.98,10.97,0,9.7,5.61,14.55,16.82,14.55ZM731.53,1748.22c1.35-1.59,3.17-2.39,5.48-2.39s4.39.38,5.98,1.13v16.12h-4.01c-6.29,0-9.43-2.93-9.43-8.79,0-2.49.66-4.51,1.99-6.07Z"></path>
      <path d="M820.2,1769.61h66.03v-6.53h-4.9c-4.76,0-8.38-.89-10.85-2.66-2.27-1.63-3.4-3.86-3.4-6.68,0-2.41.72-4.34,2.17-5.79,1.45-1.45,3.36-2.18,5.73-2.18s4.61.44,6.52,1.32l1.45-6.59c-2.4-.8-4.99-1.2-7.79-1.2-5.29,0-9.41,1.43-12.38,4.29-2.69,2.61-4.05,5.99-4.05,10.14s1.63,7.43,4.88,9.34h-48.75v-9.34c0-9.62-4.73-14.43-14.18-14.43-4.31,0-7.87,1.12-10.7,3.34-2.61,2.06-4.29,4.82-5.05,8.27h-1.5c-4.82,0-8.23,1.4-10.24,4.2-1.81,2.59-2.36,6.23-1.62,10.9l3.18,19.89h7.97l-3.24-20.5c-.47-2.94-.43-5,.12-6.19.55-1.19,1.74-1.78,3.56-1.78h1.38c.9,8.11,6.43,12.16,16.58,12.16h19.09ZM806.84,1763.08h-4.78c-6.27,0-9.41-2.93-9.41-8.79,0-2.49.65-4.51,1.96-6.07,1.35-1.59,3.17-2.39,5.49-2.39,4.5,0,6.74,2.97,6.74,8.92v8.33Z"></path>
      <path d="M954.74,1769.61h1.65v-.14c4.35-.33,7.18-1.87,8.3-4.76,2.61,3.27,7.31,4.9,14.07,4.9h32.14v-44.24h-8.27v37.71h-11v-9.34c0-9.62-4.73-14.43-14.18-14.43-5.19,0-9.27,1.54-12.26,4.63-2.69,2.82-4.04,6.35-4.04,10.6,0,3.17-.65,5.41-1.93,6.74-1.17,1.21-2.97,1.81-5.43,1.81h-4.65c1.84-2.57,2.75-5.75,2.75-9.53,0-4.49-1.12-7.98-3.37-10.45-2.29-2.53-5.59-3.8-9.93-3.8-3.41,0-6.54.99-9.38,2.97-3,2.1-5.17,5.01-6.5,8.7h-.06c.45-2.76.68-5.85.68-9.28v-16.33h-8.27v37.71h-12.99v-37.71h-8.28v44.24h60.94ZM971.31,1748.22c1.37-1.59,3.21-2.39,5.52-2.39,4.47,0,6.71,2.97,6.71,8.92v8.33h-4.78c-6.27,0-9.41-2.93-9.41-8.79,0-2.49.65-4.51,1.96-6.07ZM933.38,1763.08h-10.11c.69-4.64,2.29-8.61,4.78-11.92,2.64-3.52,5.61-5.27,8.92-5.27,4.27,0,6.4,2.72,6.4,8.15,0,6.03-3.33,9.04-9.98,9.04Z"></path>
      <rect x="1021.71" y="1725.37" width="8.28" height="44.24"></rect>
      <path d="M1060.54,1735.35c1.18,0,2.19-.42,3-1.26.79-.84,1.19-1.84,1.19-3s-.4-2.22-1.19-3.03c-.82-.84-1.82-1.26-3-1.26s-2.12.42-2.94,1.26c-.8.84-1.2,1.85-1.2,3.03s.4,2.19,1.2,3c.79.84,1.77,1.26,2.94,1.26Z"></path>
      <path d="M1070.95,1735.35c1.16,0,2.14-.42,2.94-1.26.79-.84,1.19-1.84,1.19-3s-.4-2.22-1.19-3.03c-.8-.84-1.78-1.26-2.94-1.26s-2.12.42-2.94,1.26c-.8.84-1.2,1.85-1.2,3.03s.4,2.19,1.2,3c.79.84,1.77,1.26,2.94,1.26Z"></path>
      <path d="M1066.75,1769.61h13.73v-15.87c0-9.62-4.72-14.43-14.16-14.43-5.23,0-9.32,1.56-12.29,4.69-2.74,2.9-4.11,6.61-4.11,11.13,0,9.66,5.61,14.49,16.82,14.49ZM1060.2,1748.22c1.35-1.59,3.17-2.39,5.48-2.39,4.47,0,6.71,2.97,6.71,8.92v8.33h-4.75c-6.29,0-9.43-2.93-9.43-8.79,0-2.49.66-4.51,1.99-6.07Z"></path>
      <path d="M1079.14,1784.93c1.67.41,3.43.61,5.27.61,10.34,0,15.51-5.23,15.51-15.69v-29.75h-8.27v30.21c0,3.23-.61,5.54-1.81,6.92-1.06,1.23-2.72,1.84-4.99,1.84-1.65,0-3.35-.25-5.08-.74l-.61,6.59Z"></path>
      <rect x="1109.86" y="1725.37" width="8.28" height="44.24"></rect>
      <path d="M1153.07,1765.47c0-7.58-1.77-13.55-5.33-17.93-3.35-4.1-8.53-7.09-15.57-8.95l-1.99,6.92c9.5,2.41,14.43,8.26,14.81,17.56h-18.63v6.53h26.72v-4.14Z"></path>
      <rect x="1160.54" y="1725.37" width="8.31" height="44.24"></rect>
      <path d="M1164.26,1779.72c0-1.23.94-1.84,2.82-1.84.63,0,1.69.11,3.16.33l.73-4.29c-.88-.25-2.11-.37-3.7-.37-2.8,0-4.99.62-6.59,1.87-1.41,1.1-2.12,2.49-2.12,4.17,0,1.04.36,1.83,1.07,2.36-.73-.16-1.84-.25-3.34-.25v4.41h15.81v-4.41h-3.83c-2.68,0-4.01-.67-4.01-1.99Z"></path>
      <path d="M1207.21,1769.73v-28.25c-3.82-1.45-8.19-2.18-13.11-2.18-5.45,0-9.68,1.59-12.66,4.78-2.65,2.86-3.98,6.52-3.98,10.97,0,9.7,5.61,14.55,16.82,14.55h4.9v.95c0,5.56-3.63,8.33-10.88,8.33-3.24,0-6.5-.35-9.77-1.07l-.52,6.77c3.23.55,6.41.83,9.56.83,6.66,0,11.69-1.53,15.07-4.59,3.05-2.74,4.57-6.43,4.57-11.09ZM1199.18,1763.08h-4.01c-6.29,0-9.43-2.93-9.43-8.79,0-2.49.66-4.51,1.99-6.07,1.35-1.59,3.17-2.39,5.48-2.39s4.39.38,5.98,1.13v16.12Z"></path>
      <path d="M1237.09,1735.35c1.18,0,2.19-.42,3-1.26.79-.84,1.19-1.84,1.19-3s-.4-2.22-1.19-3.03c-.82-.84-1.82-1.26-3-1.26s-2.12.42-2.94,1.26c-.8.84-1.2,1.85-1.2,3.03s.4,2.19,1.2,3c.79.84,1.77,1.26,2.94,1.26Z"></path>
      <path d="M1247.5,1735.35c1.16,0,2.14-.42,2.94-1.26.79-.84,1.19-1.84,1.19-3s-.4-2.22-1.19-3.03c-.8-.84-1.78-1.26-2.94-1.26s-2.12.42-2.94,1.26c-.8.84-1.2,1.85-1.2,3.03s.4,2.19,1.2,3c.79.84,1.77,1.26,2.94,1.26Z"></path>
      <path d="M1243.3,1769.61h52.21v-15.87c0-9.62-4.73-14.43-14.18-14.43-5.19,0-9.27,1.54-12.25,4.63-2.7,2.82-4.05,6.35-4.05,10.6s1.16,7.28,3.49,8.98c-.88-.29-2.05-.43-3.49-.43h-8.79v-21.6c-3.82-1.45-8.19-2.18-13.11-2.18-5.45,0-9.68,1.59-12.66,4.78-2.65,2.86-3.98,6.52-3.98,10.97,0,9.7,5.61,14.55,16.82,14.55ZM1275.19,1748.22c1.37-1.59,3.21-2.39,5.52-2.39,4.47,0,6.71,2.97,6.71,8.92v8.33h-4.78c-6.27,0-9.41-2.93-9.41-8.79,0-2.49.65-4.51,1.96-6.07ZM1236.75,1748.22c1.35-1.59,3.17-2.39,5.48-2.39s4.39.38,5.98,1.13v16.12h-4.01c-6.29,0-9.43-2.93-9.43-8.79,0-2.49.66-4.51,1.99-6.07Z"></path>
      <path d="M1319.72,1769.61h.74c8.01,0,14.91-1.3,20.71-3.89,3.9,2.59,8.21,3.89,12.93,3.89h20.19v-44.24h-8.28v37.71h-10.96c-2.41,0-4.74-.54-6.99-1.62,4.27-3.58,6.4-7.59,6.4-12.04,0-2.96-1.03-5.36-3.1-7.2-2.35-2.07-5.73-3.1-10.14-3.1-5.66,0-11.71,2.32-18.14,6.96l-.67,5.91c3.21.88,7.59,3.93,13.17,9.16-3.96,1.29-8.84,1.93-14.61,1.93h-7.54v-37.71h-8.28v44.24h14.56ZM1330.75,1748.96c3.76-2.51,6.93-3.77,9.53-3.77,1.94,0,3.44.51,4.5,1.53.98.94,1.47,2.19,1.47,3.74,0,2.74-1.29,5.13-3.89,7.17-6.11-5.13-9.97-8.01-11.61-8.67Z"></path>
      <rect x="1384.95" y="1725.37" width="8.28" height="44.24"></rect>
      <path d="M1443.72,1769.61v-15.87c0-9.62-4.72-14.43-14.16-14.43-5.23,0-9.32,1.56-12.29,4.69-2.74,2.9-4.11,6.61-4.11,11.13,0,9.66,5.61,14.49,16.82,14.49h13.73ZM1421.45,1754.29c0-2.49.66-4.51,1.99-6.07,1.35-1.59,3.17-2.39,5.48-2.39,4.47,0,6.71,2.97,6.71,8.92v8.33h-4.75c-6.29,0-9.43-2.93-9.43-8.79Z"></path>
      <path d="M1423.77,1735.35c1.18,0,2.19-.42,3-1.26.79-.84,1.19-1.84,1.19-3s-.4-2.22-1.19-3.03c-.82-.84-1.82-1.26-3-1.26s-2.12.42-2.94,1.26c-.8.84-1.2,1.85-1.2,3.03s.4,2.19,1.2,3c.79.84,1.77,1.26,2.94,1.26Z"></path>
      <path d="M1434.19,1735.35c1.16,0,2.14-.42,2.94-1.26.79-.84,1.19-1.84,1.19-3s-.4-2.22-1.19-3.03c-.8-.84-1.78-1.26-2.94-1.26s-2.12.42-2.94,1.26c-.8.84-1.2,1.85-1.2,3.03s.4,2.19,1.2,3c.79.84,1.77,1.26,2.94,1.26Z"></path>
      <path d="M1454.87,1770.31c0,3.23-.61,5.54-1.81,6.92-1.06,1.23-2.72,1.84-4.99,1.84-1.65,0-3.35-.25-5.08-.74l-.61,6.59c1.67.41,3.43.61,5.27.61,10.34,0,15.51-5.23,15.51-15.69v-29.75h-8.27v30.21Z"></path>
      <path d="M1501.56,1783.37c1.21,0,2.23-.43,3.07-1.28.86-.84,1.28-1.86,1.28-3.07s-.43-2.23-1.28-3.07c-.84-.84-1.86-1.26-3.07-1.26s-2.19.42-3.03,1.26c-.86.86-1.28,1.88-1.28,3.07s.43,2.26,1.28,3.09c.84.84,1.85,1.26,3.03,1.26Z"></path>
      <path d="M1540.14,1735.35c1.14,0,2.12-.42,2.94-1.26.79-.84,1.19-1.84,1.19-3s-.4-2.22-1.19-3.03c-.8-.84-1.78-1.26-2.94-1.26s-2.12.42-2.94,1.26c-.8.84-1.2,1.85-1.2,3.03s.4,2.19,1.2,3c.79.84,1.77,1.26,2.94,1.26Z"></path>
      <path d="M1529.73,1735.35c1.18,0,2.19-.42,3-1.26.79-.84,1.19-1.84,1.19-3s-.4-2.22-1.19-3.03c-.82-.84-1.82-1.26-3-1.26s-2.12.42-2.94,1.26c-.8.84-1.2,1.85-1.2,3.03s.4,2.19,1.2,3c.79.84,1.77,1.26,2.94,1.26Z"></path>
      <path d="M1574.06,1725.37v37.71h-13.11v-37.71h-8.28v37.71h-12.4v-22.98h-8.28v22.98h-12.72c.16-1.61.25-3.31.25-5.08,0-6.15-1.52-10.69-4.57-13.63-3.17-3.08-8.21-4.63-15.13-4.63-2.41,0-5.09.19-8.03.58v6.47c2.47-.35,4.87-.52,7.2-.52,4.41,0,7.6,1.01,9.56,3.03,1.84,1.92,2.75,4.92,2.75,9.01,0,1.51-.1,3.1-.3,4.78h-29.62v-37.71h-8.28v44.24h109.24v-44.24h-8.28Z"></path>
      <path d="M423.7,1809.4c.79-.84,1.19-1.84,1.19-3s-.4-2.22-1.19-3.03c-.8-.84-1.78-1.26-2.94-1.26s-2.12.42-2.94,1.26c-.8.84-1.2,1.85-1.2,3.03s.4,2.19,1.2,3c.79.84,1.77,1.26,2.94,1.26s2.14-.42,2.94-1.26Z"></path>
      <path d="M413.34,1809.4c.79-.84,1.19-1.84,1.19-3s-.4-2.22-1.19-3.03c-.82-.84-1.82-1.26-3-1.26s-2.12.42-2.94,1.26c-.8.84-1.2,1.85-1.2,3.03s.4,2.19,1.2,3c.79.84,1.77,1.26,2.94,1.26s2.19-.42,3-1.26Z"></path>
      <path d="M450.45,1850.06c-1.14,0-2.12.42-2.94,1.26-.79.84-1.19,1.84-1.19,3s.4,2.22,1.19,3.03c.8.82,1.78,1.23,2.94,1.23s2.12-.42,2.94-1.26c.8-.84,1.2-1.84,1.2-3s-.4-2.2-1.2-3.03c-.79-.82-1.77-1.23-2.94-1.23Z"></path>
      <path d="M440.03,1850.06c-1.14,0-2.12.42-2.94,1.26-.79.84-1.19,1.84-1.19,3s.4,2.22,1.19,3.03c.8.82,1.78,1.23,2.94,1.23s2.19-.42,3-1.26c.8-.82,1.2-1.82,1.2-3s-.4-2.2-1.2-3.03c-.82-.82-1.82-1.23-3-1.23Z"></path>
      <path d="M467.11,1838.38h-15.34v-22.98h-8.28v22.98h-14v-21.6c-3.82-1.45-8.19-2.18-13.11-2.18-5.45,0-9.68,1.59-12.66,4.78-2.65,2.86-3.98,6.52-3.98,10.97,0,9.7,5.61,14.55,16.82,14.55h58.83v-44.24h-8.28v37.71ZM421.46,1838.38h-4.01c-6.29,0-9.43-2.93-9.43-8.79,0-2.49.66-4.51,1.99-6.07,1.35-1.59,3.17-2.39,5.48-2.39s4.39.38,5.98,1.13v16.12Z"></path>
      <path d="M483.99,1819.39c-2.65,2.86-3.98,6.52-3.98,10.97,0,9.7,5.61,14.55,16.82,14.55h4.9v.95c0,5.56-3.63,8.33-10.88,8.33-3.24,0-6.5-.35-9.77-1.07l-.52,6.77c3.23.55,6.41.83,9.56.83,6.66,0,11.69-1.53,15.07-4.59,3.05-2.74,4.57-6.43,4.57-11.09v-28.25c-3.82-1.45-8.19-2.18-13.11-2.18-5.45,0-9.68,1.59-12.66,4.78ZM501.73,1838.38h-4.01c-6.29,0-9.43-2.93-9.43-8.79,0-2.49.66-4.51,1.99-6.07,1.35-1.59,3.17-2.39,5.48-2.39s4.39.38,5.98,1.13v16.12Z"></path>
      <path d="M523.15,1810.53h16.11v-4.72h-3.58c-2.89,0-4.33-.8-4.33-2.39,0-1.41,1-2.12,3-2.12,1.07,0,2.12.1,3.16.31l.73-4.72c-1.45-.2-2.68-.31-3.67-.31-3.09,0-5.44.74-7.05,2.21-1.37,1.25-2.05,2.85-2.05,4.81,0,1.24.39,2.06,1.17,2.45-.78-.16-1.95-.25-3.49-.25v4.72Z"></path>
      <path d="M655.15,1838.38h-11v-9.34c0-9.62-4.73-14.43-14.18-14.43-5.19,0-9.27,1.54-12.26,4.63-2.69,2.82-4.04,6.35-4.04,10.6,0,3.17-.65,5.41-1.93,6.74-1.17,1.21-2.97,1.81-5.43,1.81h-3.95c.2-3.06.31-5.76.31-8.09,0-5.96-.68-11.76-2.02-17.37l-8.09,1.1c1.23,5.43,1.84,11.04,1.84,16.82,0,2.68-.15,5.19-.46,7.54h-1.62c-2.94,0-4.91-.38-5.89-1.13-1.02-.78-1.52-2.39-1.52-4.84v-15.75h-7.97v14.19c0,5.35-1.68,8.03-5.03,8.03-1.78,0-2.96-.64-3.56-1.93-.51-1.08-.76-3.14-.76-6.16v-11.61h-8.28v11.43c0,3-.44,5.06-1.31,6.19-.82,1.06-2.27,1.59-4.35,1.59h-8.34v-21.6c-3.82-1.45-8.19-2.18-13.11-2.18-5.45,0-9.68,1.59-12.66,4.78-2.65,2.86-3.98,6.52-3.98,10.97,0,9.7,5.61,14.55,16.82,14.55h4.9v.95c0,5.56-3.63,8.33-10.88,8.33-3.24,0-6.5-.35-9.77-1.07l-.52,6.77c3.23.55,6.41.83,9.56.83,6.66,0,11.69-1.53,15.07-4.59,3.05-2.74,4.57-6.43,4.57-11.09v-.12h8.28c4.29,0,7.08-1.46,8.36-4.38,1.08,3.25,3.86,4.87,8.33,4.87,4.82,0,7.97-1.6,9.47-4.81.89,1.68,2.23,2.83,4.01,3.46,1.66.58,4.19.86,7.6.86h17.12v-.1c4.6-.25,7.57-1.81,8.73-4.8,2.61,3.27,7.31,4.9,14.07,4.9h32.14v-44.24h-8.27v37.71ZM537.27,1838.38h-4.01c-6.29,0-9.43-2.93-9.43-8.79,0-2.49.66-4.51,1.99-6.07,1.35-1.59,3.17-2.39,5.48-2.39s4.39.38,5.98,1.13v16.12ZM636.06,1838.38h-4.78c-6.27,0-9.41-2.93-9.41-8.79,0-2.49.65-4.51,1.96-6.07,1.37-1.59,3.21-2.39,5.52-2.39,4.47,0,6.71,2.97,6.71,8.92v8.33Z"></path>
      <rect x="674.24" y="1800.67" width="8.28" height="44.24"></rect>
      <path d="M718.85,1814.61c-5.23,0-9.32,1.56-12.29,4.69-2.74,2.9-4.11,6.61-4.11,11.13,0,9.66,5.61,14.49,16.82,14.49h13.73v-15.87c0-9.62-4.72-14.43-14.16-14.43ZM724.92,1838.38h-4.75c-6.29,0-9.43-2.93-9.43-8.79,0-2.49.66-4.51,1.99-6.07,1.35-1.59,3.17-2.39,5.48-2.39,4.47,0,6.71,2.97,6.71,8.92v8.33Z"></path>
      <path d="M710.12,1803.36c-.8.84-1.2,1.85-1.2,3.03s.4,2.19,1.2,3c.79.84,1.77,1.26,2.94,1.26s2.19-.42,3-1.26c.79-.84,1.19-1.84,1.19-3s-.4-2.22-1.19-3.03c-.82-.84-1.82-1.26-3-1.26s-2.12.42-2.94,1.26Z"></path>
      <path d="M723.48,1810.65c1.16,0,2.14-.42,2.94-1.26.79-.84,1.19-1.84,1.19-3s-.4-2.22-1.19-3.03c-.8-.84-1.78-1.26-2.94-1.26s-2.12.42-2.94,1.26c-.8.84-1.2,1.85-1.2,3.03s.4,2.19,1.2,3c.79.84,1.77,1.26,2.94,1.26Z"></path>
      <path d="M746.06,1813.9l-1.99,6.92c9.5,2.41,14.43,8.26,14.81,17.56h-18.63v6.53h26.72v-4.14c0-7.58-1.77-13.55-5.33-17.93-3.35-4.1-8.53-7.09-15.57-8.95Z"></path>
      <path d="M774.24,1819.39c-2.65,2.86-3.98,6.52-3.98,10.97,0,9.7,5.61,14.55,16.82,14.55h4.9v.95c0,5.56-3.63,8.33-10.88,8.33-3.24,0-6.5-.35-9.77-1.07l-.52,6.77c3.23.55,6.41.83,9.56.83,6.66,0,11.69-1.53,15.07-4.59,3.05-2.74,4.57-6.43,4.57-11.09v-28.25c-3.82-1.45-8.19-2.18-13.11-2.18-5.45,0-9.68,1.59-12.66,4.78ZM791.98,1838.38h-4.01c-6.29,0-9.43-2.93-9.43-8.79,0-2.49.66-4.51,1.99-6.07,1.35-1.59,3.17-2.39,5.48-2.39s4.39.38,5.98,1.13v16.12Z"></path>
      <path d="M893.74,1814.61c-5.19,0-9.27,1.54-12.25,4.63-2.7,2.82-4.05,6.35-4.05,10.6s1.16,7.28,3.49,8.98c-.88-.29-2.05-.43-3.49-.43h-7.52c.16-1.61.25-3.31.25-5.08,0-6.15-1.52-10.69-4.57-13.63-3.17-3.08-8.21-4.63-15.13-4.63-2.41,0-5.09.19-8.03.58v6.47c2.47-.35,4.87-.52,7.2-.52,4.41,0,7.6,1.01,9.56,3.03,1.84,1.92,2.75,4.92,2.75,9.01,0,1.51-.1,3.1-.3,4.78h-27.45c-.37-6.82-2.32-12.22-5.85-16.21-3.35-3.76-8.34-6.52-14.98-8.27l-1.99,6.92c9.5,2.41,14.43,8.26,14.81,17.56h-18.63v6.53h100.37v-15.87c0-9.62-4.73-14.43-14.18-14.43ZM899.84,1838.38h-4.78c-6.27,0-9.41-2.93-9.41-8.79,0-2.49.65-4.51,1.96-6.07,1.37-1.59,3.21-2.39,5.52-2.39,4.47,0,6.71,2.97,6.71,8.92v8.33Z"></path>
      <path d="M944.94,1803.36c-.8.84-1.2,1.85-1.2,3.03s.4,2.19,1.2,3c.79.84,1.77,1.26,2.94,1.26s2.14-.42,2.94-1.26c.79-.84,1.19-1.84,1.19-3s-.4-2.22-1.19-3.03c-.8-.84-1.78-1.26-2.94-1.26s-2.12.42-2.94,1.26Z"></path>
      <path d="M934.52,1803.36c-.8.84-1.2,1.85-1.2,3.03s.4,2.19,1.2,3c.79.84,1.77,1.26,2.94,1.26s2.19-.42,3-1.26c.79-.84,1.19-1.84,1.19-3s-.4-2.22-1.19-3.03c-.82-.84-1.82-1.26-3-1.26s-2.12.42-2.94,1.26Z"></path>
      <path d="M1073.38,1814.61c-3.41,0-6.54.99-9.38,2.97-3,2.1-5.17,5.01-6.5,8.7h-.06c.45-2.76.68-5.85.68-9.28v-16.33h-8.27v37.71h-10.85c-2.41,0-4.74-.54-6.99-1.62,4.27-3.58,6.4-7.59,6.4-12.04,0-2.96-1.03-5.36-3.1-7.2-2.35-2.07-5.73-3.1-10.14-3.1-5.66,0-11.71,2.32-18.14,6.96l-.67,5.91c3.21.88,7.59,3.93,13.17,9.16-3.96,1.29-8.84,1.93-14.61,1.93h-6.5v-9.34c0-9.62-4.73-14.43-14.18-14.43-5.19,0-9.27,1.54-12.26,4.63-2.69,2.82-4.04,6.35-4.04,10.6,0,3.17-.65,5.41-1.93,6.74-1.17,1.21-2.97,1.81-5.43,1.81h-3.98v-21.6c-3.82-1.45-8.19-2.18-13.11-2.18-5.45,0-9.68,1.59-12.66,4.78-2.65,2.86-3.98,6.52-3.98,10.97,0,9.7,5.61,14.55,16.82,14.55h19.06v-.1c4.62-.25,7.6-1.8,8.76-4.8,2.61,3.27,7.31,4.9,14.07,4.9h18.84c8.01,0,14.91-1.3,20.71-3.89,3.9,2.59,8.21,3.89,12.93,3.89h29.36c6.64,0,11.6-1.55,14.89-4.66,2.92-2.74,4.38-6.54,4.38-11.4,0-4.49-1.12-7.98-3.37-10.45-2.29-2.53-5.59-3.8-9.93-3.8ZM948.58,1838.38h-4.01c-6.29,0-9.43-2.93-9.43-8.79,0-2.49.66-4.51,1.99-6.07,1.35-1.59,3.17-2.39,5.48-2.39s4.39.38,5.98,1.13v16.12ZM990.34,1838.38h-4.78c-6.27,0-9.41-2.93-9.41-8.79,0-2.49.65-4.51,1.96-6.07,1.37-1.59,3.21-2.39,5.52-2.39,4.47,0,6.71,2.97,6.71,8.92v8.33ZM1026.31,1832.93c-6.11-5.13-9.97-8.01-11.61-8.67,3.76-2.51,6.93-3.77,9.53-3.77,1.94,0,3.44.51,4.5,1.53.98.94,1.47,2.19,1.47,3.74,0,2.74-1.29,5.13-3.89,7.17ZM1068.18,1838.38h-10.11c.69-4.64,2.29-8.61,4.78-11.92,2.64-3.52,5.61-5.27,8.92-5.27,4.27,0,6.4,2.72,6.4,8.15,0,6.03-3.33,9.04-9.98,9.04Z"></path>
      <polygon points="1108.77 1838.38 1089.38 1838.38 1089.38 1844.91 1117.04 1844.91 1117.04 1800.67 1108.77 1800.67 1108.77 1838.38"></polygon>
      <polygon points="1104.18 1833.67 1095.02 1800.24 1086.8 1801.37 1095.78 1833.67 1104.18 1833.67"></polygon>
      <rect x="1127.64" y="1800.67" width="8.28" height="44.24"></rect>
      <path d="M1144.84,1819.39c-2.65,2.86-3.98,6.52-3.98,10.97,0,9.7,5.61,14.55,16.82,14.55h4.9v.95c0,5.56-3.63,8.33-10.88,8.33-3.24,0-6.5-.35-9.77-1.07l-.52,6.77c3.23.55,6.41.83,9.56.83,6.66,0,11.69-1.53,15.07-4.59,3.05-2.74,4.57-6.43,4.57-11.09v-28.25c-3.82-1.45-8.19-2.18-13.11-2.18-5.45,0-9.68,1.59-12.66,4.78ZM1162.58,1838.38h-4.01c-6.29,0-9.43-2.93-9.43-8.79,0-2.49.66-4.51,1.99-6.07,1.35-1.59,3.17-2.39,5.48-2.39s4.39.38,5.98,1.13v16.12Z"></path>
      <path d="M1207.95,1809.4c.79.84,1.77,1.26,2.94,1.26s2.14-.42,2.94-1.26c.79-.84,1.19-1.84,1.19-3s-.4-2.22-1.19-3.03c-.8-.84-1.78-1.26-2.94-1.26s-2.12.42-2.94,1.26c-.8.84-1.2,1.85-1.2,3.03s.4,2.19,1.2,3Z"></path>
      <path d="M1197.53,1803.36c-.8.84-1.2,1.85-1.2,3.03s.4,2.19,1.2,3c.79.84,1.77,1.26,2.94,1.26s2.19-.42,3-1.26c.79-.84,1.19-1.84,1.19-3s-.4-2.22-1.19-3.03c-.82-.84-1.82-1.26-3-1.26s-2.12.42-2.94,1.26Z"></path>
      <path d="M1240.58,1850.06c-1.14,0-2.12.42-2.94,1.26-.79.84-1.19,1.84-1.19,3s.4,2.22,1.19,3.03c.8.82,1.78,1.23,2.94,1.23s2.12-.42,2.94-1.26c.8-.84,1.2-1.84,1.2-3s-.4-2.2-1.2-3.03c-.79-.82-1.77-1.23-2.94-1.23Z"></path>
      <path d="M1230.16,1850.06c-1.14,0-2.12.42-2.94,1.26-.79.84-1.19,1.84-1.19,3s.4,2.22,1.19,3.03c.8.82,1.78,1.23,2.94,1.23s2.19-.42,3-1.26c.8-.82,1.2-1.82,1.2-3s-.4-2.2-1.2-3.03c-.82-.82-1.82-1.23-3-1.23Z"></path>
      <path d="M1261.26,1803.36c0-1.41,1-2.12,3-2.12,1.07,0,2.12.11,3.16.31l.73-4.72c-1.45-.2-2.68-.31-3.7-.31-3.07,0-5.41.74-7.02,2.21-1.37,1.24-2.05,2.85-2.05,4.81,0,1.24.39,2.07,1.17,2.45-.78-.16-1.95-.25-3.49-.25v4.72h16.11v-4.72h-3.59c-2.88,0-4.32-.8-4.32-2.39Z"></path>
      <path d="M1258.26,1838.38h-16.35v-22.98h-8.28v22.98h-14v-21.6c-3.82-1.45-8.19-2.18-13.11-2.18-5.45,0-9.68,1.59-12.66,4.78-2.65,2.86-3.98,6.52-3.98,10.97,0,9.7,5.61,14.55,16.82,14.55h59.85v-29.51h-8.28v22.98ZM1211.59,1838.38h-4.01c-6.29,0-9.43-2.93-9.43-8.79,0-2.49.66-4.51,1.99-6.07,1.35-1.59,3.17-2.39,5.48-2.39s4.39.38,5.98,1.13v16.12Z"></path>
      <rect x="1276.49" y="1800.67" width="8.28" height="44.24"></rect>
      <path d="M1302.5,1810.13c1.21,0,2.23-.42,3.07-1.25.86-.86,1.28-1.88,1.28-3.07s-.43-2.21-1.28-3.07c-.84-.84-1.86-1.26-3.07-1.26s-2.21.42-3.07,1.26c-.84.86-1.25,1.88-1.25,3.07s.41,2.26,1.25,3.09c.86.82,1.88,1.23,3.07,1.23Z"></path>
      <path d="M1341.2,1802.38c-.86.84-1.29,1.86-1.29,3.06s.44,2.23,1.29,3.07c.83.84,1.84,1.26,3.03,1.26s2.23-.42,3.06-1.26c.86-.86,1.29-1.88,1.29-3.07s-.43-2.23-1.29-3.06c-.83-.86-1.85-1.29-3.06-1.29s-2.2.43-3.03,1.29Z"></path>
      <path d="M1370.03,1838.38h-10.96c-2.41,0-4.74-.54-6.99-1.62,4.27-3.58,6.4-7.59,6.4-12.04,0-2.96-1.03-5.36-3.1-7.2-2.35-2.07-5.73-3.1-10.14-3.1-5.66,0-11.71,2.32-18.14,6.96l-.67,5.91c3.21.88,7.59,3.93,13.17,9.16-3.96,1.29-8.84,1.93-14.61,1.93h-5.37c-.37-6.82-2.32-12.22-5.85-16.21-3.35-3.76-8.34-6.52-14.98-8.27l-1.99,6.92c9.5,2.41,14.43,8.26,14.81,17.56h-18.63v6.53h31.5c8.01,0,14.91-1.3,20.71-3.89,3.9,2.59,8.21,3.89,12.93,3.89h20.19v-44.24h-8.28v37.71ZM1346.38,1832.93c-6.11-5.13-9.97-8.01-11.61-8.67,3.76-2.51,6.93-3.77,9.53-3.77,1.94,0,3.44.51,4.5,1.53.98.94,1.47,2.19,1.47,3.74,0,2.74-1.29,5.13-3.89,7.17Z"></path>
      <rect x="1388.97" y="1800.67" width="8.28" height="44.24"></rect>
      <path d="M1423.53,1813.9l-1.99,6.92c9.5,2.41,14.43,8.26,14.81,17.56h-18.63v6.53h26.72v-4.14c0-7.58-1.77-13.55-5.33-17.93-3.35-4.1-8.53-7.09-15.57-8.95Z"></path>
      <rect x="1452.85" y="1800.67" width="8.28" height="44.24"></rect>
      <path d="M1550.26,1838.38h-11v-9.34c0-9.62-4.73-14.43-14.18-14.43-5.19,0-9.27,1.54-12.26,4.63-2.69,2.82-4.04,6.35-4.04,10.6,0,3.17-.65,5.41-1.93,6.74-1.17,1.21-2.97,1.81-5.43,1.81h-3.98v-21.6c-3.82-1.45-8.19-2.18-13.11-2.18-5.45,0-9.68,1.59-12.66,4.78-2.65,2.86-3.98,6.52-3.98,10.97,0,9.7,5.61,14.55,16.82,14.55h4.9v.95c0,5.56-3.63,8.33-10.88,8.33-3.24,0-6.5-.35-9.77-1.07l-.52,6.77c3.23.55,6.41.83,9.56.83,6.66,0,11.68-1.53,15.07-4.59,3.04-2.74,4.57-6.43,4.57-11.09v-.12h6.13v-.1c4.62-.25,7.6-1.8,8.76-4.8,2.61,3.27,7.31,4.9,14.07,4.9h32.14v-44.24h-8.27v37.71ZM1489.4,1838.38h-4.01c-6.29,0-9.44-2.93-9.44-8.79,0-2.49.67-4.51,1.99-6.07,1.35-1.59,3.18-2.39,5.49-2.39s4.39.38,5.98,1.13v16.12ZM1531.17,1838.38h-4.78c-6.27,0-9.41-2.93-9.41-8.79,0-2.49.65-4.51,1.96-6.07,1.37-1.59,3.21-2.39,5.52-2.39,4.47,0,6.71,2.97,6.71,8.92v8.33Z"></path>
      <rect x="1569.34" y="1800.67" width="8.28" height="44.24"></rect>
    </g>
  </g>
  <g>
    <path d="M838.7,1249.77s0,.14.14.14c.14-.14.42-.14.7-.28-.28.14-.56.14-.83.14ZM1323.73,972.89c-1.53-4.31-3.34-8.63-5.84-12.38-1.95-2.92-5.01-5.57-8.07-7.37-2.5-1.53-5.15-.42-5.43,3.06-.14,1.81,0,3.48.42,5.15,2.23,9.18,5.01,18.23,6.68,27.41,1.11,5.57,1.39,11.41.7,16.84-.7,4.73-3.2,9.74-8.9,10.3-5.71.42-7.37-4.45-9.32-8.63-2.09-4.31-4.31-8.77-7.1-12.66-.97-1.53-4.04-2.92-5.71-2.5-1.53.28-3.48,3.2-3.48,4.87-.42,10.02-.83,20.04-.28,29.91.56,8.21,2.64,16.28,3.76,24.49,2.09,15.58-.83,30.19-9.32,43.55-4.17,6.54-9.46,10.71-17.53,10.02-7.51-.7-11.41-5.43-14.05-12.1-1.53-3.62-3.2-7.37-5.56-10.57-2.5-3.34-5.84-3.48-8.77-.56-1.67,1.53-3.06,3.48-3.76,5.57-4.31,13.64-7.93,27.27-7.65,42.02.42,12.8-.28,25.6-1.67,38.4-.7,6.4-2.78,12.94-5.84,18.64-8.21,15.03-22.26,17.39-34.78,5.84-10.71-10.02-19.76-21.43-24.21-35.76-4.17-13.5-10.57-25.88-17.81-37.98-1.39-2.23-3.48-3.9-6.54-7.24-1.53,4.45-2.64,6.96-3.2,9.6-1.53,8.49-2.64,16.98-4.31,25.46-1.11,6.12.14,11.69,2.78,17.39,4.31,8.9,8.49,18.09,11.97,27.41,1.67,4.45,3.2,9.74,2.37,14.19-3.34,16.56-10.71,31.31-23.93,42.44-6.54,5.57-12.94,4.04-16.56-3.76-2.09-4.31-3.06-9.18-4.45-13.78-1.67-5.29-2.5-10.71-4.87-15.58-5.15-10.57-10.71-11.27-17.11-1.39-5.15,7.79-8.63,16.7-12.8,25.18-3.34,6.82-5.98,14.19-9.88,20.73-6.96,11.41-15.3,21.29-27.97,26.99-10.02,4.59-19.2,3.2-26.85-4.17-4.73-4.59-9.18-9.74-12.11-15.44-6.4-12.38-11.97-25.32-17.53-38.12-1.81-4.04-3.34-8.21-5.01-12.8-6.12,2.64-12.38,5.15-18.92,7.51-3.62,1.39-7.24,2.78-10.85,4.03,13.36,31.17,24.49,61.92,29.64,94.61,1.25,8.07,2.92,16.98.83,24.63-9.32,35.34-27.97,63.72-63.72,77.64-4.59,1.81-9.88,2.92-14.89,3.06-11.55.14-22.82-1.25-33.67-4.03-1.39-.28-3.06-.7-4.73-1.25-2.37-.7-4.73-1.39-7.24-2.23-1.81-.7-3.76-1.39-5.7-2.23-.83-.28-1.67-.7-2.5-1.11-1.95-.7-3.9-1.53-5.84-2.51-2.23-1.11-4.17-2.64-6.4-4.45-.83-.56-1.67-1.25-2.5-1.81-5.98-4.45-10.71-9.04-14.33-13.22-2.23-2.23-3.9-4.31-5.29-6.26-11.41-14.75-16.28-32-17.53-50.65-.56-8.49-1.11-17.11,1.81-25.46,8.77-25.32,18.92-50.09,32.56-73.33.7-.97,1.53-1.95,1.53-3.06.14-1.25,0-3.48-.7-3.76-1.25-.7-3.48-.7-4.59,0-1.81,1.25-3.2,3.34-4.31,5.15-4.59,7.23-8.77,14.75-13.64,21.84-13.5,19.34-21.57,40.77-27.27,63.45-12.1,49.39.28,91.55,37.85,125.92,5.98,5.43,11.83,8.9,16,11.27,17.81,10.44,35.06,14.33,48.14,15.72,6.12.56,12.24.56,18.23-.14,1.39-.14,2.78-.42,4.17-.56,8.77-.97,17.39-3.48,25.32-7.37h.14c6.54-3.2,15.44-8.63,24.49-17.11,8.07-7.79,12.66-14.75,16.84-21.01,10.71-16,18.37-33.67,22.96-52.87,2.92-11.83,3.48-24.21,4.87-36.45.56-5.15.56-10.44,2.78-15.86,4.73,3.34,8.49,6.4,12.66,8.77,17.25,9.32,36.04,3.48,49.39-11.41,10.02-10.99,17.81-23.65,23.37-37.71,2.09-5.29,4.45-10.44,6.96-15.58,1.11-2.5,2.5-5.01,6.12-5.84,1.81,5.29,3.34,10.02,5.15,14.89,2.5,6.4,5.84,12.24,11.41,16.7,8.63,6.68,15.03,7.1,23.1-.28,5.57-5.15,10.57-11.27,14.75-17.53,9.04-13.5,13.91-28.66,17.67-44.38.83-3.48,1.95-6.82,3.34-11.27,9.74,10.16,20.17,16.98,31.72,22.12,14.33,6.4,35.34-.56,42.44-14.61,4.45-8.9,8.35-18.23,8.77-28.38.7-13.5,1.11-26.85,1.81-40.21.28-7.65.28-15.44,4.87-23.24,2.78,2.64,5.29,4.87,7.79,6.96,10.16,8.77,31.58,10.44,41.05-5.7,9.6-16.42,13.64-33.67,12.66-52.32-.42-6.54-1.81-13.08-2.64-19.62-.28-2.92,0-5.84,0-9.88,2.37,1.11,3.76,1.53,4.87,2.23,11.83,7.65,22.26,2.09,26.16-10.02,2.5-8.07,3.34-16.84,3.34-25.32-.14-16.98-5.15-33.25-10.71-49.12Z"></path>
    <path d="M906.87,1313.49c-7.24-4.87-7.51-5.29-4.04-14.05,2.78-7.24,4.04-14.89,3.2-22.68-2.09-19.48-22.4-29.08-39.24-18.78-10.16,6.4-15.03,16.14-18.78,26.71-5.43,15.3-2.37,24.21,11.13,32.84,5.43,3.48,10.85,6.82,17.11,10.71-2.23,3.2-3.62,6.12-5.7,8.21-7.24,7.79-14.05,16-22.12,22.68-16.28,13.5-33.11,26.16-49.95,39.38-.92-.53-1.84-.96-2.64-1.72,3.26,3.46,7.04,7.06,11.83,10.62,1.95-1.11,2.64-1.67,3.34-2.09,28.25-17.81,53.99-38.4,73.46-65.95,3.9-5.43,4.73-5.29,10.71-2.5,5.29,2.64,10.44,5.29,16.56,8.35,1.39-4.59,2.64-8.07,3.34-11.55q2.64-12.94-8.21-20.17ZM886.28,1301.11c-6.68-4.03-12.52-7.65-18.23-11.13,3.62-5.43,6.96-6.68,12.24-5.01,5.71,1.81,7.24,5.57,5.98,16.14Z"></path>
    <path d="M793.34,1394.19c.72.83,1.69,1.73,2.51,2.59-.04-.04-.1-.05-.14-.09-.83-.83-1.67-1.67-2.37-2.5Z"></path>
    <path d="M886.33,848.47c0,3.58-.48,7.23.08,10.72,2.76,17.2,6.5,34.27,8.5,51.55,1.37,11.82.77,23.92.41,35.87-.12,3.81-1.77,7.85-3.65,11.27-5.86,10.68-17.45,12.59-26.36,4.03-5.11-4.91-9.26-10.84-13.62-16.49-3.67-4.74-6.94-9.79-10.55-14.59-2.01-2.67-4.34-5.1-6.49-7.6-5.38,1.46-7.03,5.27-7.53,9.16-1.4,11.01-3.57,22.15-3.08,33.13.88,19.66,3.44,39.24,5.4,58.84,3.81,38.16,6,76.38,3.02,114.68-1.92,24.67-7.98,48.2-19.32,70.56-5.58,11-12.27,20.79-21.38,28.5-8.87,7.5-19.27,13.39-30.66,16.32-8.51,2.19-17.39,3.55-26.17,3.9-23.31.92-45.35-4.87-66.07-15.23-12.79-6.39-21.81-17.3-30.44-28.39-.43-.56-.24-1.6-.37-2.63,3.4-2.49,5.84.06,8.49,1.37,20.43,10.19,41.92,15.18,64.71,11.71,24.85-3.78,46.71-13.77,61.68-34.82,9.95-14,17.34-29.55,22.51-46.01,8.21-26.11,11.27-53.05,12.17-80.25,1.07-32.35-1.28-64.52-5.54-96.6-2.75-20.73-3.91-41.6-.57-62.36,1.07-6.63,3.46-13.26,6.42-19.32,3.8-7.78,12.23-9.11,18.53-3.11,4.31,4.1,7.83,9.06,11.42,13.84,4.46,5.93,8.49,12.19,13,18.09,2.06,2.69,4.56,5.2,7.31,7.15,4.44,3.15,9.12,2.28,11.64-2.5,1.81-3.42,2.86-7.46,3.33-11.34,1.66-13.54-1.22-26.68-3.73-39.91-2.98-15.69-5.39-31.5-7.64-47.31-.88-6.21-.78-12.57,2.29-18.45,2.87-5.5,6.19-6.51,10.79-2.34,4.42,4.02,8,8.95,12.3,13.11,3.45,3.34,7.12,6.65,11.23,9.06,5.1,2.98,8.61,2.01,11.61-3,2-3.34,3.3-7.26,4.17-11.09,3.81-16.77,1.19-32.84-5.39-48.57-2.85-6.81-4.64-14.07-6.84-21.15-.5-1.63-1.03-3.37-.94-5.02.08-1.52.58-3.69,1.63-4.3,1.15-.66,3.63-.43,4.67.44,2.57,2.17,4.84,4.77,6.87,7.48,2.22,2.96,3.78,6.43,6.09,9.3,2.72,3.38,4.65,3.23,7.85.18,4.17-3.97,5.09-9.21,3.83-14.25-1.5-6.01-3.64-12.07-6.67-17.46-6.99-12.42-9.85-26.13-13.52-39.6-.34-1.23.15-2.69.28-4.44,8.46.68,13.6,5.67,17.21,11.86,12.62,21.62,22.06,44.58,25.47,69.51,1.1,8.05,0,16.46-.66,24.66-.63,7.8-5.49,13.22-12.28,16.34-3.95,1.82-4.85,4.3-4.62,8.02.5,7.97,1.4,15.94,1.31,23.9-.13,11.21-2.28,22.16-6.97,32.45-4.32,9.48-13.59,12.99-22.63,7.89-5.15-2.9-9.67-7.03-14.14-10.99-2.29-2.03-3.83-4.89-5.71-7.37-.89.52-1.79,1.05-2.68,1.57Z"></path>
    <path d="M649.87,1171.71c.34-3.19-.02-6.68,1.17-9.52,2.75-6.56,6.19-12.83,9.44-19.17,12-23.36,32.05-38.92,52.19-54.6,14.4-11.22,28-23.48,41.76-35.49,3.37-2.94,5.99-6.74,8.17-11.35-6.63,2.14-13.27,4.22-19.87,6.42-18.54,6.19-37.81,8.53-57.07,11.12-8.73,1.18-17.61,2.47-25.94,5.2-11.08,3.62-20.66,9.86-25.15,21.59-.19.5-.67.92-1.08,1.29-.18.16-.54.12-1.82.34.58-4.11.74-8.03,1.74-11.73,4.5-16.63,10.85-32.44,21.05-46.52,7.37-10.18,18.2-13.25,29.77-14.74,11.33-1.45,22.71-2.54,34.05-3.9,2.19-.26,4.32-1.05,7.11-1.76-5.99-16.48-13.13-31.58-24.73-44.18-4.8-5.21-7.1-5.35-10.59.5-3.26,5.47-7.51,5.16-12.47,4.66-5.47-.55-8.12-4.33-9.22-8.87-1.2-4.95-1.57-10.15-1.78-15.26-.15-3.68.31-7.43.95-11.07,1.45-8.25,6.79-11.72,14.96-9.49,8.45,2.31,15.58,7.02,21.66,13.3,8.43,8.71,14.85,18.8,20.16,29.64,1.34,2.75,2.75,5.46,4.28,8.52,3.67-2.36,2.9-5.49,2.99-8.06.76-22.76-2.37-44.99-9.21-66.74-3.68-11.71-7.08-23.5-10.3-35.35-4.48-16.49-4.7-33.16-2.55-50.13,2.12-16.71,18.43-20.93,31.08-12.96,14.41,9.07,24.53,35.02,20.15,51.59-.27,1.03-.93,1.95-2.07,4.28-1.81-2.33-3.13-3.84-4.23-5.5-3.78-5.7-7.16-11.7-11.33-17.08-2.18-2.81-5.4-5.28-8.68-6.66-8.27-3.5-15.6,1.17-15,10.1.55,8.17,2.54,16.32,4.62,24.3,3.96,15.19,9.09,30.09,12.55,45.38,5.57,24.61,7.9,49.64,6.48,74.9-.38,6.77-1.61,13.49-2.52,20.78,1.44.11,2.86.57,4.08.25,12.12-3.09,24.72-4.74,35.24-12.52,3.98-2.94,7.52-1.61,7.87,3.26.45,6.18.51,12.71-.98,18.66-6.76,27.07-19.98,50.79-38.03,72.06-13.99,16.49-31.15,29.34-47.4,43.26-11.27,9.66-22.25,19.66-33.43,29.44-5.08,4.45-9.61,9.64-15.8,12.64-.76-.28-1.51-.57-2.27-.85Z"></path>
    <path d="M1042.99,1398.98c4.53-14.77,8.78-28.34,18.8-40.17,6.39,2.67,12.7,5.12,18.86,7.91,7.27,3.3,14.49,6.71,21.57,10.41,6.62,3.46,7.97,6.47,4.79,13.2-4.26,9-9.11,17.75-14.26,26.28-3.15,5.23-5.14,5.37-10.65,2.64-8.69-4.3-17.32-8.71-26.02-13-1.72-.85-3.62-1.33-4.88-1.78-4.24,9.77-8.24,19.08-12.34,28.34-.92,2.08-2.02,4.1-3.28,5.99-4.58,6.85-6.68,7.23-14.06,3.53-8.66-4.34-17.46-8.39-26.14-12.69-2.28-1.13-4.76-2.36-6.34-4.23-1.46-1.73-2.89-4.56-2.52-6.58,2.42-13.4,10.07-24.44,16.16-36.84,13.8,5.82,26.6,11.21,40.32,16.99Z"></path>
    <path d="M1145.43,1423.66c2.15-1.62,4.23-3.37,6.47-4.85,36.14-24,68.42-52.48,98.29-83.85,24.85-26.09,38.99-57.55,46.54-92.17,3.28-15.03,4.75-30.45,7.09-45.69,1.1-7.12,2.58-14.12,8.28-19.27.83-.75,1.8-1.34,3.12-2.3,4.38,3.54,8.68,7.03,14.23,11.52,1.54-4.24,3.61-7.28,3.53-10.26-.18-6.48-1.36-12.94-2.33-19.38-.93-6.18-2.21-12.31-3.09-18.5-.21-1.48.6-3.1,1.41-6.78,3.6,5.21,6.16,8.91,9,13.01,6.21-4.04,6.17-9.41,4.82-15.22-1.67-7.17-3.43-14.33-1.93-22.76,1.34,1.11,2.53,1.59,2.76,2.35,4.47,15.06,8.91,30.13,8.77,46.1-.05,5.74-1.57,10.95-5.92,14.62-3.16,2.66-3.29,5.48-2.99,9.08.47,5.68.62,11.39.54,17.09-.03,2.52-.69,5.12-1.51,7.53-3.01,8.93-7.94,10.49-15.46,5.04-2.05-1.48-4.03-3.06-6.06-4.62-5.21,2.16-5.34,6.78-6.15,10.79-2.44,12.03-4.53,24.14-7,36.16-4.19,20.33-11.84,39.55-22.21,57.31-6.1,10.44-14.71,19.7-23.39,28.28-33.46,33.09-70.33,61.88-110.98,85.73-1.58.93-3.37,1.5-5.07,2.24-.26-.4-.51-.81-.77-1.21Z"></path>
    <path d="M850.01,708.12c-1.39,5.81-2.1,10.61-3.7,15.09-2.88,8.06-6.2,15.96-9.51,23.86-2.86,6.8-3.91,7.45-10.97,6.05-7.55-1.5-15.07-3.2-22.5-5.23-2.95-.81-5.61-2.7-8.39-4.14-3.77-1.96-5.43-5.29-4.66-9.26,2.03-10.53,4.41-20.99,6.88-32.56,15.49,2.43,29.99,4.71,45.63,7.16,2.5-15.06,4.91-29.51,7.34-44.15,13.09-1.87,25.55-.25,37.96,1.17,1.64.19,3.19,2.7,4.4,4.4.56.78.4,2.25.22,3.35-2.1,12.61-4.27,25.22-6.52,38.42-12.96.3-24.62-2.15-36.16-4.15Z"></path>
    <path d="M976.73,590.84c3.3.67,4.74.71,5.97,1.24,33.9,14.79,63.1,35.47,84.01,66.68,14.15,21.12,19.7,44.8,20.91,69.71,1.03,21.22-1.33,42.23-5.05,63.1-.28,1.56-1.11,3.02-3.3,4.31.29-4.59.51-9.19.9-13.78,1.61-19.14,2.28-38.3-1.63-57.21-6.14-29.71-22.2-53.38-45-73.02-14.8-12.75-30.65-23.93-47.93-32.88-6.4-3.31-8.36-8.13-8.81-14.34-.3-4.16-.06-8.36-.06-13.81Z"></path>
    <path d="M1006.14,835.71c5.75,13.41,7.12,25.93,3.67,39.06-4.7,17.9-13.39,33.86-23.16,49.38-12.61,20.03-25.5,39.93-37.18,60.5-4.54,7.99-6.14,17.65-9.08,26.55-1.12,3.39-2.28,6.77-3.82,11.36-1.99-2.38-3.75-3.51-3.89-4.82-.77-6.74-1.13-13.53-1.62-20.3-.02-.28.12-.56.13-.84.48-23.84,10.64-43.88,23.89-63,11.2-16.18,21.75-32.84,31.96-49.67,8.32-13.72,14.72-28.36,17.05-44.48.14-.95.97-1.8,2.07-3.73Z"></path>
    <path d="M1126.76,809.24c4.54-7.3,6.36-12.7,3.1-19.79-2.8-6.09-3.62-13.13-5.08-19.8-.31-1.41.38-3.04.61-4.58.59-.17,1.19-.35,1.78-.52,2.33,4.36,4.95,8.59,6.9,13.11,2.03,4.7,3.28,9.73,5.1,14.53,5.37,14.2,4.47,27.89-3.55,41.5h-8.43c-.47,3.15-1.07,6.17-1.34,9.22-.72,8.2-3.81,15.46-8.47,22.12-4.01,5.72-8,7.22-13.82,3.69-4.75-2.88-9.75-6.5-12.66-11.06-8.32-13.04-7.67-27.99-8.22-42.56.66-.29,1.31-.57,1.97-.86,1.06,1.3,2.66,2.44,3.07,3.92.92,3.27,1.07,6.74,1.87,10.05.6,2.47,1.36,5.05,2.72,7.15,2.87,4.43,6.91,8.42,12.24,8.28,4.74-.12,6.07-5.43,8.09-9.12,3.33-6.05,3.78-12.44,2.16-19.09-1.27-5.22-1.73-10.48-.37-17.92,4.74,4.5,8.12,7.72,12.32,11.7Z"></path>
    <path d="M1159.51,1331.61c2.52-6.41,4.03-12.37,7.07-17.41,2.85-4.73,6.26-8.92,7.37-14.61.26-1.35,3.47-3.21,5.07-2.99,4.47.61,8.94,1.85,13.16,3.48,6.38,2.46,12.55,5.46,18.8,8.25,6.45,2.88,8.27,5.48,5.77,12.04-3.85,10.09-8.6,19.85-13.29,29.6-1.85,3.85-5.22,5.08-9.34,2.94-10.11-5.26-20.32-10.36-30.3-15.85-1.87-1.03-2.9-3.59-4.31-5.44Z"></path>
    <path d="M789.41,675.31c1.73-6.83,4.49-17.88,7.34-28.91.83-3.22,2.95-4.67,6.4-4.12,8.73,1.39,17.53,2.38,26.19,4.11,8.06,1.61,11.18,5.32,9.8,13.28-1.69,9.78-4.36,19.47-7.5,28.91-2.02,6.06-4.91,6.9-11.51,5.88-7.33-1.14-14.66-2.27-21.98-3.45-8.51-1.37-9.3-2.39-8.73-15.69Z"></path>
    <path d="M862.45,615.03c-9.26,1.33-15.72-4.31-23.07-8.79-2.51,2.09-4.83,4.13-7.27,6.02-4.29,3.33-6.72,2.91-9.87-1.53-5.84-8.26-4.41-19.6,3.39-26.69,11.17,2.28,17.74,14.04,31.05,15.39-2.1-6.19-3.8-11.21-5.52-16.23-3.24-9.46-6.42-18.93-5.7-29.16.31-4.48-.23-9.54,5.36-11.4,3.87-1.29,12.53,2.75,14.7,6.94,2.36,4.55,3.71,9.4,1.74,15.08-3.44-2.14-6.31-4.39-9.55-5.84-4.25-1.91-6.92-.16-6.53,4.4.33,3.92,1.44,7.83,2.66,11.6,2.64,8.13,5.73,16.11,8.32,24.25,1.64,5.14,2.51,10.46.29,15.96Z"></path>
    <path d="M999.8,988.15c-.21-3.03-.59-6.06-.61-9.09-.06-9.11-.56-18.26.24-27.3.61-6.94,3.78-8.64,10.69-7.43,4.17.73,8.25,1.91,12.72,2.98.33,1.21.88,2.53,1.04,3.91,1.06,9.15-1.64,11.63-10.57,9.76-1.11-.23-2.18-.74-3.3-.89-4.17-.54-5.67.62-5.73,5.16-.05,3.97.63,7.95.82,11.94.34,7.12.93,14.25.73,21.35-.22,7.89-2.22,8.94-9.62,6.08-1.59-.61-3.12-1.36-5.1-2.23-2.02,1.33-4.05,2.83-6.22,4.07-5.13,2.94-8.34,2.24-9.95-3.28-1.49-5.08-1.8-10.58-2.1-15.93-.24-4.31,2.72-6.27,6.68-5.79,2.99.36,5.97,1.43,8.75,2.67,3.29,1.46,6.35,3.44,9.51,5.2.67-.39,1.34-.78,2.01-1.16Z"></path>
    <path d="M706.68,1270.74c.56,1.76,1.58,3.46,1.57,5.16-.04,6.26-.41,12.53-.67,18.79-.21,5.13-.66,10.27-.57,15.4.04,2.48.64,5.15,1.73,7.38,1.55,3.17,4.45,6.29,7.97,5.02,2.29-.83,4.24-4.34,5.06-7.05,1.07-3.56.88-7.51,1.25-11.47,1.59.48,2.48.52,2.55.79,3.37,12.29,3.94,24.75.84,37.08-2.36,9.41-8.36,11.13-15.69,4.81-2.73-2.36-4.99-5.53-6.66-8.75-1.68-3.24-2.84-6.93-3.37-10.54-2.44-16.79-1.96-33.55,1.56-50.18.4-1.9,1.37-3.7,2.21-5.48.17-.37.97-.44,2.22-.95Z"></path>
    <path d="M1180.29,963.41q-4.46,4.48-10.96,5.66c-3.9-6.61-3.81-13.83-1.94-21.06.99-3.85,4.22-5.24,8.15-3.92,2.66.89,5.07,2.53,7.6,3.82,4.09,2.09,8.24,3.77,13.58,1.92.52-13.22-4.26-26.5.38-39.97,4.85-1.54,10.48-2,14.32,1.32,3.82,3.29,2.47,8.73,1.45,13.91h-12.51c.66,7.03,1.46,13.42,1.79,19.83.27,5.07.12,10.18-.13,15.26-.23,4.59-3.15,6.72-7.48,6.15-4.72-.62-9.35-1.88-14.26-2.91Z"></path>
    <path d="M759.58,1140.88c-.56,4.78-1.07,9.1-1.64,13.87-4.9-.77-8.76-1.38-13.72-2.16-.87,5.85-1.77,11.33-2.49,16.83-.4,3.11-.25,6.3-.81,9.37-1.36,7.39-4.49,8.65-10.55,4.4-2.52-1.77-4.86-3.8-7.42-5.81-2.24,1.46-4.03,2.86-6.01,3.87-5.01,2.56-7.19,1.54-8.49-4.13-1.39-6.04-1.01-11.93,2.91-17.08,2.33-3.05,5.14-4.5,8.78-1.78,2.49,1.86,5.13,3.54,7.61,5.42,2.18,1.65,4.24,3.47,7.12,5.85,3.44-7.02,3.55-13.58,4.14-19.92,1.34-14.61,2.07-15.2,15.88-10.43,1.06.37,2.12.76,4.68,1.69Z"></path>
    <path d="M1237.66,1037.31c-.32-5.82-.67-9.76-.71-13.7-.05-4.56-.23-9.17.38-13.67,1.08-8.06,4.2-9.53,11.77-6.08,1.78.81,3.48,1.83,5.01,2.64.32,1.25.65,2.05.73,2.89,1.06,10.92-.47,12.29-11.56,9.34-1.62,12.22,5.26,25.38-3.52,37.69-5.62-4.4-10.62-8.3-15.74-12.31-2.48,3.45-4.4,6.1-6.61,9.17-1.88-1.54-3.53-2.34-4.33-3.65-2.78-4.57-1.65-15.47,1.78-19.57,3.69-4.4,6.27-4.92,11.04-1.71,3.5,2.35,6.72,5.1,11.76,8.96Z"></path>
    <path d="M1184.79,1091.23c.98,3.4,2.07,5.19,1.89,6.84-1.07,9.91-2.21,19.82-3.76,29.66-1.14,7.31-6.06,11.98-12.35,15.63-4.1-1.2-6.22-4.29-7.38-7.8-1.7-5.12-3.49-10.36-4.06-15.67-1.86-17.37-1.16-34.76,1.22-52.06.12-.9.92-1.71,2.07-2.47,1.63,17.79-2.13,36.32,8.22,52.87,12.85-4.74,8.83-17.33,14.14-27Z"></path>
    <path d="M961.55,484.78c5.52,11.99,4.53,13.99-8.4,17.55.57,10.74,5,21.05,6.05,33.56-6.06-2.41-10.43-4.16-15.41-6.14-1.38,1.26-2.95,2.81-4.64,4.2-4.25,3.49-7.04,3.11-9.33-1.96-2.35-5.19-4.19-10.69-1.81-16.5,1.94-4.74,3.91-5.73,8.59-3.73,4.13,1.76,8.07,3.97,13.6,6.74-.67-4.57-1.11-7.8-1.64-11.01-.42-2.53-.95-5.05-1.44-7.57-2.77-14.28-.74-14.7,10.7-14.49,1.1.02,2.21-.38,3.73-.65Z"></path>
    <path d="M1138.65,1410.01c.54-4.73,1.15-9.44,1.59-14.18,1.52-16.08-.92-31.35-10.38-44.81-3.07-4.37-6.84-8.46-10.99-11.82-7.89-6.38-8.48-7.5-4.57-18.34,1.7.94,3.49,1.61,4.89,2.75,12.55,10.19,19.21,23.75,22.26,39.32,2.54,12.98,2.65,26.06,1.23,39.15-.3,2.74-1.2,5.41-1.82,8.11-.74-.06-1.48-.13-2.21-.19Z"></path>
    <path d="M809.58,829.25c3.56-5.94,5.93-9.91,8.06-13.46,2.98,8.78,1.25,17.64-5.02,23.83-3.68,3.63-5.99,3.96-9.14-.19-2.49-3.28-4.38-7.37-5.33-11.39-2.34-9.87-2.1-19.85,1.01-29.59,1.64-5.15,3.45-10.27,5.44-15.3,1.66-4.21,3.71-8.26,5.58-12.38.55.19,1.09.39,1.64.58-1.15,3.26-2.36,6.49-3.43,9.77-2.47,7.58-5.65,15.05-7.01,22.83-.88,5.04.47,10.67,1.73,15.82.67,2.73,3.3,4.98,6.47,9.47Z"></path>
    <path d="M760.62,757.99c6.07-3.49,4.76-9.93,7.4-14.61,4.88,12.24,2.56,24-6.03,30.13-4.45-1.66-5.82-5.69-7.13-9.78-3.77-11.79-2.51-23.73-.89-35.63.56-4.13,1.76-8.17,4.09-12.16,0,3.92.24,7.86-.06,11.75-.48,6.25-1.49,12.47-1.95,18.72-.31,4.25-.2,8.6,4.57,11.59Z"></path>
    <path d="M1226.12,848.28c2.39-3.27,4.59-6.28,6.63-9.08,2.03,4.25,2.38,5.41.19,11.76-1.36,3.93-3.42,7.77-5.9,11.11-1.72,2.32-4.58,1.07-5.66-1.12-1.48-2.99-2.67-6.33-3.06-9.62-1.09-9.24.46-18.23,3.64-26.95,1.65-4.52,3.3-9.05,6.57-13.23-.7,3.01-1.33,6.03-2.11,9.02-1.37,5.25-3.05,10.43-4.16,15.74-.86,4.13-1.43,8.5,3.87,12.37Z"></path>
    <path d="M920.79,441.1c.7,1.75,1.14,2.5,1.3,3.3.75,3.88,2.37,9.07-1.7,10.78-3.73,1.57-8.79.34-13.19-.24-1.04-.14-2.38-2.52-2.54-3.98-.37-3.54-.12-7.14-.12-11.85,6.34.78,11.5,1.41,16.24,1.99Z"></path>
    <path d="M898.66,1376.45c.29,2.39.58,3.77.61,5.15.17,9.38-1.84,10.91-11.15,8.63-6.77-1.66-8.39-4.28-6.53-10.92.52-1.85,1.51-3.56,2.47-5.74,4.83.95,9.43,1.86,14.59,2.88Z"></path>
    <path d="M993.49,1132.98c-3.38-.75-5.83-1.7-8.31-1.76-6.87-.17-8.63-4.48-7.72-10.38.3-1.92.91-3.8,1.43-5.88,4.69-1.59,10.3-1.78,12.67,1.66,2.89,4.19,5.15,10,1.93,16.36Z"></path>
    <path d="M1245.94,1251.29c13.89,1.83,16.71,7.09,10.15,18.71-1.95-.51-4.07-1.02-6.17-1.63-9.03-2.59-10.26-5.41-6.09-14.04.48-.99,1.26-1.83,2.11-3.05Z"></path>
    <path d="M1302.42,918.06c-1.36.1-2.22.35-3.01.2-13.1-2.44-14.19-4.53-9.09-17.13,15.17.33,16.14,5.63,12.1,16.92Z"></path>
    <path d="M1058.73,1047.28c4.28.22,8.58.43,13.02.66.61,6.06,2.68,10.97-.48,16.01-4.52-.56-8.92-1.11-13.46-1.67-2.15-4.95-1.28-9.47.91-15.01Z"></path>
    <path d="M993.58,810.78c-3.46-1-5.86-1.69-8.26-2.38-6.35-1.84-7.3-3.24-6.29-9.72.3-1.91.87-3.78,1.52-6.51,4.33.79,8.4,1.53,13.03,2.37v16.24Z"></path>
    <path d="M866.12,1186.47v13.7h-13.26v-13.7h13.26Z"></path>
    <path d="M627.66,1112.32c12.47.29,14.08,2.74,9.71,14.81-13.03,1.8-14.97-5.11-9.71-14.81Z"></path>
    <path d="M1278.7,870.87c-1.14,20.66-3.55,41-11.22,60.37-1.56,3.95-3.78,7.64-5.83,11.39-2.06,3.75-4.85,7.2-6.31,11.16-4.09,11.11-11.48,19.8-20.05,27.39-13.66,12.12-27.99,23.48-41.78,35.47-8.41,7.31-16.29,15.21-24.44,22.8-3.02,2.81-5.79,6.17-12.68,6.6,4.09-5.35,6.94-9.44,10.15-13.22,22.45-26.42,42.52-54.54,60.35-84.26,10.7-17.82,17.89-37.03,22.57-57.17,2.78-11.96,4.97-24.07,7.39-36.12,1.72-8.53,1.33-16.94-.74-25.46-4.83-19.87-12.26-38.76-22.19-56.5-12.01-21.43-24.62-42.55-37.7-63.35-22.97-36.54-47.03-72.39-69.66-109.13-44.26-71.85-83.94-146.2-119.82-222.61-11.13-23.72-21.38-47.74-30.1-72.37-8.91-19.24-26.57-64.26-19.44-122.07,2.16-17.53,6.75-33.32,12.17-47.04,7.96-20.16,17.72-35.89,24.22-46.15-4.49,24.64-11.01,57.19-8.73,93.84,3.11,50.07,15.54,90.96,27.09,119.76.2.49.39.97.59,1.45,12.54,30.49,26.85,60.24,42.04,89.6,22.84,44.15,45.84,88.28,70.64,131.35,22.51,39.09,47.71,76.64,71.42,115.07,17.25,27.96,34.53,55.92,50.8,84.46,13.53,23.72,23.21,49.18,26.48,76.49,2.7,22.65,6.06,45.27,4.79,68.26Z"></path>
    <path d="M924.82,268.05c-.57,2.28-1.13,4.7-1.69,7.26.18-1.63.35-3.25.52-4.87.07-.66.57-1.28,1.17-2.38Z"></path>
    <path d="M929.82,405.74c-4.74-10.92-8.08-22.39-9.6-34.36,2.62,13.55,6.19,25.11,9.6,34.36Z"></path>
    <path d="M926.69,274.47c.03-1.1.07-2.17.11-3.21.15,1.08.03,2.15-.11,3.21Z"></path>
    <path d="M1188.45,839.87c-1.18,9.64-2.05,19.33-3.64,28.9-4.67,28.06-16.78,52.56-35.85,73.71-5.92,6.57-11.33,13.6-16.91,20.48-6.03,7.44-8.83,15.72-7.61,25.48,3.71,29.47-1.35,58.08-9.15,86.35-1.06,3.82-2.62,7.61-4.59,11.05-5.53,9.67-11.03,19.39-17.21,28.65-11.01,16.48-24.21,31.11-39.86,43.36-10.79,8.45-21.38,17.35-33.06,24.39-1.95,1.18-3.92,2.3-5.92,3.38-17.49,10.04-37.65,20.34-60.42,29.92-6.12,2.58-12.42,5.1-18.91,7.56-3.66,1.38-7.3,2.71-10.91,3.99-30.65,10.84-59.34,17.93-84.86,22.57-.27.05-.53.1-.8.15-9.44,1.71-18.44,3.07-26.94,4.18,8.7-1.96,18.05-4.34,27.93-7.23.06-.02.11-.03.16-.05,21.95-6.43,46.5-15.43,72.29-28.16,0,0,0,0,.02,0,1.75-.87,3.51-1.74,5.27-2.65-.15-2.76-.09-5.37-.91-7.66-7.76-21.49-15.77-42.89-23.74-64.31-.38-1-1.11-1.87-1.92-3.2-14.62,6.39-27.63,15.84-43.4,19.14,5.7-6.12,13.22-9.48,19.96-13.94,6.63-4.38,13.29-8.73,20.52-13.48-5.2-10.78-10.52-20.84-14.94-31.28-4.57-10.75-9.3-21.61-12.01-32.89-1.95-8.11-1.8-17.14-.57-25.45,1.54-10.38,5.07-20.47,7.93-30.64.58-2.07,2.02-3.9,3.3-6.29,6.13,1.69,8.52,5.99,10.24,10.93,9.32,26.68,18.61,53.38,28,80.04,1.69,4.8,3.79,9.45,5.76,14.3,1.32-.37,2.26-.39,2.86-.83,33.1-24.61,64.44-51.11,92.29-81.72,22.01-24.2,33.1-53.03,39.02-84.43,1.48-7.85,2.9-15.73,3.79-23.66,3.93-34.79-5.8-67.33-16.61-99.72-9.68-29.02-25.34-55.02-41.39-80.67-21.08-33.66-43.58-66.43-65-99.89-23.19-36.24-42.73-74.22-54.65-115.88-7.78-27.19-8.6-54.66-5.44-82.41,1.62-14.18,4.18-28.25,6.48-42.35.42-2.56,1.67-4.98,2.53-7.47.76.14,1.52.28,2.28.42-.31,5.82-.61,11.62-.91,17.43-.53,10.26-1.57,20.52-1.49,30.77.16,22.4,7.51,43.24,15.21,63.89,12.24,32.81,28.95,63.38,47.73,92.84,24.44,38.3,49.49,76.22,73.58,114.73,11.5,18.39,22.19,37.36,29.95,57.77.51,1.34,1.01,2.72,1.8,3.89,11.02,16.15,14.89,35.07,20.76,53.24,5.75,17.75,9.31,35.95,11.54,54.39,3.81,31.37,2.84,62.71-3.05,93.75-1.46,7.67-5.27,15.05-8.86,22.13-10.52,20.74-22.71,40.34-41.53,54.84-8.6,6.63-16.93,13.67-25.95,19.67-24.04,15.97-48.38,31.47-72.6,47.16-2.38,1.54-4.72,3.16-7.99,5.34,8.99,24,17.93,47.9,27.17,72.56,2.77-1.39,5.04-2.32,7.11-3.59,15.59-9.57,30.5-20.04,44.86-31.2.02,0,.03-.03.04-.03,16.49-12.82,32.26-26.58,47.49-40.99,14.66-13.86,25.15-30.97,36.08-47.76,15.84-24.32,24.54-50.87,26.26-79.66.63-10.5-.22-21.1-.4-31.65-.1-6-.21-12-.31-17.99-.14-9.03,3.3-16.54,9.08-23.4,8.66-10.26,16.97-20.82,25.4-31.28,13.89-17.24,20.27-37,22.89-58.98,1.98-16.5-1.54-30.97-7.6-45.66-8.63-20.94-19.08-40.87-30.9-60.17-15.52-25.34-30.17-51.23-46.1-76.31-24.83-39.08-50.78-77.44-75.6-116.53-22.81-35.94-45.15-72.2-66.9-108.8-3.3-5.56-6.26-11.28-8.81-17.15-3.41-9.25-6.97-20.81-9.6-34.36-1.63-8.4-2.9-17.57-3.55-27.41-1.58-23.84,2.3-49.75,6.46-68.66.56-2.56,1.12-4.97,1.69-7.26h0c.93-3.82,1.85-7.2,2.68-10.07-.23,3.62-.51,8.12-.7,13.26v.02c-.04,1.04-.08,2.11-.11,3.21h0c-.09.71-.21,1.42-.27,2.08-1.65,21.21.21,42,6.69,61.89,0,.02,0,.04.03.07,1.39,4.29,3,8.53,4.84,12.73,6.49,14.86,13.82,29.47,22.09,43.42.73,1.24,1.48,2.48,2.23,3.71,19.36,31.71,39.63,62.85,59.76,94.08,22.75,35.31,46.2,70.18,68.52,105.76,18.05,28.79,34.66,58.5,52.33,87.54,15.82,26,29.63,52.95,38.2,82.16,6.86,23.36,10.37,47.4,7.35,71.94Z"></path>
    <path d="M933.11,338.44c-6.48-19.89-8.34-40.68-6.69-61.89.05-.67.17-1.37.27-2.08-.52,17.93.09,42.3,6.42,63.97Z"></path>
  </g>
</svg>