<?xml version="1.0"?>
<svg id="Layer_1" data-name="Layer 1" xmlns="http://www.w3.org/2000/svg" viewBox="0 0 2000 2000">
  <defs>
    
  </defs>
  <g>
    <path class="cls-1" d="M850.39,1239.32s0,.14.14.14c.14-.14.42-.14.69-.28-.28.14-.55.14-.83.14ZM1332.54,964.08c-1.52-4.29-3.32-8.58-5.81-12.31-1.94-2.9-4.98-5.53-8.02-7.33-2.49-1.52-5.12-.41-5.39,3.04-.14,1.8,0,3.46.41,5.12,2.21,9.13,4.98,18.12,6.64,27.25,1.11,5.53,1.38,11.34.69,16.74-.69,4.7-3.18,9.68-8.85,10.23-5.67.41-7.33-4.43-9.27-8.58-2.07-4.29-4.29-8.71-7.05-12.59-.97-1.52-4.01-2.9-5.67-2.49-1.52.28-3.46,3.18-3.46,4.84-.41,9.96-.83,19.92-.28,29.74.55,8.16,2.63,16.18,3.73,24.34,2.07,15.49-.83,30.01-9.27,43.29-4.15,6.5-9.4,10.65-17.43,9.96-7.47-.69-11.34-5.39-13.97-12.03-1.52-3.6-3.18-7.33-5.53-10.51-2.49-3.32-5.81-3.46-8.71-.55-1.66,1.52-3.04,3.46-3.73,5.53-4.29,13.55-7.88,27.11-7.61,41.77.42,12.72-.28,25.45-1.66,38.17-.69,6.36-2.77,12.86-5.81,18.53-8.16,14.94-22.13,17.29-34.58,5.81-10.65-9.96-19.64-21.3-24.07-35.55-4.15-13.42-10.51-25.73-17.7-37.76-1.38-2.21-3.46-3.87-6.5-7.19-1.52,4.43-2.63,6.92-3.18,9.54-1.52,8.44-2.63,16.87-4.29,25.31-1.11,6.09.14,11.62,2.77,17.29,4.29,8.85,8.44,17.98,11.89,27.25,1.66,4.43,3.18,9.68,2.35,14.11-3.32,16.46-10.65,31.12-23.79,42.18-6.5,5.53-12.86,4.01-16.46-3.73-2.07-4.29-3.04-9.13-4.43-13.69-1.66-5.25-2.49-10.65-4.84-15.49-5.12-10.51-10.65-11.2-17.01-1.38-5.12,7.75-8.58,16.6-12.72,25.03-3.32,6.78-5.95,14.11-9.82,20.61-6.92,11.34-15.21,21.16-27.8,26.83-9.96,4.56-19.09,3.18-26.69-4.15-4.7-4.56-9.13-9.68-12.03-15.35-6.36-12.31-11.89-25.17-17.43-37.9-1.8-4.01-3.32-8.16-4.98-12.72-6.09,2.63-12.31,5.12-18.81,7.47-3.6,1.38-7.19,2.77-10.79,4.01,13.28,30.98,24.34,61.55,29.46,94.05,1.24,8.02,2.9,16.87.83,24.48-9.27,35.13-27.8,63.35-63.35,77.18-4.56,1.8-9.82,2.9-14.8,3.04-11.48.14-22.68-1.24-33.47-4.01-1.38-.28-3.04-.69-4.7-1.25-2.35-.69-4.7-1.38-7.19-2.21-1.8-.69-3.73-1.38-5.67-2.21-.83-.28-1.66-.69-2.49-1.11-1.94-.69-3.87-1.52-5.81-2.49-2.21-1.11-4.15-2.63-6.36-4.43-.83-.55-1.66-1.25-2.49-1.8-5.95-4.43-10.65-8.99-14.25-13.14-2.21-2.21-3.87-4.29-5.26-6.22-11.34-14.66-16.18-31.81-17.43-50.34-.55-8.44-1.11-17.01,1.8-25.31,8.71-25.17,18.81-49.79,32.36-72.89.69-.97,1.52-1.94,1.52-3.04.14-1.24,0-3.46-.69-3.73-1.24-.69-3.46-.69-4.56,0-1.8,1.24-3.18,3.32-4.29,5.12-4.56,7.19-8.71,14.66-13.55,21.71-13.42,19.22-21.44,40.52-27.11,63.07-12.03,49.1.28,91.01,37.62,125.17,5.95,5.39,11.76,8.85,15.9,11.2,17.7,10.37,34.85,14.25,47.86,15.63,6.09.55,12.17.55,18.12-.14,1.38-.14,2.77-.41,4.15-.55,8.71-.97,17.29-3.46,25.17-7.33h.14c6.5-3.18,15.35-8.58,24.34-17.01,8.02-7.75,12.59-14.66,16.74-20.88,10.65-15.91,18.26-33.47,22.82-52.56,2.9-11.76,3.46-24.07,4.84-36.24.55-5.12.55-10.37,2.77-15.77,4.7,3.32,8.44,6.36,12.59,8.71,17.15,9.27,35.82,3.46,49.1-11.34,9.96-10.93,17.7-23.51,23.24-37.48,2.07-5.26,4.43-10.37,6.92-15.49,1.11-2.49,2.49-4.98,6.09-5.81,1.8,5.26,3.32,9.96,5.12,14.8,2.49,6.36,5.81,12.17,11.34,16.6,8.58,6.64,14.94,7.05,22.96-.28,5.53-5.12,10.51-11.2,14.66-17.43,8.99-13.42,13.83-28.49,17.57-44.12.83-3.46,1.94-6.78,3.32-11.2,9.68,10.1,20.05,16.87,31.53,21.99,14.25,6.36,35.13-.55,42.18-14.52,4.43-8.85,8.3-18.12,8.71-28.22.69-13.42,1.11-26.69,1.8-39.97.28-7.61.28-15.35,4.84-23.1,2.77,2.63,5.26,4.84,7.75,6.92,10.1,8.71,31.4,10.37,40.8-5.67,9.54-16.32,13.55-33.47,12.59-52-.42-6.5-1.8-13-2.63-19.5-.28-2.9,0-5.81,0-9.82,2.35,1.11,3.73,1.52,4.84,2.21,11.76,7.61,22.13,2.07,26-9.96,2.49-8.02,3.32-16.74,3.32-25.17-.14-16.87-5.12-33.06-10.65-48.82Z"></path>
    <path class="cls-1" d="M918.16,1302.66c-7.19-4.84-7.47-5.26-4.01-13.97,2.77-7.19,4.01-14.8,3.18-22.54-2.07-19.36-22.27-28.91-39-18.67-10.1,6.36-14.94,16.04-18.67,26.56-5.39,15.21-2.35,24.07,11.07,32.64,5.39,3.46,10.79,6.78,17.01,10.65-2.21,3.18-3.6,6.09-5.67,8.16-7.19,7.75-13.97,15.91-21.99,22.54-16.18,13.42-32.92,26-49.65,39.14-.92-.53-1.83-.96-2.63-1.71,3.24,3.44,6.99,7.02,11.76,10.56,1.94-1.11,2.63-1.66,3.32-2.07,28.08-17.7,53.66-38.17,73.03-65.56,3.87-5.39,4.7-5.26,10.65-2.49,5.26,2.63,10.37,5.26,16.46,8.3,1.38-4.56,2.63-8.02,3.32-11.48q2.63-12.86-8.16-20.05ZM897.69,1290.35c-6.64-4.01-12.45-7.61-18.12-11.06,3.6-5.39,6.92-6.64,12.17-4.98,5.67,1.8,7.19,5.53,5.95,16.04Z"></path>
    <path class="cls-1" d="M805.3,1382.88c.72.83,1.68,1.72,2.49,2.58-.04-.04-.1-.05-.14-.09-.83-.83-1.66-1.66-2.35-2.49Z"></path>
    <path class="cls-1" d="M897.74,840.41c0,3.56-.48,7.19.08,10.65,2.75,17.1,6.46,34.07,8.45,51.25,1.36,11.75.77,23.78.4,35.66-.12,3.79-1.76,7.8-3.63,11.21-5.82,10.61-17.35,12.51-26.2,4-5.08-4.88-9.2-10.78-13.54-16.39-3.65-4.72-6.9-9.73-10.48-14.5-2-2.66-4.31-5.07-6.45-7.56-5.35,1.45-6.99,5.24-7.48,9.1-1.39,10.95-3.55,22.01-3.06,32.93.88,19.54,3.42,39.01,5.37,58.49,3.78,37.93,5.97,75.92,3,114-1.91,24.53-7.93,47.91-19.2,70.14-5.55,10.94-12.2,20.66-21.26,28.33-8.82,7.46-19.15,13.31-30.47,16.22-8.46,2.17-17.29,3.53-26.01,3.88-23.17.92-45.08-4.84-65.68-15.13-12.71-6.35-21.68-17.2-30.26-28.22-.43-.55-.24-1.59-.37-2.61,3.38-2.48,5.81.05,8.43,1.37,20.31,10.13,41.67,15.09,64.33,11.64,24.71-3.75,46.43-13.69,61.31-34.62,9.89-13.92,17.23-29.38,22.37-45.73,8.16-25.95,11.2-52.73,12.1-79.77,1.06-32.16-1.27-64.14-5.5-96.03-2.74-20.6-3.89-41.35-.56-61.99,1.06-6.59,3.44-13.18,6.38-19.21,3.78-7.74,12.16-9.06,18.42-3.09,4.28,4.07,7.78,9.01,11.35,13.76,4.43,5.9,8.44,12.12,12.93,17.98,2.04,2.67,4.53,5.16,7.27,7.11,4.41,3.13,9.06,2.26,11.57-2.48,1.8-3.4,2.84-7.42,3.31-11.27,1.65-13.46-1.21-26.52-3.71-39.67-2.96-15.6-5.36-31.31-7.6-47.03-.88-6.17-.77-12.5,2.28-18.34,2.86-5.47,6.16-6.47,10.73-2.32,4.4,3.99,7.96,8.89,12.23,13.04,3.43,3.32,7.08,6.61,11.16,9,5.07,2.97,8.56,2,11.54-2.98,1.99-3.32,3.28-7.22,4.14-11.03,3.79-16.67,1.18-32.64-5.36-48.28-2.83-6.77-4.61-13.99-6.8-21.03-.5-1.62-1.03-3.35-.94-4.99.08-1.51.58-3.67,1.62-4.27,1.14-.65,3.61-.43,4.64.44,2.56,2.15,4.81,4.75,6.83,7.43,2.21,2.94,3.76,6.39,6.06,9.24,2.7,3.36,4.62,3.21,7.8.18,4.15-3.95,5.06-9.15,3.81-14.17-1.49-5.98-3.62-12-6.63-17.35-6.94-12.35-9.79-25.97-13.44-39.36-.33-1.23.14-2.68.28-4.41,8.41.68,13.51,5.64,17.11,11.79,12.55,21.49,21.93,44.32,25.32,69.1,1.09,8,0,16.36-.66,24.51-.63,7.76-5.45,13.14-12.2,16.25-3.93,1.81-4.82,4.27-4.59,7.97.49,7.92,1.39,15.85,1.3,23.76-.13,11.15-2.27,22.02-6.93,32.25-4.3,9.42-13.51,12.92-22.5,7.85-5.12-2.89-9.61-6.99-14.05-10.93-2.27-2.01-3.81-4.86-5.68-7.33-.89.52-1.77,1.04-2.66,1.56Z"></path>
    <path class="cls-1" d="M662.69,1161.73c.34-3.17-.02-6.64,1.16-9.46,2.73-6.52,6.15-12.75,9.39-19.05,11.93-23.22,31.86-38.69,51.87-54.28,14.31-11.15,27.83-23.34,41.51-35.28,3.35-2.92,5.95-6.7,8.12-11.28-6.59,2.12-13.19,4.19-19.75,6.38-18.43,6.15-37.59,8.48-56.73,11.06-8.68,1.17-17.51,2.46-25.79,5.17-11.01,3.6-20.53,9.8-25,21.46-.19.5-.66.91-1.08,1.29-.18.16-.53.11-1.81.34.58-4.08.73-7.99,1.73-11.66,4.47-16.53,10.79-32.25,20.92-46.25,7.32-10.12,18.1-13.17,29.59-14.65,11.26-1.44,22.57-2.52,33.85-3.87,2.18-.26,4.29-1.04,7.07-1.75-5.95-16.39-13.06-31.39-24.58-43.92-4.77-5.18-7.06-5.32-10.52.5-3.24,5.44-7.47,5.13-12.4,4.63-5.44-.55-8.07-4.31-9.17-8.82-1.19-4.92-1.56-10.09-1.77-15.17-.15-3.65.31-7.39.94-11.01,1.44-8.2,6.75-11.65,14.87-9.43,8.4,2.3,15.48,6.98,21.53,13.22,8.38,8.66,14.77,18.69,20.04,29.46,1.34,2.73,2.73,5.43,4.26,8.46,3.65-2.34,2.89-5.45,2.97-8.01.76-22.63-2.36-44.72-9.15-66.34-3.66-11.64-7.04-23.36-10.24-35.14-4.45-16.4-4.68-32.96-2.54-49.83,2.1-16.61,18.32-20.81,30.9-12.88,14.32,9.02,24.39,34.81,20.03,51.29-.27,1.02-.92,1.94-2.06,4.25-1.8-2.32-3.11-3.82-4.2-5.47-3.75-5.66-7.11-11.63-11.26-16.98-2.16-2.79-5.37-5.25-8.63-6.62-8.22-3.48-15.5,1.17-14.91,10.04.55,8.12,2.52,16.23,4.59,24.15,3.94,15.1,9.03,29.91,12.47,45.11,5.54,24.46,7.86,49.35,6.44,74.45-.38,6.73-1.6,13.41-2.5,20.66,1.43.11,2.84.56,4.05.25,12.05-3.07,24.57-4.72,35.03-12.44,3.96-2.92,7.47-1.6,7.82,3.24.45,6.15.5,12.63-.97,18.55-6.72,26.91-19.86,50.48-37.8,71.64-13.91,16.4-30.96,29.16-47.12,43-11.21,9.6-22.12,19.55-33.23,29.26-5.05,4.42-9.55,9.59-15.71,12.57-.75-.28-1.51-.56-2.26-.84Z"></path>
    <path class="cls-1" d="M1053.47,1387.64c4.5-14.68,8.73-28.17,18.69-39.93,6.35,2.65,12.63,5.09,18.74,7.86,7.22,3.28,14.41,6.67,21.44,10.34,6.58,3.44,7.92,6.43,4.76,13.12-4.23,8.94-9.06,17.64-14.17,26.12-3.13,5.2-5.11,5.34-10.59,2.63-8.64-4.27-17.22-8.66-25.86-12.92-1.71-.84-3.6-1.32-4.85-1.77-4.22,9.72-8.2,18.96-12.26,28.17-.91,2.06-2.01,4.08-3.26,5.96-4.55,6.81-6.64,7.19-13.98,3.51-8.61-4.31-17.36-8.34-25.98-12.62-2.26-1.12-4.73-2.35-6.3-4.21-1.45-1.72-2.87-4.53-2.51-6.54,2.41-13.32,10.01-24.3,16.06-36.62,13.72,5.78,26.44,11.14,40.08,16.89Z"></path>
    <path class="cls-1" d="M1155.3,1412.17c2.14-1.61,4.2-3.34,6.43-4.82,35.92-23.85,68.01-52.16,97.71-83.35,24.7-25.94,38.76-57.2,46.27-91.62,3.26-14.94,4.72-30.27,7.05-45.41,1.09-7.08,2.57-14.03,8.23-19.15.82-.74,1.79-1.33,3.1-2.29,4.35,3.52,8.63,6.99,14.14,11.45,1.53-4.21,3.59-7.24,3.51-10.2-.18-6.44-1.35-12.87-2.32-19.27-.92-6.14-2.2-12.23-3.07-18.39-.21-1.47.6-3.08,1.41-6.74,3.58,5.18,6.13,8.85,8.94,12.93,6.17-4.01,6.14-9.36,4.79-15.13-1.66-7.12-3.41-14.24-1.92-22.62,1.33,1.1,2.52,1.58,2.74,2.34,4.44,14.98,8.86,29.95,8.71,45.82-.05,5.71-1.56,10.88-5.88,14.53-3.14,2.65-3.27,5.45-2.97,9.02.47,5.64.62,11.33.54,16.99-.03,2.51-.69,5.08-1.5,7.48-2.99,8.88-7.89,10.43-15.37,5.01-2.04-1.47-4-3.05-6.02-4.59-5.18,2.15-5.3,6.74-6.11,10.73-2.43,11.96-4.5,23.99-6.96,35.95-4.16,20.21-11.77,39.32-22.08,56.97-6.06,10.37-14.62,19.58-23.25,28.11-33.26,32.89-69.92,61.52-110.32,85.22-1.57.92-3.35,1.49-5.04,2.23-.26-.4-.51-.8-.77-1.21Z"></path>
    <path class="cls-1" d="M861.64,700.89c-1.38,5.78-2.09,10.55-3.68,15-2.86,8.01-6.16,15.87-9.46,23.71-2.84,6.76-3.89,7.4-10.91,6.01-7.51-1.49-14.98-3.18-22.36-5.2-2.93-.8-5.58-2.68-8.34-4.12-3.75-1.95-5.39-5.26-4.63-9.21,2.01-10.47,4.38-20.87,6.84-32.36,15.4,2.42,29.81,4.68,45.36,7.12,2.49-14.97,4.88-29.34,7.3-43.88,13.01-1.86,25.39-.25,37.73,1.16,1.63.19,3.17,2.68,4.37,4.37.55.78.4,2.24.22,3.33-2.09,12.54-4.25,25.07-6.49,38.19-12.88.29-24.47-2.13-35.94-4.12Z"></path>
    <path class="cls-1" d="M987.61,584.31c3.28.66,4.71.7,5.93,1.23,33.7,14.7,62.72,35.26,83.51,66.28,14.07,20.99,19.58,44.53,20.78,69.3,1.03,21.09-1.32,41.98-5.02,62.72-.28,1.55-1.1,3-3.28,4.29.29-4.57.51-9.14.89-13.69,1.6-19.02,2.26-38.07-1.62-56.87-6.1-29.53-22.07-53.07-44.74-72.59-14.72-12.67-30.47-23.78-47.65-32.68-6.36-3.29-8.31-8.08-8.76-14.25-.3-4.14-.06-8.31-.06-13.73Z"></path>
    <path class="cls-1" d="M1016.84,827.72c5.71,13.33,7.08,25.77,3.65,38.82-4.67,17.8-13.31,33.66-23.02,49.09-12.54,19.91-25.34,39.69-36.96,60.14-4.51,7.94-6.1,17.55-9.03,26.39-1.12,3.37-2.27,6.73-3.8,11.29-1.98-2.37-3.72-3.49-3.87-4.79-.77-6.7-1.12-13.45-1.61-20.18-.02-.28.12-.56.13-.84.48-23.7,10.58-43.61,23.75-62.63,11.14-16.08,21.62-32.64,31.77-49.37,8.27-13.63,14.63-28.2,16.95-44.22.14-.95.97-1.79,2.05-3.71Z"></path>
    <path class="cls-1" d="M1136.74,801.41c4.52-7.26,6.32-12.62,3.08-19.67-2.79-6.06-3.6-13.05-5.05-19.68-.31-1.4.38-3.03.61-4.55.59-.17,1.18-.34,1.77-.51,2.31,4.33,4.92,8.54,6.86,13.04,2.02,4.67,3.26,9.67,5.07,14.45,5.34,14.12,4.44,27.72-3.53,41.25h-8.38c-.47,3.14-1.07,6.14-1.34,9.16-.72,8.15-3.79,15.37-8.42,21.99-3.98,5.68-7.95,7.17-13.74,3.67-4.73-2.86-9.7-6.46-12.59-10.99-8.27-12.96-7.62-27.82-8.18-42.3.65-.28,1.31-.57,1.96-.85,1.05,1.29,2.64,2.43,3.06,3.9.91,3.25,1.06,6.7,1.86,9.99.6,2.45,1.36,5.02,2.71,7.11,2.85,4.4,6.87,8.37,12.17,8.23,4.71-.12,6.03-5.4,8.04-9.06,3.31-6.02,3.76-12.37,2.15-18.98-1.26-5.19-1.72-10.41-.37-17.81,4.71,4.47,8.08,7.67,12.24,11.63Z"></path>
    <path class="cls-1" d="M1169.3,1320.67c2.5-6.38,4.01-12.29,7.02-17.3,2.83-4.7,6.23-8.87,7.33-14.52.26-1.34,3.45-3.19,5.04-2.98,4.44.61,8.88,1.84,13.08,3.46,6.34,2.45,12.47,5.43,18.68,8.2,6.41,2.86,8.22,5.44,5.74,11.97-3.82,10.03-8.55,19.73-13.21,29.42-1.84,3.83-5.19,5.05-9.28,2.92-10.05-5.23-20.19-10.29-30.12-15.75-1.86-1.02-2.88-3.57-4.29-5.41Z"></path>
    <path class="cls-1" d="M801.4,668.28c1.72-6.79,4.46-17.78,7.29-28.74.83-3.21,2.93-4.64,6.36-4.1,8.68,1.38,17.43,2.37,26.03,4.09,8.01,1.6,11.11,5.29,9.74,13.2-1.68,9.73-4.33,19.36-7.46,28.73-2.01,6.02-4.89,6.86-11.44,5.84-7.29-1.13-14.57-2.26-21.85-3.43-8.46-1.36-9.24-2.37-8.68-15.59Z"></path>
    <path class="cls-1" d="M874,608.35c-9.21,1.32-15.63-4.28-22.93-8.73-2.5,2.08-4.8,4.11-7.22,5.99-4.27,3.31-6.68,2.9-9.81-1.52-5.81-8.21-4.38-19.49,3.37-26.53,11.11,2.27,17.64,13.95,30.86,15.3-2.09-6.15-3.78-11.14-5.49-16.13-3.23-9.4-6.38-18.82-5.67-28.99.31-4.46-.23-9.48,5.32-11.33,3.85-1.28,12.45,2.73,14.61,6.9,2.34,4.52,3.68,9.35,1.73,14.99-3.42-2.13-6.28-4.37-9.49-5.81-4.22-1.9-6.88-.16-6.49,4.37.33,3.89,1.43,7.78,2.64,11.53,2.62,8.08,5.7,16.02,8.27,24.11,1.63,5.11,2.49,10.4.29,15.86Z"></path>
    <path class="cls-1" d="M1010.54,979.25c-.21-3.01-.59-6.02-.61-9.04-.06-9.05-.55-18.16.24-27.14.61-6.9,3.76-8.58,10.63-7.38,4.14.72,8.2,1.9,12.65,2.96.33,1.2.87,2.52,1.03,3.88,1.06,9.1-1.63,11.56-10.5,9.7-1.11-.23-2.17-.74-3.28-.88-4.14-.53-5.64.62-5.69,5.13-.05,3.95.63,7.9.82,11.86.34,7.07.92,14.16.73,21.23-.21,7.84-2.21,8.89-9.56,6.05-1.58-.61-3.11-1.36-5.07-2.22-2.01,1.32-4.03,2.81-6.19,4.05-5.1,2.92-8.29,2.22-9.9-3.26-1.48-5.05-1.79-10.52-2.09-15.83-.24-4.29,2.7-6.24,6.64-5.76,2.97.36,5.94,1.43,8.7,2.65,3.27,1.46,6.31,3.42,9.46,5.17.67-.39,1.33-.77,2-1.16Z"></path>
    <path class="cls-1" d="M719.16,1260.17c.56,1.75,1.57,3.44,1.56,5.13-.04,6.23-.41,12.45-.67,18.68-.21,5.1-.65,10.21-.57,15.3.04,2.47.64,5.12,1.72,7.33,1.54,3.15,4.42,6.25,7.92,4.99,2.27-.82,4.22-4.32,5.03-7,1.07-3.54.88-7.46,1.24-11.4,1.58.47,2.46.52,2.54.79,3.35,12.21,3.91,24.61.84,36.86-2.35,9.36-8.31,11.06-15.59,4.78-2.71-2.34-4.96-5.5-6.62-8.7-1.67-3.22-2.83-6.89-3.35-10.48-2.42-16.69-1.95-33.36,1.55-49.88.4-1.89,1.36-3.68,2.2-5.45.17-.36.96-.44,2.2-.95Z"></path>
    <path class="cls-1" d="M1189.95,954.66q-4.44,4.45-10.89,5.63c-3.88-6.57-3.78-13.75-1.93-20.94.99-3.82,4.2-5.21,8.1-3.9,2.65.89,5.04,2.51,7.56,3.8,4.07,2.08,8.19,3.75,13.5,1.9.52-13.14-4.24-26.34.38-39.73,4.82-1.53,10.41-1.99,14.24,1.31,3.79,3.27,2.46,8.68,1.44,13.83h-12.44c.65,6.99,1.45,13.34,1.78,19.72.26,5.04.12,10.12-.13,15.17-.23,4.56-3.13,6.68-7.44,6.11-4.69-.62-9.29-1.87-14.17-2.89Z"></path>
    <path class="cls-1" d="M771.74,1131.08c-.56,4.75-1.07,9.04-1.63,13.79-4.87-.77-8.71-1.37-13.64-2.15-.87,5.81-1.76,11.26-2.47,16.73-.4,3.09-.24,6.26-.81,9.31-1.36,7.35-4.46,8.6-10.49,4.37-2.51-1.76-4.83-3.77-7.38-5.78-2.23,1.45-4,2.84-5.97,3.85-4.98,2.55-7.14,1.53-8.44-4.11-1.38-6.01-1.01-11.86,2.9-16.97,2.32-3.03,5.11-4.47,8.73-1.77,2.48,1.85,5.1,3.52,7.56,5.39,2.17,1.64,4.22,3.45,7.08,5.82,3.42-6.98,3.53-13.5,4.11-19.8,1.33-14.52,2.06-15.11,15.79-10.37,1.06.36,2.1.76,4.65,1.68Z"></path>
    <path class="cls-1" d="M1246.98,1028.12c-.32-5.79-.67-9.7-.71-13.62-.05-4.53-.22-9.12.38-13.58,1.08-8.01,4.18-9.47,11.7-6.04,1.77.81,3.46,1.82,4.98,2.62.32,1.24.65,2.04.73,2.87,1.05,10.86-.47,12.21-11.49,9.28-1.61,12.15,5.23,25.23-3.5,37.46-5.59-4.37-10.55-8.25-15.65-12.24-2.47,3.43-4.37,6.06-6.57,9.12-1.87-1.53-3.51-2.33-4.3-3.63-2.77-4.54-1.64-15.38,1.77-19.45,3.66-4.37,6.23-4.89,10.98-1.7,3.47,2.34,6.68,5.07,11.69,8.91Z"></path>
    <path class="cls-1" d="M1194.43,1081.72c.98,3.38,2.05,5.16,1.88,6.8-1.06,9.85-2.2,19.7-3.73,29.49-1.14,7.27-6.02,11.91-12.28,15.54-4.07-1.19-6.18-4.27-7.34-7.75-1.69-5.09-3.47-10.3-4.03-15.58-1.85-17.27-1.15-34.55,1.21-51.75.12-.9.91-1.7,2.06-2.45,1.62,17.68-2.12,36.1,8.18,52.55,12.78-4.71,8.78-17.23,14.06-26.84Z"></path>
    <path class="cls-1" d="M972.52,478.88c5.48,11.92,4.5,13.91-8.35,17.45.57,10.68,4.97,20.93,6.02,33.36-6.02-2.4-10.37-4.13-15.32-6.1-1.38,1.25-2.93,2.79-4.61,4.17-4.22,3.47-6.99,3.09-9.27-1.95-2.33-5.16-4.16-10.63-1.8-16.4,1.93-4.71,3.89-5.69,8.54-3.71,4.11,1.75,8.02,3.95,13.52,6.7-.67-4.54-1.1-7.75-1.63-10.95-.42-2.52-.94-5.02-1.43-7.52-2.75-14.19-.73-14.61,10.63-14.41,1.09.02,2.2-.37,3.71-.65Z"></path>
    <path class="cls-1" d="M1148.56,1398.6c.53-4.7,1.14-9.39,1.58-14.09,1.51-15.99-.92-31.17-10.32-44.54-3.05-4.34-6.8-8.41-10.92-11.75-7.84-6.35-8.43-7.46-4.54-18.23,1.69.93,3.47,1.6,4.87,2.73,12.47,10.13,19.1,23.61,22.13,39.09,2.53,12.9,2.63,25.9,1.22,38.92-.3,2.72-1.19,5.37-1.81,8.06-.73-.06-1.47-.13-2.2-.19Z"></path>
    <path class="cls-1" d="M821.45,821.3c3.53-5.91,5.9-9.86,8.01-13.38,2.96,8.72,1.24,17.54-4.99,23.69-3.66,3.61-5.96,3.94-9.09-.18-2.48-3.26-4.36-7.33-5.3-11.32-2.32-9.81-2.08-19.73,1.01-29.42,1.63-5.12,3.43-10.21,5.4-15.21,1.66-4.18,3.69-8.21,5.55-12.31.54.19,1.09.39,1.63.58-1.14,3.24-2.34,6.45-3.41,9.71-2.45,7.54-5.61,14.96-6.97,22.69-.88,5.01.46,10.61,1.72,15.72.67,2.71,3.28,4.95,6.43,9.42Z"></path>
    <path class="cls-1" d="M772.78,750.46c6.03-3.47,4.73-9.88,7.35-14.52,4.86,12.17,2.54,23.86-6,29.95-4.42-1.65-5.79-5.65-7.09-9.72-3.75-11.72-2.5-23.59-.88-35.42.56-4.11,1.75-8.12,4.07-12.09,0,3.9.24,7.81-.06,11.68-.48,6.22-1.48,12.39-1.94,18.61-.31,4.23-.2,8.54,4.54,11.52Z"></path>
    <path class="cls-1" d="M1235.51,840.22c2.37-3.25,4.56-6.24,6.59-9.02,2.01,4.22,2.36,5.38.19,11.69-1.35,3.91-3.4,7.73-5.86,11.05-1.71,2.31-4.56,1.06-5.63-1.11-1.47-2.98-2.66-6.29-3.04-9.57-1.08-9.18.46-18.12,3.62-26.79,1.64-4.5,3.28-8.99,6.53-13.15-.69,2.99-1.32,6-2.09,8.97-1.36,5.22-3.04,10.37-4.14,15.64-.86,4.1-1.42,8.45,3.84,12.29Z"></path>
    <path class="cls-1" d="M932,435.46c.7,1.74,1.14,2.48,1.29,3.28.75,3.86,2.35,9.02-1.69,10.72-3.71,1.56-8.74.33-13.11-.24-1.04-.14-2.37-2.51-2.52-3.96-.37-3.52-.12-7.1-.12-11.78,6.3.77,11.43,1.4,16.15,1.98Z"></path>
    <path class="cls-1" d="M910,1365.24c.29,2.38.58,3.75.61,5.12.17,9.32-1.83,10.85-11.08,8.58-6.73-1.65-8.34-4.25-6.49-10.85.52-1.83,1.51-3.54,2.45-5.7,4.8.95,9.38,1.85,14.51,2.86Z"></path>
    <path class="cls-1" d="M1004.27,1123.23c-3.36-.74-5.8-1.69-8.26-1.75-6.82-.17-8.57-4.45-7.67-10.32.29-1.91.91-3.78,1.42-5.84,4.67-1.58,10.24-1.77,12.6,1.65,2.87,4.16,5.12,9.94,1.91,16.26Z"></path>
    <path class="cls-1" d="M1255.22,1240.82c13.81,1.82,16.62,7.05,10.09,18.6-1.94-.51-4.05-1.02-6.13-1.62-8.98-2.57-10.2-5.37-6.06-13.96.48-.98,1.25-1.82,2.1-3.03Z"></path>
    <path class="cls-1" d="M1311.35,909.58c-1.35.1-2.21.35-3,.2-13.02-2.43-14.11-4.5-9.03-17.02,15.07.33,16.05,5.59,12.03,16.82Z"></path>
    <path class="cls-1" d="M1069.12,1038.03c4.25.22,8.53.43,12.94.66.6,6.02,2.66,10.9-.47,15.92-4.5-.56-8.87-1.1-13.38-1.66-2.13-4.92-1.27-9.42.91-14.92Z"></path>
    <path class="cls-1" d="M1004.35,802.95c-3.44-.99-5.82-1.68-8.21-2.37-6.32-1.83-7.25-3.22-6.25-9.66.3-1.9.87-3.76,1.51-6.47,4.31.78,8.35,1.52,12.95,2.36v16.15Z"></path>
    <path class="cls-1" d="M877.65,1176.39v13.62h-13.19v-13.62h13.19Z"></path>
    <path class="cls-1" d="M640.61,1102.69c12.4.29,14,2.72,9.65,14.72-12.95,1.79-14.89-5.08-9.65-14.72Z"></path>
    <path class="cls-1" d="M1287.78,862.68c-1.13,20.54-3.53,40.75-11.15,60.01-1.55,3.92-3.76,7.6-5.8,11.32-2.05,3.73-4.83,7.16-6.28,11.09-4.07,11.04-11.42,19.69-19.93,27.23-13.58,12.05-27.83,23.34-41.53,35.25-8.36,7.26-16.19,15.12-24.3,22.66-3,2.8-5.75,6.13-12.6,6.56,4.07-5.32,6.9-9.39,10.09-13.14,22.32-26.26,42.26-54.22,59.99-83.76,10.63-17.72,17.79-36.81,22.43-56.83,2.76-11.89,4.95-23.92,7.35-35.9,1.71-8.48,1.32-16.84-.73-25.31-4.8-19.75-12.18-38.53-22.06-56.16-11.94-21.31-24.48-42.3-37.47-62.97-22.83-36.32-46.75-71.96-69.25-108.48-43.99-71.42-83.44-145.33-119.11-221.28-11.07-23.57-21.25-47.45-29.92-71.94-8.86-19.12-26.41-63.88-19.33-121.34,2.15-17.43,6.71-33.12,12.1-46.76,7.91-20.04,17.61-35.68,24.08-45.88-4.47,24.49-10.95,56.85-8.68,93.28,3.09,49.77,15.45,90.42,26.92,119.05.2.49.39.96.59,1.44,12.46,30.31,26.69,59.89,41.79,89.07,22.7,43.89,45.57,87.76,70.22,130.57,22.38,38.86,47.43,76.19,70.99,114.38,17.15,27.79,34.33,55.59,50.5,83.95,13.45,23.57,23.07,48.89,26.32,76.03,2.69,22.52,6.02,45,4.77,67.86Z"></path>
    <path class="cls-1" d="M936,263.44c-.56,2.27-1.13,4.67-1.68,7.21.18-1.62.35-3.23.52-4.84.07-.66.56-1.27,1.16-2.37Z"></path>
    <path class="cls-1" d="M940.97,400.31c-4.71-10.85-8.03-22.25-9.54-34.15,2.61,13.47,6.16,24.96,9.54,34.15Z"></path>
    <path class="cls-1" d="M937.86,269.82c.03-1.09.07-2.16.11-3.19.14,1.07.03,2.14-.11,3.19Z"></path>
    <path class="cls-1" d="M1198.07,831.86c-1.18,9.58-2.04,19.22-3.61,28.73-4.64,27.9-16.68,52.25-35.64,73.27-5.88,6.53-11.26,13.52-16.8,20.36-5.99,7.39-8.78,15.63-7.56,25.33,3.68,29.29-1.34,57.74-9.1,85.84-1.05,3.79-2.61,7.56-4.56,10.98-5.5,9.61-10.96,19.28-17.11,28.48-10.95,16.39-24.07,30.92-39.62,43.1-10.73,8.4-21.25,17.25-32.87,24.25-1.94,1.17-3.9,2.28-5.88,3.36-17.38,9.98-37.43,20.22-60.06,29.75-6.08,2.57-12.35,5.07-18.8,7.51-3.64,1.37-7.26,2.69-10.84,3.96-30.46,10.78-58.99,17.82-84.35,22.43-.26.05-.53.1-.79.14-9.39,1.7-18.33,3.05-26.78,4.15,8.65-1.95,17.94-4.31,27.76-7.19.06-.02.11-.03.16-.05,21.82-6.39,46.23-15.34,71.86-27.99,0,0,0,0,.02,0,1.74-.86,3.49-1.73,5.23-2.63-.14-2.75-.09-5.34-.9-7.61-7.72-21.37-15.68-42.64-23.6-63.93-.38-1-1.1-1.86-1.91-3.18-14.54,6.35-27.47,15.75-43.14,19.02,5.67-6.09,13.14-9.42,19.84-13.85,6.59-4.36,13.22-8.68,20.39-13.4-5.17-10.72-10.45-20.72-14.85-31.09-4.54-10.68-9.24-21.49-11.94-32.7-1.94-8.06-1.79-17.03-.57-25.3,1.53-10.32,5.04-20.35,7.88-30.45.58-2.05,2.01-3.88,3.28-6.25,6.1,1.68,8.47,5.95,10.18,10.86,9.27,26.52,18.5,53.06,27.84,79.56,1.68,4.77,3.77,9.4,5.72,14.21,1.31-.37,2.24-.38,2.85-.83,32.9-24.46,64.05-50.81,91.74-81.23,21.88-24.05,32.9-52.72,38.79-83.93,1.47-7.8,2.88-15.64,3.77-23.52,3.9-34.58-5.76-66.93-16.51-99.13-9.63-28.84-25.19-54.69-41.15-80.19-20.96-33.46-43.32-66.03-64.61-99.29-23.05-36.02-42.48-73.78-54.33-115.19-7.73-27.03-8.55-54.34-5.41-81.92,1.61-14.09,4.15-28.08,6.44-42.1.42-2.54,1.66-4.95,2.52-7.43.76.14,1.51.28,2.27.42-.31,5.78-.61,11.55-.9,17.32-.53,10.2-1.56,20.4-1.48,30.59.16,22.27,7.47,42.99,15.12,63.51,12.17,32.61,28.77,63.01,47.45,92.28,24.3,38.08,49.19,75.77,73.14,114.05,11.43,18.28,22.06,37.14,29.77,57.42.5,1.33,1.01,2.7,1.79,3.86,10.96,16.05,14.8,34.86,20.64,52.92,5.71,17.64,9.25,35.73,11.47,54.06,3.79,31.18,2.82,62.34-3.04,93.19-1.45,7.62-5.23,14.96-8.81,22-10.46,20.62-22.58,40.1-41.28,54.51-8.55,6.59-16.83,13.59-25.8,19.55-23.9,15.88-48.09,31.28-72.17,46.88-2.36,1.53-4.69,3.14-7.94,5.31,8.94,23.86,17.83,47.62,27.01,72.13,2.75-1.38,5.01-2.31,7.07-3.57,15.5-9.51,30.32-19.92,44.59-31.02.02,0,.03-.03.04-.03,16.4-12.75,32.07-26.42,47.21-40.75,14.57-13.78,25-30.79,35.87-47.48,15.75-24.18,24.39-50.57,26.11-79.19.62-10.44-.22-20.97-.4-31.46-.1-5.96-.21-11.93-.31-17.89-.14-8.98,3.28-16.45,9.03-23.26,8.61-10.2,16.87-20.69,25.24-31.09,13.81-17.14,20.15-36.78,22.76-58.63,1.97-16.4-1.53-30.79-7.55-45.39-8.58-20.81-18.97-40.63-30.72-59.81-15.42-25.19-29.99-50.92-45.83-75.85-24.68-38.84-50.48-76.98-75.15-115.84-22.68-35.72-44.88-71.77-66.5-108.15-3.28-5.52-6.22-11.21-8.76-17.05-3.38-9.19-6.93-20.68-9.54-34.15-1.62-8.35-2.88-17.46-3.53-27.25-1.57-23.7,2.28-49.45,6.42-68.25.55-2.54,1.12-4.95,1.68-7.21h0c.93-3.79,1.84-7.16,2.67-10.01-.23,3.6-.5,8.07-.7,13.18v.02c-.04,1.03-.08,2.1-.11,3.19h0c-.09.71-.21,1.41-.26,2.07-1.64,21.08.21,41.75,6.65,61.52,0,.02,0,.04.03.07,1.38,4.26,2.98,8.48,4.81,12.65,6.45,14.77,13.74,29.29,21.96,43.17.72,1.24,1.47,2.46,2.22,3.69,19.24,31.52,39.39,62.48,59.4,93.52,22.62,35.1,45.93,69.77,68.11,105.13,17.95,28.62,34.45,58.15,52.02,87.02,15.72,25.84,29.46,52.64,37.97,81.67,6.82,23.22,10.31,47.12,7.31,71.51Z"></path>
    <path class="cls-1" d="M944.24,333.42c-6.44-19.77-8.29-40.44-6.65-61.52.05-.66.17-1.36.26-2.06-.52,17.82.09,42.05,6.39,63.59Z"></path>
  </g>
  <g>
    <g>
      <path class="cls-1" d="M291.33,1697.69c1.53-2.77,3.66-4.93,6.4-6.48,2.74-1.55,5.84-2.32,9.31-2.32,4.25,0,7.89,1.12,10.91,3.37,3.03,2.24,5.05,5.3,6.07,9.18h-9.59c-.71-1.5-1.73-2.63-3.03-3.42-1.31-.78-2.8-1.17-4.46-1.17-2.69,0-4.86.94-6.53,2.8-1.67,1.87-2.5,4.37-2.5,7.5s.83,5.63,2.5,7.5c1.67,1.87,3.84,2.8,6.53,2.8,1.67,0,3.15-.39,4.46-1.17,1.31-.78,2.32-1.92,3.03-3.42h9.59c-1.02,3.88-3.04,6.93-6.07,9.15-3.03,2.23-6.66,3.34-10.91,3.34-3.47,0-6.57-.77-9.31-2.32-2.74-1.55-4.87-3.7-6.4-6.45-1.53-2.75-2.29-5.9-2.29-9.44s.76-6.69,2.29-9.46Z"></path>
      <path class="cls-1" d="M334.81,1723.73c-2.23-1.19-3.98-2.89-5.25-5.1s-1.91-4.79-1.91-7.75.65-5.5,1.94-7.73c1.29-2.23,3.06-3.94,5.3-5.13,2.24-1.19,4.76-1.79,7.55-1.79s5.3.6,7.55,1.79c2.24,1.19,4.01,2.9,5.3,5.13,1.29,2.23,1.94,4.8,1.94,7.73s-.65,5.5-1.96,7.73c-1.31,2.23-3.09,3.94-5.35,5.13-2.26,1.19-4.79,1.79-7.57,1.79s-5.3-.59-7.52-1.79ZM346.59,1716.13c1.17-1.22,1.76-2.97,1.76-5.25s-.57-4.03-1.71-5.25c-1.14-1.22-2.54-1.84-4.21-1.84s-3.11.6-4.23,1.81c-1.12,1.21-1.68,2.97-1.68,5.28s.55,4.03,1.66,5.25c1.1,1.22,2.49,1.84,4.16,1.84s3.09-.61,4.26-1.84Z"></path>
      <path class="cls-1" d="M406.61,1699.55c2.09,2.14,3.14,5.12,3.14,8.92v16.63h-8.67v-15.45c0-1.84-.48-3.25-1.45-4.26-.97-1-2.3-1.5-4-1.5s-3.03.5-4,1.5c-.97,1-1.45,2.42-1.45,4.26v15.45h-8.67v-15.45c0-1.84-.48-3.25-1.45-4.26-.97-1-2.3-1.5-4-1.5s-3.03.5-4,1.5c-.97,1-1.45,2.42-1.45,4.26v15.45h-8.72v-28.46h8.72v3.57c.88-1.19,2.04-2.13,3.47-2.83,1.43-.7,3.04-1.04,4.84-1.04,2.14,0,4.05.46,5.74,1.38,1.68.92,3,2.23,3.95,3.93.99-1.56,2.33-2.84,4.03-3.83,1.7-.99,3.55-1.48,5.56-1.48,3.54,0,6.35,1.07,8.44,3.21Z"></path>
      <path class="cls-1" d="M428.11,1697.46c1.5-.82,3.25-1.22,5.25-1.22,2.35,0,4.47.6,6.38,1.79,1.9,1.19,3.41,2.89,4.51,5.1,1.1,2.21,1.66,4.78,1.66,7.7s-.55,5.5-1.66,7.73c-1.11,2.23-2.61,3.94-4.51,5.15-1.9,1.21-4.03,1.81-6.38,1.81-1.97,0-3.71-.41-5.23-1.22-1.51-.82-2.69-1.87-3.54-3.16v17.54h-8.72v-42.02h8.72v4.03c.85-1.33,2.02-2.4,3.52-3.21ZM435.23,1705.7c-1.21-1.24-2.7-1.86-4.46-1.86s-3.2.63-4.41,1.89c-1.21,1.26-1.81,2.98-1.81,5.15s.6,3.89,1.81,5.15c1.21,1.26,2.68,1.89,4.41,1.89s3.21-.64,4.44-1.91c1.22-1.28,1.84-3,1.84-5.18s-.6-3.88-1.81-5.12Z"></path>
      <path class="cls-1" d="M450.42,1703.12c1.1-2.21,2.61-3.91,4.51-5.1,1.9-1.19,4.03-1.79,6.38-1.79,2.01,0,3.77.41,5.28,1.22,1.51.82,2.68,1.89,3.49,3.21v-4.03h8.72v28.46h-8.72v-4.03c-.85,1.33-2.03,2.4-3.54,3.21-1.51.82-3.27,1.22-5.28,1.22-2.31,0-4.42-.6-6.32-1.81-1.9-1.21-3.41-2.92-4.51-5.15-1.11-2.23-1.66-4.8-1.66-7.73s.55-5.49,1.66-7.7ZM468.27,1705.72c-1.21-1.26-2.68-1.89-4.41-1.89s-3.21.62-4.41,1.86c-1.21,1.24-1.81,2.95-1.81,5.12s.6,3.9,1.81,5.18c1.21,1.28,2.68,1.91,4.41,1.91s3.2-.63,4.41-1.89c1.21-1.26,1.81-2.97,1.81-5.15s-.6-3.89-1.81-5.15Z"></path>
      <path class="cls-1" d="M510.45,1699.58c1.99,2.16,2.98,5.13,2.98,8.9v16.63h-8.67v-15.45c0-1.9-.49-3.38-1.48-4.44-.99-1.05-2.31-1.58-3.98-1.58s-2.99.53-3.98,1.58c-.99,1.05-1.48,2.53-1.48,4.44v15.45h-8.72v-28.46h8.72v3.77c.88-1.26,2.07-2.25,3.57-2.98,1.5-.73,3.18-1.1,5.05-1.1,3.33,0,5.99,1.08,7.98,3.24Z"></path>
      <path class="cls-1" d="M548.57,1696.65l-17.85,41.97h-9.38l6.53-14.48-11.58-27.49h9.74l6.58,17.8,6.53-17.8h9.44Z"></path>
      <path class="cls-1" d="M576.83,1703.89h-4.69v21.22h-8.72v-21.22h-3.16v-7.24h3.16v-.82c0-3.5,1-6.16,3.01-7.98,2.01-1.82,4.95-2.73,8.82-2.73.65,0,1.12.02,1.43.05v7.39c-1.67-.1-2.84.14-3.52.71-.68.58-1.02,1.62-1.02,3.11v.25h4.69v7.24Z"></path>
      <path class="cls-1" d="M586.34,1723.73c-2.23-1.19-3.98-2.89-5.25-5.1s-1.91-4.79-1.91-7.75.65-5.5,1.94-7.73c1.29-2.23,3.06-3.94,5.3-5.13,2.24-1.19,4.76-1.79,7.55-1.79s5.3.6,7.55,1.79c2.24,1.19,4.01,2.9,5.3,5.13,1.29,2.23,1.94,4.8,1.94,7.73s-.65,5.5-1.96,7.73c-1.31,2.23-3.09,3.94-5.35,5.13-2.26,1.19-4.79,1.79-7.57,1.79s-5.3-.59-7.52-1.79ZM598.12,1716.13c1.17-1.22,1.76-2.97,1.76-5.25s-.57-4.03-1.71-5.25c-1.14-1.22-2.54-1.84-4.21-1.84s-3.11.6-4.23,1.81c-1.12,1.21-1.68,2.97-1.68,5.28s.55,4.03,1.66,5.25c1.1,1.22,2.49,1.84,4.16,1.84s3.09-.61,4.26-1.84Z"></path>
      <path class="cls-1" d="M625.94,1697.69c1.53-.9,3.23-1.35,5.1-1.35v9.23h-2.4c-2.18,0-3.81.47-4.9,1.4-1.09.94-1.63,2.58-1.63,4.92v13.21h-8.72v-28.46h8.72v4.74c1.02-1.56,2.29-2.8,3.83-3.7Z"></path>
      <path class="cls-1" d="M669.8,1700.62c-.65-1.19-1.57-2.1-2.78-2.73-1.21-.63-2.63-.94-4.26-.94-2.82,0-5.08.93-6.78,2.78-1.7,1.85-2.55,4.33-2.55,7.42,0,3.3.89,5.87,2.68,7.73,1.79,1.85,4.24,2.78,7.37,2.78,2.14,0,3.95-.54,5.43-1.63,1.48-1.09,2.56-2.65,3.24-4.69h-11.07v-6.43h18.97v8.11c-.65,2.18-1.74,4.2-3.29,6.07-1.55,1.87-3.51,3.38-5.89,4.54-2.38,1.16-5.07,1.73-8.06,1.73-3.54,0-6.69-.77-9.46-2.32-2.77-1.55-4.93-3.7-6.48-6.45-1.55-2.75-2.32-5.9-2.32-9.44s.77-6.69,2.32-9.46c1.55-2.77,3.7-4.93,6.45-6.48,2.75-1.55,5.9-2.32,9.44-2.32,4.28,0,7.9,1.04,10.84,3.11,2.94,2.07,4.89,4.95,5.84,8.62h-9.64Z"></path>
      <path class="cls-1" d="M711.57,1712.97h-19.74c.14,1.77.71,3.12,1.71,4.05,1,.94,2.23,1.4,3.7,1.4,2.18,0,3.69-.92,4.54-2.75h9.28c-.48,1.87-1.33,3.55-2.58,5.05-1.24,1.5-2.8,2.67-4.67,3.52-1.87.85-3.96,1.28-6.27,1.28-2.79,0-5.27-.59-7.45-1.79-2.18-1.19-3.88-2.89-5.1-5.1-1.22-2.21-1.84-4.79-1.84-7.75s.6-5.54,1.81-7.75c1.21-2.21,2.9-3.91,5.07-5.1,2.18-1.19,4.67-1.79,7.5-1.79s5.2.58,7.34,1.73c2.14,1.16,3.82,2.8,5.02,4.95,1.21,2.14,1.81,4.64,1.81,7.5,0,.82-.05,1.67-.15,2.55ZM702.8,1708.12c0-1.5-.51-2.68-1.53-3.57-1.02-.88-2.29-1.33-3.82-1.33s-2.7.43-3.7,1.28c-1,.85-1.62,2.06-1.86,3.62h10.91Z"></path>
      <path class="cls-1" d="M741.63,1699.58c1.99,2.16,2.98,5.13,2.98,8.9v16.63h-8.67v-15.45c0-1.9-.49-3.38-1.48-4.44-.99-1.05-2.31-1.58-3.98-1.58s-2.99.53-3.98,1.58c-.99,1.05-1.48,2.53-1.48,4.44v15.45h-8.72v-28.46h8.72v3.77c.88-1.26,2.07-2.25,3.57-2.98,1.5-.73,3.18-1.1,5.05-1.1,3.33,0,5.99,1.08,7.98,3.24Z"></path>
      <path class="cls-1" d="M777.36,1712.97h-19.74c.14,1.77.71,3.12,1.71,4.05,1,.94,2.23,1.4,3.7,1.4,2.18,0,3.69-.92,4.54-2.75h9.28c-.48,1.87-1.33,3.55-2.58,5.05-1.24,1.5-2.8,2.67-4.67,3.52-1.87.85-3.96,1.28-6.27,1.28-2.79,0-5.27-.59-7.45-1.79-2.18-1.19-3.88-2.89-5.1-5.1-1.22-2.21-1.84-4.79-1.84-7.75s.6-5.54,1.81-7.75c1.21-2.21,2.9-3.91,5.07-5.1,2.18-1.19,4.67-1.79,7.5-1.79s5.2.58,7.34,1.73c2.14,1.16,3.82,2.8,5.02,4.95,1.21,2.14,1.81,4.64,1.81,7.5,0,.82-.05,1.67-.15,2.55ZM768.59,1708.12c0-1.5-.51-2.68-1.53-3.57-1.02-.88-2.29-1.33-3.82-1.33s-2.7.43-3.7,1.28c-1,.85-1.62,2.06-1.86,3.62h10.91Z"></path>
      <path class="cls-1" d="M794.65,1697.69c1.53-.9,3.23-1.35,5.1-1.35v9.23h-2.4c-2.18,0-3.81.47-4.9,1.4-1.09.94-1.63,2.58-1.63,4.92v13.21h-8.72v-28.46h8.72v4.74c1.02-1.56,2.29-2.8,3.83-3.7Z"></path>
      <path class="cls-1" d="M803.85,1703.12c1.1-2.21,2.61-3.91,4.51-5.1,1.9-1.19,4.03-1.79,6.38-1.79,2.01,0,3.77.41,5.28,1.22,1.51.82,2.68,1.89,3.49,3.21v-4.03h8.72v28.46h-8.72v-4.03c-.85,1.33-2.03,2.4-3.54,3.21-1.51.82-3.27,1.22-5.28,1.22-2.31,0-4.42-.6-6.32-1.81-1.9-1.21-3.41-2.92-4.51-5.15-1.11-2.23-1.66-4.8-1.66-7.73s.55-5.49,1.66-7.7ZM821.7,1705.72c-1.21-1.26-2.68-1.89-4.41-1.89s-3.21.62-4.41,1.86c-1.21,1.24-1.81,2.95-1.81,5.12s.6,3.9,1.81,5.18c1.21,1.28,2.68,1.91,4.41,1.91s3.2-.63,4.41-1.89c1.21-1.26,1.81-2.97,1.81-5.15s-.6-3.89-1.81-5.15Z"></path>
      <path class="cls-1" d="M847.28,1687.36v37.74h-8.72v-37.74h8.72Z"></path>
      <path class="cls-1" d="M890.17,1689.3v6.99h-9.49v28.81h-8.72v-28.81h-9.49v-6.99h27.69Z"></path>
      <path class="cls-1" d="M907.1,1697.69c1.53-.9,3.23-1.35,5.1-1.35v9.23h-2.4c-2.18,0-3.81.47-4.9,1.4-1.09.94-1.63,2.58-1.63,4.92v13.21h-8.72v-28.46h8.72v4.74c1.02-1.56,2.29-2.8,3.83-3.7Z"></path>
      <path class="cls-1" d="M916.31,1703.12c1.1-2.21,2.61-3.91,4.51-5.1,1.9-1.19,4.03-1.79,6.38-1.79,2.01,0,3.77.41,5.28,1.22,1.51.82,2.68,1.89,3.49,3.21v-4.03h8.72v28.46h-8.72v-4.03c-.85,1.33-2.03,2.4-3.54,3.21-1.51.82-3.27,1.22-5.28,1.22-2.31,0-4.42-.6-6.32-1.81-1.9-1.21-3.41-2.92-4.51-5.15-1.11-2.23-1.66-4.8-1.66-7.73s.55-5.49,1.66-7.7ZM934.16,1705.72c-1.21-1.26-2.68-1.89-4.41-1.89s-3.21.62-4.41,1.86c-1.21,1.24-1.81,2.95-1.81,5.12s.6,3.9,1.81,5.18c1.21,1.28,2.68,1.91,4.41,1.91s3.2-.63,4.41-1.89c1.21-1.26,1.81-2.97,1.81-5.15s-.6-3.89-1.81-5.15Z"></path>
      <path class="cls-1" d="M950.94,1703.12c1.1-2.21,2.61-3.91,4.51-5.1,1.9-1.19,4.03-1.79,6.38-1.79,1.87,0,3.58.39,5.13,1.17,1.55.78,2.76,1.84,3.65,3.16v-13.21h8.72v37.74h-8.72v-4.08c-.82,1.36-1.98,2.45-3.49,3.26-1.51.82-3.27,1.22-5.28,1.22-2.35,0-4.47-.6-6.38-1.81-1.9-1.21-3.41-2.92-4.51-5.15-1.11-2.23-1.66-4.8-1.66-7.73s.55-5.49,1.66-7.7ZM968.79,1705.72c-1.21-1.26-2.68-1.89-4.41-1.89s-3.21.62-4.41,1.86c-1.21,1.24-1.81,2.95-1.81,5.12s.6,3.9,1.81,5.18c1.21,1.28,2.68,1.91,4.41,1.91s3.2-.63,4.41-1.89c1.21-1.26,1.81-2.97,1.81-5.15s-.6-3.89-1.81-5.15Z"></path>
      <path class="cls-1" d="M1012.31,1712.97h-19.74c.14,1.77.71,3.12,1.71,4.05,1,.94,2.23,1.4,3.7,1.4,2.18,0,3.69-.92,4.54-2.75h9.28c-.48,1.87-1.33,3.55-2.58,5.05s-2.8,2.67-4.67,3.52c-1.87.85-3.96,1.28-6.27,1.28-2.79,0-5.27-.59-7.45-1.79-2.18-1.19-3.88-2.89-5.1-5.1-1.22-2.21-1.84-4.79-1.84-7.75s.6-5.54,1.81-7.75c1.21-2.21,2.9-3.91,5.07-5.1,2.18-1.19,4.67-1.79,7.5-1.79s5.2.58,7.34,1.73c2.14,1.16,3.82,2.8,5.02,4.95,1.21,2.14,1.81,4.64,1.81,7.5,0,.82-.05,1.67-.15,2.55ZM1003.54,1708.12c0-1.5-.51-2.68-1.53-3.57-1.02-.88-2.29-1.33-3.82-1.33s-2.7.43-3.7,1.28c-1,.85-1.62,2.06-1.86,3.62h10.91Z"></path>
      <path class="cls-1" d="M1026.44,1717.05l-5.66,14.64h-5.56l2.96-14.64h8.26Z"></path>
      <path class="cls-1" d="M1060.76,1725.1l-7.45-13.51h-2.09v13.51h-8.72v-35.8h14.64c2.82,0,5.23.49,7.22,1.48,1.99.99,3.48,2.34,4.46,4.05.99,1.72,1.48,3.63,1.48,5.74,0,2.38-.67,4.51-2.01,6.38-1.34,1.87-3.32,3.2-5.94,3.98l8.26,14.18h-9.84ZM1051.23,1705.42h5.41c1.6,0,2.8-.39,3.6-1.17.8-.78,1.2-1.89,1.2-3.31s-.4-2.43-1.2-3.21c-.8-.78-2-1.17-3.6-1.17h-5.41v8.87Z"></path>
      <path class="cls-1" d="M1102.43,1712.97h-19.74c.13,1.77.71,3.12,1.71,4.05s2.24,1.4,3.7,1.4c2.18,0,3.69-.92,4.54-2.75h9.28c-.48,1.87-1.33,3.55-2.58,5.05-1.24,1.5-2.8,2.67-4.67,3.52-1.87.85-3.96,1.28-6.27,1.28-2.79,0-5.27-.59-7.45-1.79-2.18-1.19-3.88-2.89-5.1-5.1-1.22-2.21-1.84-4.79-1.84-7.75s.6-5.54,1.81-7.75,2.9-3.91,5.08-5.1c2.17-1.19,4.67-1.79,7.5-1.79s5.2.58,7.34,1.73c2.14,1.16,3.82,2.8,5.02,4.95,1.21,2.14,1.81,4.64,1.81,7.5,0,.82-.05,1.67-.15,2.55ZM1093.66,1708.12c0-1.5-.51-2.68-1.53-3.57-1.02-.88-2.29-1.33-3.83-1.33s-2.7.43-3.7,1.28c-1,.85-1.62,2.06-1.86,3.62h10.91Z"></path>
      <path class="cls-1" d="M1112.12,1724.24c-1.94-.85-3.47-2.01-4.59-3.49-1.12-1.48-1.75-3.14-1.89-4.97h8.62c.1.99.56,1.79,1.38,2.4.82.61,1.82.92,3.01.92,1.09,0,1.93-.21,2.52-.64.59-.42.89-.98.89-1.66,0-.82-.43-1.42-1.28-1.81s-2.23-.82-4.13-1.3c-2.04-.48-3.74-.98-5.1-1.5-1.36-.53-2.53-1.36-3.52-2.5-.99-1.14-1.48-2.68-1.48-4.62,0-1.63.45-3.12,1.35-4.46.9-1.34,2.23-2.4,3.98-3.19s3.83-1.17,6.25-1.17c3.57,0,6.38.88,8.44,2.65,2.06,1.77,3.24,4.11,3.54,7.04h-8.06c-.14-.99-.57-1.77-1.3-2.35s-1.69-.87-2.88-.87c-1.02,0-1.8.2-2.35.59-.54.39-.82.93-.82,1.61,0,.82.43,1.43,1.3,1.84.87.41,2.22.82,4.05,1.22,2.11.54,3.83,1.08,5.15,1.61s2.49,1.38,3.49,2.55,1.52,2.75,1.56,4.72c0,1.67-.47,3.15-1.4,4.46-.94,1.31-2.28,2.34-4.03,3.09-1.75.75-3.78,1.12-6.09,1.12-2.48,0-4.69-.42-6.63-1.28Z"></path>
      <path class="cls-1" d="M1151.49,1717.71v7.39h-4.44c-3.16,0-5.63-.77-7.4-2.32s-2.65-4.07-2.65-7.57v-11.32h-3.47v-7.24h3.47v-6.94h8.72v6.94h5.71v7.24h-5.71v11.42c0,.85.2,1.46.61,1.84.41.38,1.09.56,2.04.56h3.11Z"></path>
      <path class="cls-1" d="M1156.26,1703.12c1.1-2.21,2.61-3.91,4.51-5.1,1.9-1.19,4.03-1.79,6.38-1.79,2.01,0,3.77.41,5.28,1.22,1.51.82,2.68,1.89,3.49,3.21v-4.03h8.72v28.46h-8.72v-4.03c-.85,1.33-2.03,2.4-3.54,3.21-1.51.82-3.27,1.22-5.28,1.22-2.31,0-4.42-.6-6.32-1.81s-3.41-2.92-4.51-5.15c-1.11-2.23-1.66-4.8-1.66-7.73s.55-5.49,1.66-7.7ZM1174.11,1705.72c-1.21-1.26-2.68-1.89-4.41-1.89s-3.2.62-4.41,1.86-1.81,2.95-1.81,5.12.6,3.9,1.81,5.18,2.68,1.91,4.41,1.91,3.21-.63,4.41-1.89c1.21-1.26,1.81-2.97,1.81-5.15s-.6-3.89-1.81-5.15Z"></path>
      <path class="cls-1" d="M1219.07,1696.65v28.46h-8.72v-3.88c-.88,1.26-2.08,2.27-3.6,3.03-1.51.77-3.19,1.15-5.02,1.15-2.18,0-4.1-.48-5.76-1.45-1.67-.97-2.96-2.37-3.88-4.21-.92-1.84-1.38-4-1.38-6.48v-16.63h8.67v15.45c0,1.9.49,3.38,1.48,4.44.99,1.05,2.31,1.58,3.98,1.58s3.04-.53,4.03-1.58c.99-1.05,1.48-2.53,1.48-4.44v-15.45h8.72Z"></path>
      <path class="cls-1" d="M1237.89,1697.69c1.53-.9,3.23-1.35,5.1-1.35v9.23h-2.4c-2.18,0-3.81.47-4.9,1.4-1.09.94-1.63,2.58-1.63,4.92v13.21h-8.72v-28.46h8.72v4.74c1.02-1.56,2.29-2.8,3.83-3.7Z"></path>
      <path class="cls-1" d="M1247.09,1703.12c1.1-2.21,2.61-3.91,4.51-5.1,1.9-1.19,4.03-1.79,6.38-1.79,2.01,0,3.77.41,5.28,1.22,1.51.82,2.68,1.89,3.49,3.21v-4.03h8.72v28.46h-8.72v-4.03c-.85,1.33-2.03,2.4-3.54,3.21-1.51.82-3.27,1.22-5.28,1.22-2.31,0-4.42-.6-6.32-1.81s-3.41-2.92-4.51-5.15c-1.11-2.23-1.66-4.8-1.66-7.73s.55-5.49,1.66-7.7ZM1264.94,1705.72c-1.21-1.26-2.68-1.89-4.41-1.89s-3.2.62-4.41,1.86-1.81,2.95-1.81,5.12.6,3.9,1.81,5.18,2.68,1.91,4.41,1.91,3.21-.63,4.41-1.89c1.21-1.26,1.81-2.97,1.81-5.15s-.6-3.89-1.81-5.15Z"></path>
      <path class="cls-1" d="M1307.12,1699.58c1.99,2.16,2.98,5.13,2.98,8.9v16.63h-8.67v-15.45c0-1.9-.49-3.38-1.48-4.44-.99-1.05-2.31-1.58-3.98-1.58s-2.99.53-3.98,1.58c-.99,1.05-1.48,2.53-1.48,4.44v15.45h-8.72v-28.46h8.72v3.77c.88-1.26,2.07-2.25,3.57-2.98,1.5-.73,3.18-1.1,5.05-1.1,3.33,0,5.99,1.08,7.98,3.24Z"></path>
      <path class="cls-1" d="M1332.03,1717.71v7.39h-4.44c-3.16,0-5.63-.77-7.39-2.32-1.77-1.55-2.65-4.07-2.65-7.57v-11.32h-3.47v-7.24h3.47v-6.94h8.72v6.94h5.71v7.24h-5.71v11.42c0,.85.2,1.46.61,1.84.41.38,1.09.56,2.04.56h3.11Z"></path>
      <path class="cls-1" d="M1388.23,1689.3v35.8h-8.72v-21.47l-8.01,21.47h-7.04l-8.06-21.52v21.52h-8.72v-35.8h10.3l10.05,24.79,9.95-24.79h10.25Z"></path>
      <path class="cls-1" d="M1394.43,1703.12c1.1-2.21,2.61-3.91,4.51-5.1,1.9-1.19,4.03-1.79,6.38-1.79,2.01,0,3.77.41,5.28,1.22,1.51.82,2.68,1.89,3.49,3.21v-4.03h8.72v28.46h-8.72v-4.03c-.85,1.33-2.03,2.4-3.54,3.21-1.51.82-3.27,1.22-5.28,1.22-2.31,0-4.42-.6-6.32-1.81s-3.41-2.92-4.51-5.15c-1.11-2.23-1.66-4.8-1.66-7.73s.55-5.49,1.66-7.7ZM1412.28,1705.72c-1.21-1.26-2.68-1.89-4.41-1.89s-3.2.62-4.41,1.86-1.81,2.95-1.81,5.12.6,3.9,1.81,5.18,2.68,1.91,4.41,1.91,3.21-.63,4.41-1.89c1.21-1.26,1.81-2.97,1.81-5.15s-.6-3.89-1.81-5.15Z"></path>
      <path class="cls-1" d="M1454.46,1699.58c1.99,2.16,2.98,5.13,2.98,8.9v16.63h-8.67v-15.45c0-1.9-.49-3.38-1.48-4.44-.99-1.05-2.31-1.58-3.98-1.58s-2.99.53-3.98,1.58c-.99,1.05-1.48,2.53-1.48,4.44v15.45h-8.72v-28.46h8.72v3.77c.88-1.26,2.07-2.25,3.57-2.98,1.5-.73,3.18-1.1,5.05-1.1,3.33,0,5.99,1.08,7.98,3.24Z"></path>
      <path class="cls-1" d="M1463.43,1703.12c1.1-2.21,2.61-3.91,4.51-5.1,1.9-1.19,4.03-1.79,6.38-1.79,2.01,0,3.77.41,5.28,1.22,1.51.82,2.68,1.89,3.49,3.21v-4.03h8.72v28.46h-8.72v-4.03c-.85,1.33-2.03,2.4-3.54,3.21-1.51.82-3.27,1.22-5.28,1.22-2.31,0-4.42-.6-6.32-1.81s-3.41-2.92-4.51-5.15c-1.11-2.23-1.66-4.8-1.66-7.73s.55-5.49,1.66-7.7ZM1481.28,1705.72c-1.21-1.26-2.68-1.89-4.41-1.89s-3.2.62-4.41,1.86-1.81,2.95-1.81,5.12.6,3.9,1.81,5.18,2.68,1.91,4.41,1.91,3.21-.63,4.41-1.89c1.21-1.26,1.81-2.97,1.81-5.15s-.6-3.89-1.81-5.15Z"></path>
      <path class="cls-1" d="M1514.23,1697.46c1.51.82,2.68,1.89,3.49,3.21v-4.03h8.72v28.41c0,2.62-.52,4.99-1.56,7.11-1.04,2.12-2.62,3.82-4.74,5.07s-4.77,1.89-7.93,1.89c-4.22,0-7.63-1-10.25-2.98-2.62-1.99-4.11-4.68-4.49-8.08h8.62c.27,1.09.92,1.95,1.94,2.58,1.02.63,2.28.94,3.77.94,1.8,0,3.24-.52,4.31-1.55,1.07-1.04,1.61-2.7,1.61-4.97v-4.03c-.85,1.33-2.02,2.41-3.52,3.24-1.5.83-3.25,1.25-5.25,1.25-2.35,0-4.47-.6-6.38-1.81s-3.41-2.92-4.51-5.15c-1.11-2.23-1.66-4.8-1.66-7.73s.55-5.49,1.66-7.7c1.1-2.21,2.61-3.91,4.51-5.1,1.9-1.19,4.03-1.79,6.38-1.79,2.01,0,3.77.41,5.28,1.22ZM1515.91,1705.72c-1.21-1.26-2.68-1.89-4.41-1.89s-3.2.62-4.41,1.86-1.81,2.95-1.81,5.12.6,3.9,1.81,5.18,2.68,1.91,4.41,1.91,3.21-.63,4.41-1.89c1.21-1.26,1.81-2.97,1.81-5.15s-.6-3.89-1.81-5.15Z"></path>
      <path class="cls-1" d="M1559.44,1712.97h-19.74c.14,1.77.71,3.12,1.71,4.05,1,.94,2.24,1.4,3.7,1.4,2.18,0,3.69-.92,4.54-2.75h9.28c-.48,1.87-1.33,3.55-2.58,5.05s-2.8,2.67-4.67,3.52c-1.87.85-3.96,1.28-6.27,1.28-2.79,0-5.27-.59-7.45-1.79-2.18-1.19-3.88-2.89-5.1-5.1-1.22-2.21-1.84-4.79-1.84-7.75s.6-5.54,1.81-7.75,2.9-3.91,5.07-5.1c2.18-1.19,4.67-1.79,7.5-1.79s5.2.58,7.34,1.73c2.14,1.16,3.82,2.8,5.02,4.95,1.21,2.14,1.81,4.64,1.81,7.5,0,.82-.05,1.67-.15,2.55ZM1550.67,1708.12c0-1.5-.51-2.68-1.53-3.57-1.02-.88-2.29-1.33-3.83-1.33s-2.7.43-3.7,1.28c-1,.85-1.62,2.06-1.86,3.62h10.91Z"></path>
      <path class="cls-1" d="M1608.93,1699.55c2.09,2.14,3.14,5.12,3.14,8.92v16.63h-8.67v-15.45c0-1.84-.48-3.25-1.45-4.26-.97-1-2.3-1.5-4-1.5s-3.03.5-4,1.5c-.97,1-1.45,2.42-1.45,4.26v15.45h-8.67v-15.45c0-1.84-.48-3.25-1.45-4.26-.97-1-2.3-1.5-4-1.5s-3.03.5-4,1.5c-.97,1-1.45,2.42-1.45,4.26v15.45h-8.72v-28.46h8.72v3.57c.88-1.19,2.04-2.13,3.47-2.83,1.43-.7,3.04-1.04,4.85-1.04,2.14,0,4.05.46,5.74,1.38,1.68.92,3,2.23,3.95,3.93.99-1.56,2.33-2.84,4.03-3.83,1.7-.99,3.55-1.48,5.56-1.48,3.54,0,6.35,1.07,8.44,3.21Z"></path>
      <path class="cls-1" d="M1644.86,1712.97h-19.74c.14,1.77.71,3.12,1.71,4.05,1,.94,2.24,1.4,3.7,1.4,2.18,0,3.69-.92,4.54-2.75h9.28c-.48,1.87-1.33,3.55-2.58,5.05s-2.8,2.67-4.67,3.52c-1.87.85-3.96,1.28-6.27,1.28-2.79,0-5.27-.59-7.45-1.79-2.18-1.19-3.88-2.89-5.1-5.1-1.22-2.21-1.84-4.79-1.84-7.75s.6-5.54,1.81-7.75,2.9-3.91,5.07-5.1c2.18-1.19,4.67-1.79,7.5-1.79s5.2.58,7.34,1.73c2.14,1.16,3.82,2.8,5.02,4.95,1.21,2.14,1.81,4.64,1.81,7.5,0,.82-.05,1.67-.15,2.55ZM1636.09,1708.12c0-1.5-.51-2.68-1.53-3.57-1.02-.88-2.29-1.33-3.83-1.33s-2.7.43-3.7,1.28c-1,.85-1.62,2.06-1.86,3.62h10.91Z"></path>
      <path class="cls-1" d="M1674.93,1699.58c1.99,2.16,2.98,5.13,2.98,8.9v16.63h-8.67v-15.45c0-1.9-.49-3.38-1.48-4.44-.99-1.05-2.31-1.58-3.98-1.58s-2.99.53-3.98,1.58c-.99,1.05-1.48,2.53-1.48,4.44v15.45h-8.72v-28.46h8.72v3.77c.88-1.26,2.07-2.25,3.57-2.98,1.5-.73,3.18-1.1,5.05-1.1,3.33,0,5.99,1.08,7.98,3.24Z"></path>
      <path class="cls-1" d="M1699.84,1717.71v7.39h-4.44c-3.16,0-5.63-.77-7.39-2.32-1.77-1.55-2.65-4.07-2.65-7.57v-11.32h-3.47v-7.24h3.47v-6.94h8.72v6.94h5.71v7.24h-5.71v11.42c0,.85.2,1.46.61,1.84.41.38,1.09.56,2.04.56h3.11Z"></path>
      <path class="cls-1" d="M1714.07,1717.05l-5.66,14.64h-5.56l2.96-14.64h8.26Z"></path>
      <path class="cls-1" d="M313.82,1750.5v6.99h-14.59v7.55h10.91v6.78h-10.91v14.48h-8.72v-35.8h23.31Z"></path>
      <path class="cls-1" d="M323.84,1784.93c-2.23-1.19-3.98-2.89-5.25-5.1s-1.91-4.79-1.91-7.75.65-5.5,1.94-7.73c1.29-2.23,3.06-3.94,5.3-5.13,2.24-1.19,4.76-1.79,7.55-1.79s5.3.6,7.55,1.79c2.24,1.19,4.01,2.9,5.3,5.13,1.29,2.23,1.94,4.8,1.94,7.73s-.65,5.5-1.96,7.73c-1.31,2.23-3.09,3.94-5.35,5.13-2.26,1.19-4.79,1.79-7.57,1.79s-5.3-.59-7.52-1.79ZM335.62,1777.33c1.17-1.22,1.76-2.97,1.76-5.25s-.57-4.03-1.71-5.25c-1.14-1.22-2.54-1.84-4.21-1.84s-3.11.6-4.23,1.81c-1.12,1.21-1.68,2.97-1.68,5.28s.55,4.03,1.66,5.25c1.1,1.22,2.49,1.84,4.16,1.84s3.09-.61,4.26-1.84Z"></path>
      <path class="cls-1" d="M356.33,1784.93c-2.23-1.19-3.98-2.89-5.25-5.1s-1.91-4.79-1.91-7.75.65-5.5,1.94-7.73c1.29-2.23,3.06-3.94,5.3-5.13,2.24-1.19,4.76-1.79,7.55-1.79s5.3.6,7.55,1.79c2.24,1.19,4.01,2.9,5.3,5.13,1.29,2.23,1.94,4.8,1.94,7.73s-.65,5.5-1.96,7.73c-1.31,2.23-3.09,3.94-5.35,5.13-2.26,1.19-4.79,1.79-7.57,1.79s-5.3-.59-7.52-1.79ZM368.11,1777.33c1.17-1.22,1.76-2.97,1.76-5.25s-.57-4.03-1.71-5.25c-1.14-1.22-2.54-1.84-4.21-1.84s-3.11.6-4.23,1.81c-1.12,1.21-1.68,2.97-1.68,5.28s.55,4.03,1.66,5.25c1.1,1.22,2.49,1.84,4.16,1.84s3.09-.61,4.26-1.84Z"></path>
      <path class="cls-1" d="M383.31,1764.32c1.1-2.21,2.61-3.91,4.51-5.1,1.9-1.19,4.03-1.79,6.38-1.79,1.87,0,3.58.39,5.13,1.17,1.55.78,2.76,1.84,3.65,3.16v-13.21h8.72v37.74h-8.72v-4.08c-.82,1.36-1.98,2.45-3.49,3.26-1.51.82-3.27,1.22-5.28,1.22-2.35,0-4.47-.6-6.38-1.81-1.9-1.21-3.41-2.92-4.51-5.15-1.11-2.23-1.66-4.8-1.66-7.73s.55-5.49,1.66-7.7ZM401.16,1766.92c-1.21-1.26-2.68-1.89-4.41-1.89s-3.21.62-4.41,1.86c-1.21,1.24-1.81,2.95-1.81,5.12s.6,3.9,1.81,5.18c1.21,1.28,2.68,1.91,4.41,1.91s3.2-.63,4.41-1.89c1.21-1.26,1.81-2.97,1.81-5.15s-.6-3.89-1.81-5.15Z"></path>
      <path class="cls-1" d="M422.96,1785.44c-1.94-.85-3.47-2.01-4.59-3.49-1.12-1.48-1.75-3.14-1.89-4.97h8.62c.1.99.56,1.79,1.38,2.4.82.61,1.82.92,3.01.92,1.09,0,1.93-.21,2.52-.64.59-.42.89-.98.89-1.66,0-.82-.43-1.42-1.27-1.81-.85-.39-2.23-.82-4.13-1.3-2.04-.48-3.74-.98-5.1-1.5-1.36-.53-2.53-1.36-3.52-2.5-.99-1.14-1.48-2.68-1.48-4.62,0-1.63.45-3.12,1.35-4.46.9-1.34,2.23-2.4,3.98-3.19,1.75-.78,3.83-1.17,6.25-1.17,3.57,0,6.38.88,8.44,2.65,2.06,1.77,3.24,4.11,3.54,7.04h-8.06c-.14-.99-.57-1.77-1.3-2.35-.73-.58-1.69-.87-2.88-.87-1.02,0-1.8.2-2.35.59-.54.39-.82.93-.82,1.61,0,.82.43,1.43,1.3,1.84.87.41,2.22.82,4.05,1.22,2.11.54,3.83,1.08,5.15,1.61,1.33.53,2.49,1.38,3.49,2.55,1,1.17,1.52,2.75,1.56,4.72,0,1.67-.47,3.15-1.4,4.46-.94,1.31-2.28,2.34-4.03,3.09-1.75.75-3.78,1.12-6.09,1.12-2.48,0-4.69-.42-6.63-1.28Z"></path>
      <path class="cls-1" d="M462.33,1778.91v7.39h-4.44c-3.16,0-5.63-.77-7.4-2.32-1.77-1.55-2.65-4.07-2.65-7.57v-11.32h-3.47v-7.24h3.47v-6.94h8.72v6.94h5.71v7.24h-5.71v11.42c0,.85.2,1.46.61,1.84.41.38,1.09.56,2.04.56h3.11Z"></path>
      <path class="cls-1" d="M495.28,1757.84v28.46h-8.72v-3.88c-.88,1.26-2.08,2.27-3.6,3.03-1.51.77-3.19,1.15-5.02,1.15-2.18,0-4.1-.48-5.76-1.45-1.67-.97-2.96-2.37-3.88-4.21-.92-1.84-1.38-4-1.38-6.48v-16.63h8.67v15.45c0,1.9.49,3.38,1.48,4.44.99,1.05,2.31,1.58,3.98,1.58s3.04-.53,4.03-1.58c.99-1.05,1.48-2.53,1.48-4.44v-15.45h8.72Z"></path>
      <path class="cls-1" d="M515.83,1765.09h-4.69v21.22h-8.72v-21.22h-3.16v-7.24h3.16v-.82c0-3.5,1-6.16,3.01-7.98,2.01-1.82,4.95-2.73,8.82-2.73.65,0,1.12.02,1.43.05v7.39c-1.67-.1-2.84.14-3.52.71-.68.58-1.02,1.62-1.02,3.11v.25h4.69v7.24Z"></path>
      <path class="cls-1" d="M534.19,1765.09h-4.69v21.22h-8.72v-21.22h-3.16v-7.24h3.16v-.82c0-3.5,1-6.16,3.01-7.98,2.01-1.82,4.95-2.73,8.82-2.73.65,0,1.12.02,1.43.05v7.39c-1.67-.1-2.84.14-3.52.71-.68.58-1.02,1.62-1.02,3.11v.25h4.69v7.24Z"></path>
      <path class="cls-1" d="M549.01,1764.32c1.1-2.21,2.61-3.91,4.51-5.1,1.9-1.19,4.03-1.79,6.38-1.79,2.01,0,3.77.41,5.28,1.22,1.51.82,2.68,1.89,3.49,3.21v-4.03h8.72v28.46h-8.72v-4.03c-.85,1.33-2.03,2.4-3.54,3.21-1.51.82-3.27,1.22-5.28,1.22-2.31,0-4.42-.6-6.32-1.81-1.9-1.21-3.41-2.92-4.51-5.15-1.11-2.23-1.66-4.8-1.66-7.73s.55-5.49,1.66-7.7ZM566.86,1766.92c-1.21-1.26-2.68-1.89-4.41-1.89s-3.21.62-4.41,1.86c-1.21,1.24-1.81,2.95-1.81,5.12s.6,3.9,1.81,5.18c1.21,1.28,2.68,1.91,4.41,1.91s3.2-.63,4.41-1.89c1.21-1.26,1.81-2.97,1.81-5.15s-.6-3.89-1.81-5.15Z"></path>
      <path class="cls-1" d="M609.03,1760.78c1.99,2.16,2.98,5.13,2.98,8.9v16.63h-8.67v-15.45c0-1.9-.49-3.38-1.48-4.44-.99-1.05-2.31-1.58-3.98-1.58s-2.99.53-3.98,1.58c-.99,1.05-1.48,2.53-1.48,4.44v15.45h-8.72v-28.46h8.72v3.77c.88-1.26,2.07-2.25,3.57-2.98,1.5-.73,3.18-1.1,5.05-1.1,3.33,0,5.99,1.08,7.98,3.24Z"></path>
      <path class="cls-1" d="M618.01,1764.32c1.1-2.21,2.61-3.91,4.51-5.1,1.9-1.19,4.03-1.79,6.38-1.79,1.87,0,3.58.39,5.13,1.17,1.55.78,2.76,1.84,3.65,3.16v-13.21h8.72v37.74h-8.72v-4.08c-.82,1.36-1.98,2.45-3.49,3.26-1.51.82-3.27,1.22-5.28,1.22-2.35,0-4.47-.6-6.38-1.81-1.9-1.21-3.41-2.92-4.51-5.15-1.11-2.23-1.66-4.8-1.66-7.73s.55-5.49,1.66-7.7ZM635.86,1766.92c-1.21-1.26-2.68-1.89-4.41-1.89s-3.21.62-4.41,1.86c-1.21,1.24-1.81,2.95-1.81,5.12s.6,3.9,1.81,5.18c1.21,1.28,2.68,1.91,4.41,1.91s3.2-.63,4.41-1.89c1.21-1.26,1.81-2.97,1.81-5.15s-.6-3.89-1.81-5.15Z"></path>
      <path class="cls-1" d="M704.07,1750.5v35.8h-8.72v-21.47l-8.01,21.47h-7.04l-8.06-21.52v21.52h-8.72v-35.8h10.3l10.05,24.79,9.95-24.79h10.25Z"></path>
      <path class="cls-1" d="M737.02,1774.17h-19.74c.14,1.77.71,3.12,1.71,4.05,1,.94,2.23,1.4,3.7,1.4,2.18,0,3.69-.92,4.54-2.75h9.28c-.48,1.87-1.33,3.55-2.58,5.05-1.24,1.5-2.8,2.67-4.67,3.52-1.87.85-3.96,1.28-6.27,1.28-2.79,0-5.27-.59-7.45-1.79-2.18-1.19-3.88-2.89-5.1-5.1-1.22-2.21-1.84-4.79-1.84-7.75s.6-5.54,1.81-7.75c1.21-2.21,2.9-3.91,5.07-5.1,2.18-1.19,4.67-1.79,7.5-1.79s5.2.58,7.34,1.73c2.14,1.16,3.82,2.8,5.02,4.95,1.21,2.14,1.81,4.64,1.81,7.5,0,.82-.05,1.67-.15,2.55ZM728.25,1769.32c0-1.5-.51-2.68-1.53-3.57-1.02-.88-2.29-1.33-3.82-1.33s-2.7.43-3.7,1.28c-1,.85-1.62,2.06-1.86,3.62h10.91Z"></path>
      <path class="cls-1" d="M741.68,1764.32c1.1-2.21,2.61-3.91,4.51-5.1,1.9-1.19,4.03-1.79,6.38-1.79,2.01,0,3.77.41,5.28,1.22,1.51.82,2.68,1.89,3.49,3.21v-4.03h8.72v28.46h-8.72v-4.03c-.85,1.33-2.03,2.4-3.54,3.21-1.51.82-3.27,1.22-5.28,1.22-2.31,0-4.42-.6-6.32-1.81-1.9-1.21-3.41-2.92-4.51-5.15-1.11-2.23-1.66-4.8-1.66-7.73s.55-5.49,1.66-7.7ZM759.53,1766.92c-1.21-1.26-2.68-1.89-4.41-1.89s-3.21.62-4.41,1.86c-1.21,1.24-1.81,2.95-1.81,5.12s.6,3.9,1.81,5.18c1.21,1.28,2.68,1.91,4.41,1.91s3.2-.63,4.41-1.89c1.21-1.26,1.81-2.97,1.81-5.15s-.6-3.89-1.81-5.15Z"></path>
      <path class="cls-1" d="M785.11,1748.56v37.74h-8.72v-37.74h8.72Z"></path>
      <path class="cls-1" d="M791.77,1785.36c-.97-.9-1.45-2.01-1.45-3.34s.48-2.5,1.45-3.42c.97-.92,2.22-1.38,3.75-1.38s2.73.46,3.7,1.38c.97.92,1.45,2.06,1.45,3.42s-.48,2.44-1.45,3.34c-.97.9-2.2,1.35-3.7,1.35s-2.78-.45-3.75-1.35Z"></path>
      <path class="cls-1" d="M842.48,1767.71c-.95,1.72-2.41,3.1-4.39,4.16-1.97,1.05-4.42,1.58-7.34,1.58h-5.41v12.85h-8.72v-35.8h14.13c2.86,0,5.27.49,7.24,1.48,1.97.99,3.45,2.35,4.44,4.08.99,1.73,1.48,3.72,1.48,5.97,0,2.07-.48,3.97-1.43,5.69ZM833.81,1765.34c.82-.78,1.22-1.89,1.22-3.31s-.41-2.53-1.22-3.32c-.82-.78-2.06-1.17-3.72-1.17h-4.74v8.98h4.74c1.67,0,2.91-.39,3.72-1.17Z"></path>
      <path class="cls-1" d="M861,1758.89c1.53-.9,3.23-1.35,5.1-1.35v9.23h-2.4c-2.18,0-3.81.47-4.9,1.4-1.09.94-1.63,2.58-1.63,4.92v13.21h-8.72v-28.46h8.72v4.74c1.02-1.56,2.29-2.8,3.83-3.7Z"></path>
      <path class="cls-1" d="M875.71,1784.93c-2.23-1.19-3.98-2.89-5.25-5.1s-1.91-4.79-1.91-7.75.65-5.5,1.94-7.73c1.29-2.23,3.06-3.94,5.3-5.13,2.24-1.19,4.76-1.79,7.55-1.79s5.3.6,7.55,1.79c2.24,1.19,4.01,2.9,5.3,5.13,1.29,2.23,1.94,4.8,1.94,7.73s-.65,5.5-1.96,7.73c-1.31,2.23-3.09,3.94-5.35,5.13-2.26,1.19-4.79,1.79-7.57,1.79s-5.3-.59-7.52-1.79ZM887.49,1777.33c1.17-1.22,1.76-2.97,1.76-5.25s-.57-4.03-1.71-5.25c-1.14-1.22-2.54-1.84-4.21-1.84s-3.11.6-4.23,1.81c-1.12,1.21-1.68,2.97-1.68,5.28s.55,4.03,1.66,5.25c1.1,1.22,2.49,1.84,4.16,1.84s3.09-.61,4.26-1.84Z"></path>
      <path class="cls-1" d="M902.69,1764.32c1.1-2.21,2.61-3.91,4.51-5.1,1.9-1.19,4.03-1.79,6.38-1.79,1.87,0,3.58.39,5.13,1.17,1.55.78,2.76,1.84,3.65,3.16v-13.21h8.72v37.74h-8.72v-4.08c-.82,1.36-1.98,2.45-3.49,3.26-1.51.82-3.27,1.22-5.28,1.22-2.35,0-4.47-.6-6.38-1.81-1.9-1.21-3.41-2.92-4.51-5.15-1.11-2.23-1.66-4.8-1.66-7.73s.55-5.49,1.66-7.7ZM920.54,1766.92c-1.21-1.26-2.68-1.89-4.41-1.89s-3.21.62-4.41,1.86c-1.21,1.24-1.81,2.95-1.81,5.12s.6,3.9,1.81,5.18c1.21,1.28,2.68,1.91,4.41,1.91s3.2-.63,4.41-1.89c1.21-1.26,1.81-2.97,1.81-5.15s-.6-3.89-1.81-5.15Z"></path>
      <path class="cls-1" d="M965.5,1757.84v28.46h-8.72v-3.88c-.88,1.26-2.08,2.27-3.6,3.03-1.51.77-3.19,1.15-5.02,1.15-2.18,0-4.1-.48-5.76-1.45-1.67-.97-2.96-2.37-3.88-4.21-.92-1.84-1.38-4-1.38-6.48v-16.63h8.67v15.45c0,1.9.49,3.38,1.48,4.44.99,1.05,2.31,1.58,3.98,1.58s3.04-.53,4.03-1.58c.99-1.05,1.48-2.53,1.48-4.44v-15.45h8.72Z"></path>
      <path class="cls-1" d="M971.84,1764.32c1.21-2.21,2.89-3.91,5.05-5.1,2.16-1.19,4.63-1.79,7.42-1.79,3.57,0,6.55.94,8.95,2.81s3.97,4.5,4.72,7.9h-9.28c-.78-2.17-2.29-3.26-4.54-3.26-1.6,0-2.87.62-3.82,1.86-.95,1.24-1.43,3.02-1.43,5.33s.48,4.09,1.43,5.33c.95,1.24,2.23,1.86,3.82,1.86,2.24,0,3.76-1.09,4.54-3.26h9.28c-.75,3.33-2.33,5.95-4.74,7.85-2.41,1.9-5.39,2.86-8.92,2.86-2.79,0-5.26-.59-7.42-1.79-2.16-1.19-3.84-2.89-5.05-5.1-1.21-2.21-1.81-4.79-1.81-7.75s.6-5.54,1.81-7.75Z"></path>
      <path class="cls-1" d="M1018.48,1778.91v7.39h-4.44c-3.16,0-5.63-.77-7.39-2.32-1.77-1.55-2.65-4.07-2.65-7.57v-11.32h-3.47v-7.24h3.47v-6.94h8.72v6.94h5.71v7.24h-5.71v11.42c0,.85.2,1.46.61,1.84.41.38,1.09.56,2.04.56h3.11Z"></path>
      <path class="cls-1" d="M1023.97,1753.54c-.97-.9-1.45-2.01-1.45-3.34s.48-2.49,1.45-3.39c.97-.9,2.22-1.35,3.75-1.35s2.73.45,3.7,1.35c.97.9,1.45,2.03,1.45,3.39s-.48,2.44-1.45,3.34c-.97.9-2.2,1.35-3.7,1.35s-2.78-.45-3.75-1.35ZM1032.05,1757.84v28.46h-8.72v-28.46h8.72Z"></path>
      <path class="cls-1" d="M1043.81,1784.93c-2.23-1.19-3.98-2.89-5.25-5.1-1.28-2.21-1.91-4.79-1.91-7.75s.64-5.5,1.94-7.73c1.29-2.23,3.06-3.94,5.3-5.13,2.24-1.19,4.76-1.79,7.55-1.79s5.3.6,7.55,1.79c2.24,1.19,4.01,2.9,5.3,5.13,1.29,2.23,1.94,4.8,1.94,7.73s-.65,5.5-1.96,7.73c-1.31,2.23-3.09,3.94-5.36,5.13-2.26,1.19-4.79,1.79-7.57,1.79s-5.3-.59-7.52-1.79ZM1055.59,1777.33c1.17-1.22,1.76-2.97,1.76-5.25s-.57-4.03-1.71-5.25c-1.14-1.22-2.54-1.84-4.21-1.84s-3.11.6-4.23,1.81c-1.12,1.21-1.68,2.97-1.68,5.28s.55,4.03,1.66,5.25c1.1,1.22,2.49,1.84,4.16,1.84s3.08-.61,4.26-1.84Z"></path>
      <path class="cls-1" d="M1096.18,1760.78c1.99,2.16,2.98,5.13,2.98,8.9v16.63h-8.67v-15.45c0-1.9-.49-3.38-1.48-4.44s-2.31-1.58-3.98-1.58-2.99.53-3.98,1.58-1.48,2.53-1.48,4.44v15.45h-8.72v-28.46h8.72v3.77c.88-1.26,2.07-2.25,3.57-2.98,1.5-.73,3.18-1.1,5.05-1.1,3.33,0,5.99,1.08,7.98,3.24Z"></path>
      <path class="cls-1" d="M1115.97,1764.32c1.1-2.21,2.61-3.91,4.51-5.1,1.9-1.19,4.03-1.79,6.38-1.79,2.01,0,3.77.41,5.28,1.22,1.51.82,2.68,1.89,3.49,3.21v-4.03h8.72v28.46h-8.72v-4.03c-.85,1.33-2.03,2.4-3.54,3.21-1.51.82-3.27,1.22-5.28,1.22-2.31,0-4.42-.6-6.32-1.81s-3.41-2.92-4.51-5.15c-1.11-2.23-1.66-4.8-1.66-7.73s.55-5.49,1.66-7.7ZM1133.82,1766.92c-1.21-1.26-2.68-1.89-4.41-1.89s-3.21.62-4.41,1.86c-1.21,1.24-1.81,2.95-1.81,5.12s.6,3.9,1.81,5.18c1.21,1.28,2.68,1.91,4.41,1.91s3.2-.63,4.41-1.89c1.21-1.26,1.81-2.97,1.81-5.15s-.6-3.89-1.81-5.15Z"></path>
      <path class="cls-1" d="M1176,1760.78c1.99,2.16,2.98,5.13,2.98,8.9v16.63h-8.67v-15.45c0-1.9-.49-3.38-1.48-4.44-.99-1.05-2.31-1.58-3.98-1.58s-2.99.53-3.98,1.58-1.48,2.53-1.48,4.44v15.45h-8.72v-28.46h8.72v3.77c.88-1.26,2.07-2.25,3.57-2.98,1.5-.73,3.18-1.1,5.05-1.1,3.33,0,5.99,1.08,7.98,3.24Z"></path>
      <path class="cls-1" d="M1184.97,1764.32c1.1-2.21,2.61-3.91,4.51-5.1,1.9-1.19,4.03-1.79,6.38-1.79,1.87,0,3.58.39,5.13,1.17,1.55.78,2.76,1.84,3.65,3.16v-13.21h8.72v37.74h-8.72v-4.08c-.82,1.36-1.98,2.45-3.49,3.26-1.51.82-3.27,1.22-5.28,1.22-2.35,0-4.47-.6-6.38-1.81s-3.41-2.92-4.51-5.15c-1.11-2.23-1.66-4.8-1.66-7.73s.55-5.49,1.66-7.7ZM1202.82,1766.92c-1.21-1.26-2.68-1.89-4.41-1.89s-3.2.62-4.41,1.86-1.81,2.95-1.81,5.12.6,3.9,1.81,5.18,2.68,1.91,4.41,1.91,3.21-.63,4.41-1.89c1.21-1.26,1.81-2.97,1.81-5.15s-.6-3.89-1.81-5.15Z"></path>
      <path class="cls-1" d="M1256.35,1767.71c-.95,1.72-2.41,3.1-4.39,4.16-1.97,1.05-4.42,1.58-7.34,1.58h-5.41v12.85h-8.72v-35.8h14.13c2.86,0,5.27.49,7.24,1.48,1.97.99,3.45,2.35,4.44,4.08.99,1.73,1.48,3.72,1.48,5.97,0,2.07-.48,3.97-1.43,5.69ZM1247.68,1765.34c.82-.78,1.22-1.89,1.22-3.31s-.41-2.53-1.22-3.32c-.82-.78-2.06-1.17-3.72-1.17h-4.74v8.98h4.74c1.67,0,2.91-.39,3.72-1.17Z"></path>
      <path class="cls-1" d="M1262.24,1764.32c1.1-2.21,2.61-3.91,4.51-5.1,1.9-1.19,4.03-1.79,6.38-1.79,2.01,0,3.77.41,5.28,1.22,1.51.82,2.68,1.89,3.49,3.21v-4.03h8.72v28.46h-8.72v-4.03c-.85,1.33-2.03,2.4-3.54,3.21-1.51.82-3.27,1.22-5.28,1.22-2.31,0-4.42-.6-6.32-1.81s-3.41-2.92-4.51-5.15c-1.11-2.23-1.66-4.8-1.66-7.73s.55-5.49,1.66-7.7ZM1280.09,1766.92c-1.21-1.26-2.68-1.89-4.41-1.89s-3.2.62-4.41,1.86-1.81,2.95-1.81,5.12.6,3.9,1.81,5.18,2.68,1.91,4.41,1.91,3.21-.63,4.41-1.89c1.21-1.26,1.81-2.97,1.81-5.15s-.6-3.89-1.81-5.15Z"></path>
      <path class="cls-1" d="M1297.02,1764.32c1.21-2.21,2.89-3.91,5.05-5.1,2.16-1.19,4.63-1.79,7.42-1.79,3.57,0,6.55.94,8.95,2.81,2.4,1.87,3.97,4.5,4.72,7.9h-9.28c-.78-2.17-2.29-3.26-4.54-3.26-1.6,0-2.87.62-3.83,1.86-.95,1.24-1.43,3.02-1.43,5.33s.48,4.09,1.43,5.33,2.23,1.86,3.83,1.86c2.24,0,3.76-1.09,4.54-3.26h9.28c-.75,3.33-2.33,5.95-4.74,7.85-2.41,1.9-5.39,2.86-8.92,2.86-2.79,0-5.26-.59-7.42-1.79-2.16-1.19-3.84-2.89-5.05-5.1s-1.81-4.79-1.81-7.75.6-5.54,1.81-7.75Z"></path>
      <path class="cls-1" d="M1345.19,1786.3l-8.67-11.93v11.93h-8.72v-37.74h8.72v20.86l8.62-11.58h10.76l-11.83,14.28,11.93,14.18h-10.81Z"></path>
      <path class="cls-1" d="M1359.24,1764.32c1.1-2.21,2.61-3.91,4.51-5.1,1.9-1.19,4.03-1.79,6.38-1.79,2.01,0,3.77.41,5.28,1.22,1.51.82,2.68,1.89,3.49,3.21v-4.03h8.72v28.46h-8.72v-4.03c-.85,1.33-2.03,2.4-3.54,3.21-1.51.82-3.27,1.22-5.28,1.22-2.31,0-4.42-.6-6.32-1.81s-3.41-2.92-4.51-5.15c-1.11-2.23-1.66-4.8-1.66-7.73s.55-5.49,1.66-7.7ZM1377.09,1766.92c-1.21-1.26-2.68-1.89-4.41-1.89s-3.2.62-4.41,1.86-1.81,2.95-1.81,5.12.6,3.9,1.81,5.18,2.68,1.91,4.41,1.91,3.21-.63,4.41-1.89c1.21-1.26,1.81-2.97,1.81-5.15s-.6-3.89-1.81-5.15Z"></path>
      <path class="cls-1" d="M1410.03,1758.66c1.51.82,2.68,1.89,3.49,3.21v-4.03h8.72v28.41c0,2.62-.52,4.99-1.56,7.11-1.04,2.12-2.62,3.82-4.74,5.07s-4.77,1.89-7.93,1.89c-4.22,0-7.63-1-10.25-2.98-2.62-1.99-4.11-4.68-4.49-8.08h8.62c.27,1.09.92,1.95,1.94,2.58,1.02.63,2.28.94,3.77.94,1.8,0,3.24-.52,4.31-1.55,1.07-1.04,1.61-2.7,1.61-4.97v-4.03c-.85,1.33-2.02,2.41-3.52,3.24-1.5.83-3.25,1.25-5.25,1.25-2.35,0-4.47-.6-6.38-1.81s-3.41-2.92-4.51-5.15c-1.11-2.23-1.66-4.8-1.66-7.73s.55-5.49,1.66-7.7c1.1-2.21,2.61-3.91,4.51-5.1,1.9-1.19,4.03-1.79,6.38-1.79,2.01,0,3.77.41,5.28,1.22ZM1411.72,1766.92c-1.21-1.26-2.68-1.89-4.41-1.89s-3.2.62-4.41,1.86-1.81,2.95-1.81,5.12.6,3.9,1.81,5.18,2.68,1.91,4.41,1.91,3.21-.63,4.41-1.89c1.21-1.26,1.81-2.97,1.81-5.15s-.6-3.89-1.81-5.15Z"></path>
      <path class="cls-1" d="M1429.21,1753.54c-.97-.9-1.45-2.01-1.45-3.34s.48-2.49,1.45-3.39c.97-.9,2.22-1.35,3.75-1.35s2.73.45,3.7,1.35c.97.9,1.45,2.03,1.45,3.39s-.48,2.44-1.45,3.34c-.97.9-2.2,1.35-3.7,1.35s-2.78-.45-3.75-1.35ZM1437.29,1757.84v28.46h-8.72v-28.46h8.72Z"></path>
      <path class="cls-1" d="M1468.94,1760.78c1.99,2.16,2.98,5.13,2.98,8.9v16.63h-8.67v-15.45c0-1.9-.49-3.38-1.48-4.44-.99-1.05-2.31-1.58-3.98-1.58s-2.99.53-3.98,1.58c-.99,1.05-1.48,2.53-1.48,4.44v15.45h-8.72v-28.46h8.72v3.77c.88-1.26,2.07-2.25,3.57-2.98,1.5-.73,3.18-1.1,5.05-1.1,3.33,0,5.99,1.08,7.98,3.24Z"></path>
      <path class="cls-1" d="M1494.08,1758.66c1.51.82,2.68,1.89,3.49,3.21v-4.03h8.72v28.41c0,2.62-.52,4.99-1.56,7.11-1.04,2.12-2.62,3.82-4.74,5.07s-4.77,1.89-7.93,1.89c-4.22,0-7.63-1-10.25-2.98-2.62-1.99-4.11-4.68-4.49-8.08h8.62c.27,1.09.92,1.95,1.94,2.58,1.02.63,2.28.94,3.77.94,1.8,0,3.24-.52,4.31-1.55,1.07-1.04,1.61-2.7,1.61-4.97v-4.03c-.85,1.33-2.02,2.41-3.52,3.24-1.5.83-3.25,1.25-5.25,1.25-2.35,0-4.47-.6-6.38-1.81s-3.41-2.92-4.51-5.15c-1.11-2.23-1.66-4.8-1.66-7.73s.55-5.49,1.66-7.7c1.1-2.21,2.61-3.91,4.51-5.1,1.9-1.19,4.03-1.79,6.38-1.79,2.01,0,3.77.41,5.28,1.22ZM1495.77,1766.92c-1.21-1.26-2.68-1.89-4.41-1.89s-3.2.62-4.41,1.86-1.81,2.95-1.81,5.12.6,3.9,1.81,5.18,2.68,1.91,4.41,1.91,3.21-.63,4.41-1.89c1.21-1.26,1.81-2.97,1.81-5.15s-.6-3.89-1.81-5.15Z"></path>
      <path class="cls-1" d="M1522.01,1778.25l-5.66,14.64h-5.56l2.96-14.64h8.26Z"></path>
      <path class="cls-1" d="M1546.79,1779.57h11.42v6.73h-20.14v-35.8h8.72v29.07Z"></path>
      <path class="cls-1" d="M1578.26,1778.91v7.39h-4.44c-3.16,0-5.63-.77-7.39-2.32-1.77-1.55-2.65-4.07-2.65-7.57v-11.32h-3.47v-7.24h3.47v-6.94h8.72v6.94h5.71v7.24h-5.71v11.42c0,.85.2,1.46.61,1.84.41.38,1.09.56,2.04.56h3.11Z"></path>
      <path class="cls-1" d="M1583.03,1764.32c1.1-2.21,2.61-3.91,4.51-5.1,1.9-1.19,4.03-1.79,6.38-1.79,1.87,0,3.58.39,5.13,1.17,1.55.78,2.76,1.84,3.65,3.16v-13.21h8.72v37.74h-8.72v-4.08c-.82,1.36-1.98,2.45-3.49,3.26-1.51.82-3.27,1.22-5.28,1.22-2.35,0-4.47-.6-6.38-1.81s-3.41-2.92-4.51-5.15c-1.11-2.23-1.66-4.8-1.66-7.73s.55-5.49,1.66-7.7ZM1600.88,1766.92c-1.21-1.26-2.68-1.89-4.41-1.89s-3.2.62-4.41,1.86-1.81,2.95-1.81,5.12.6,3.9,1.81,5.18,2.68,1.91,4.41,1.91,3.21-.63,4.41-1.89c1.21-1.26,1.81-2.97,1.81-5.15s-.6-3.89-1.81-5.15Z"></path>
      <path class="cls-1" d="M1618.06,1785.36c-.97-.9-1.45-2.01-1.45-3.34s.48-2.5,1.45-3.42c.97-.92,2.22-1.38,3.75-1.38s2.73.46,3.7,1.38,1.45,2.06,1.45,3.42-.48,2.44-1.45,3.34c-.97.9-2.2,1.35-3.7,1.35s-2.78-.45-3.75-1.35Z"></path>
    </g>
    <g>
      <path class="cls-1" d="M350.74,1633.85c-9.03,7.76-20.61,11.63-34.71,11.63-10.79,0-20.39-1.08-28.79-3.24l2.64-26.5c8.8,3.56,17.78,5.33,26.94,5.33,10.96,0,16.45-4.17,16.45-12.51,0-4.43-2.51-8.07-7.52-10.93l-16.71-6.91c-16.1-6.64-24.14-17.55-24.14-32.71,0-11.54,4.18-20.67,12.5-27.38,8.51-6.94,20.29-10.41,35.34-10.41,7.93,0,15.28.79,22.05,2.36l-2.54,24.31c-6.82-2.39-13.76-3.58-20.81-3.58-11.09,0-16.62,3.82-16.62,11.46,0,4.08,2.56,7.55,7.7,10.41l16.96,7.35c16.38,7.23,24.58,18.05,24.58,32.45,0,11.66-4.43,21.28-13.3,28.86Z"></path>
      <path class="cls-1" d="M452.63,1643.3l-7.34-22.39h-42.17l-7.16,22.39h-27.74l40.16-120.88h33.14l41.73,120.88h-30.63ZM428.76,1569.12c-1.63-4.84-3.17-10.44-4.63-16.79h-.35c-1.81,7.7-3.24,13.35-4.29,16.96l-9.71,29.57h28.68l-9.71-29.74Z"></path>
      <path class="cls-1" d="M569.43,1632.1c-8.87,7.7-21.58,11.55-38.14,11.55l-15.49-.18c-8.58-.12-16.18-.17-22.84-.17v-120.71c12.36-.64,26.83-.97,43.4-.97,27.69,0,41.54,10.18,41.54,30.53,0,12.6-5.51,21.31-16.54,26.16v.52c5.83,1.52,10.62,4.76,14.36,9.71,3.72,4.96,5.59,10.61,5.59,16.96,0,10.91-3.97,19.77-11.89,26.59ZM531.64,1543.67c-3.09,0-6.68.12-10.76.35v26.94c1.57.12,4.34.17,8.31.17,12.77,0,19.15-4.89,19.15-14.69,0-8.51-5.56-12.77-16.7-12.77ZM530.24,1591.69c-4.79,0-7.9.05-9.36.17v28.86c4.66.35,8.31.53,10.93.53,6.17,0,11.03-1.4,14.51-4.19,3.39-2.69,5.07-6.36,5.07-11.03,0-9.56-7.05-14.34-21.16-14.34Z"></path>
      <path class="cls-1" d="M597.4,1643.3v-120.88h68.06v23.44h-40.15v23.96h38.04v22.74h-38.04v26.76h40.15v23.97h-68.06Z"></path>
      <path class="cls-1" d="M684.61,1643.3v-120.88h68.06v23.44h-40.15v23.96h38.04v22.74h-38.04v26.76h40.15v23.97h-68.06Z"></path>
      <path class="cls-1" d="M771.81,1643.3v-120.88h27.91v96.13h36.57v24.75h-64.48Z"></path>
      <path class="cls-1" d="M956.81,1643.3l-7.34-22.39h-42.17l-7.16,22.39h-27.74l40.16-120.88h33.14l41.73,120.88h-30.63ZM932.93,1569.12c-1.63-4.84-3.17-10.44-4.63-16.79h-.35c-1.81,7.7-3.24,13.35-4.29,16.96l-9.71,29.57h28.68l-9.71-29.74Z"></path>
      <path class="cls-1" d="M997.14,1643.3v-120.88h27.91v96.13h36.57v24.75h-64.48Z"></path>
      <path class="cls-1" d="M1070.09,1605.69v-21.87h45.13v21.87h-45.13Z"></path>
      <path class="cls-1" d="M1191.23,1643.3l-28.07-47.32h-1.66v47.32h-27.91v-120.88c8.51-.64,21.11-.97,37.79-.97,30.44,0,45.66,11.95,45.66,35.87,0,8.1-2.42,15.22-7.26,21.34-4.84,6.13-11.14,10.18-18.9,12.16,4.32,5.84,7.43,10.38,9.36,13.65l25.1,38.84h-34.12ZM1169.27,1544.45c-3.03,0-5.62.12-7.77.35v30.97c1.92.23,4.26.35,6.99.35,5.95,0,10.68-1.45,14.18-4.37,3.49-2.97,5.25-7,5.25-12.07,0-10.15-6.22-15.22-18.64-15.22Z"></path>
      <path class="cls-1" d="M1310.2,1643.3l-7.34-22.39h-42.17l-7.16,22.39h-27.74l40.16-120.88h33.14l41.73,120.88h-30.63ZM1286.32,1569.12c-1.63-4.84-3.17-10.44-4.63-16.79h-.35c-1.81,7.7-3.24,13.35-4.29,16.96l-9.71,29.57h28.68l-9.71-29.74Z"></path>
      <path class="cls-1" d="M1411.03,1633.85c-9.03,7.76-20.61,11.63-34.71,11.63-10.79,0-20.39-1.08-28.79-3.24l2.64-26.5c8.8,3.56,17.78,5.33,26.94,5.33,10.96,0,16.45-4.17,16.45-12.51,0-4.43-2.51-8.07-7.52-10.93l-16.71-6.91c-16.1-6.64-24.14-17.55-24.14-32.71,0-11.54,4.18-20.67,12.5-27.38,8.51-6.94,20.29-10.41,35.34-10.41,7.93,0,15.28.79,22.05,2.36l-2.54,24.31c-6.82-2.39-13.76-3.58-20.81-3.58-11.09,0-16.62,3.82-16.62,11.46,0,4.08,2.56,7.55,7.7,10.41l16.96,7.35c16.38,7.23,24.58,18.05,24.58,32.45,0,11.66-4.43,21.28-13.3,28.86Z"></path>
      <path class="cls-1" d="M1510.5,1643.3v-50.29h-44.26v50.29h-27.91v-120.88h27.91v46.36h44.26v-46.36h27.99v120.88h-27.99Z"></path>
      <path class="cls-1" d="M1559.92,1643.3v-120.88h27.91v120.88h-27.91Z"></path>
      <path class="cls-1" d="M1692.88,1627.82c-11.67,10.9-27.57,16.35-47.67,16.35-9.11,0-21.06-.35-35.87-1.04v-120.36c12.66-.75,26.39-1.14,41.2-1.14,40.35,0,60.53,19.59,60.53,58.78,0,20.29-6.06,36.09-18.19,47.41ZM1674.33,1555.3c-5.14-6.76-13.65-10.15-25.54-10.15-5.65,0-9.5.12-11.54.35v74c3.14.46,6.61.7,10.41.7,10.08,0,18.06-3.06,23.95-9.19,6.36-6.59,9.53-16.06,9.53-28.43s-2.26-21.34-6.82-27.29Z"></path>
    </g>
  </g>
</svg>